<?xml version="1.0" encoding="UTF-8"?>
<svg id="Layer_1" data-name="Layer 1" xmlns="http://www.w3.org/2000/svg" viewBox="0 0 373 600">
  <g>
    <path d="M34.4,202.23h-4.96v4.62h5.55v1.38h-7.21v-12.8h6.92v1.38h-5.26v4.06h4.96v1.37h0Z" style="fill: #a3a5a8;"/>
    <path d="M37.07,201.53c0-.96-.03-1.72-.08-2.48h1.45l.09,1.48h.05c.51-.87,1.37-1.69,2.9-1.69,1.25,0,2.2,.76,2.59,1.84h.04c.29-.52,.66-.92,1.04-1.2,.56-.42,1.16-.65,2.02-.65,1.23,0,3.03,.79,3.03,3.99v5.41h-1.63v-5.2c0-1.78-.66-2.83-1.99-2.83-.96,0-1.69,.7-1.99,1.5-.08,.24-.14,.54-.14,.84v5.69h-1.63v-5.51c0-1.46-.65-2.52-1.91-2.52-1.04,0-1.8,.83-2.08,1.67-.08,.25-.13,.54-.13,.82v5.54h-1.63v-6.71h0Z" style="fill: #a3a5a8;"/>
    <path d="M58.01,208.23l-.15-1.16h-.05c-.5,.72-1.5,1.37-2.81,1.37-1.86,0-2.81-1.32-2.81-2.64,0-2.23,1.97-3.45,5.52-3.42v-.2c0-.75-.21-2.13-2.09-2.12-.85,0-1.75,.26-2.39,.69l-.38-1.11c.76-.49,1.87-.81,3.03-.81,2.81,0,3.49,1.92,3.49,3.76v3.44c0,.79,.04,1.57,.14,2.2h-1.5Zm-.26-4.69c-1.81-.04-3.88,.29-3.88,2.06,0,1.1,.72,1.6,1.56,1.6,1.21,0,1.97-.76,2.24-1.54,.06-.18,.08-.37,.08-.53v-1.6h0Z" style="fill: #a3a5a8;"/>
    <path d="M63.94,196.45c0,.57-.4,1.04-1.06,1.04-.61,0-1.01-.47-1.01-1.04s.43-1.04,1.04-1.04,1.03,.46,1.03,1.04Zm-1.87,11.78v-9.19h1.66v9.19h-1.66Z" style="fill: #a3a5a8;"/>
    <path d="M66.52,194.75h1.66v13.49h-1.66v-13.49Z" style="fill: #a3a5a8;"/>
  </g>
  <rect x="25.65" y="220.45" width="320.18" height="38.89" style="fill: none; stroke: #e5e7eb;"/>
  <g>
    <path d="M37.47,290.13c-.6,.3-1.82,.61-3.38,.61-3.61,0-6.31-2.28-6.31-6.49s2.71-6.72,6.68-6.72c1.58,0,2.6,.33,3.04,.56l-.41,1.35c-.62-.3-1.51-.53-2.58-.53-3.01,0-4.99,1.92-4.99,5.28,0,3.13,1.8,5.13,4.91,5.13,1.02,0,2.04-.2,2.71-.53l.33,1.32v.02Z" style="fill: #a3a5a8;"/>
    <path d="M47.59,285.86c0,3.4-2.36,4.89-4.57,4.89-2.49,0-4.42-1.82-4.42-4.73,0-3.07,2.02-4.87,4.56-4.87s4.42,1.92,4.42,4.71h0Zm-7.29,.11c0,2.02,1.15,3.53,2.79,3.53s2.8-1.5,2.8-3.58c0-1.55-.78-3.52-2.77-3.52s-2.82,1.83-2.82,3.57h0Z" style="fill: #a3a5a8;"/>
    <path d="M49.71,283.83c0-.96-.03-1.72-.08-2.48h1.48l.09,1.51h.05c.45-.86,1.52-1.72,3.04-1.72,1.26,0,3.24,.76,3.24,3.92v5.48h-1.66v-5.3c0-1.49-.56-2.73-2.12-2.73-1.1,0-1.95,.78-2.25,1.71-.07,.2-.12,.5-.12,.78v5.54h-1.66v-6.71h-.01Z" style="fill: #a3a5a8;"/>
    <path d="M62.18,278.71v2.65h2.4v1.27h-2.4v4.95c0,1.14,.33,1.79,1.26,1.79,.43,0,.75-.05,.97-.12l.08,1.27c-.32,.13-.84,.23-1.49,.23-.77,0-1.41-.25-1.8-.71-.46-.51-.65-1.32-.65-2.4v-5.02h-1.42v-1.27h1.42v-2.21l1.64-.43h0Z" style="fill: #a3a5a8;"/>
    <path d="M66.46,284.21c0-1.08-.03-2.01-.08-2.86h1.46l.06,1.8h.06c.43-1.23,1.44-2.01,2.56-2.01,.18,0,.31,.01,.46,.05v1.57c-.17-.04-.34-.05-.57-.05-1.18,0-2.01,.89-2.24,2.14-.04,.23-.07,.51-.07,.78v4.91h-1.66v-6.33h.02Z" style="fill: #a3a5a8;"/>
    <path d="M77.68,290.54l-.15-1.16h-.05c-.5,.72-1.5,1.37-2.81,1.37-1.86,0-2.81-1.32-2.81-2.64,0-2.23,1.97-3.45,5.52-3.42v-.2c0-.75-.21-2.13-2.09-2.12-.85,0-1.75,.25-2.39,.68l-.38-1.11c.76-.49,1.87-.8,3.03-.8,2.81,0,3.49,1.92,3.49,3.76v3.44c0,.79,.04,1.57,.14,2.2h-1.5Zm-.26-4.69c-1.81-.04-3.88,.29-3.88,2.06,0,1.1,.72,1.6,1.56,1.6,1.21,0,1.97-.76,2.24-1.54,.06-.18,.08-.37,.08-.53v-1.6h0Z" style="fill: #a3a5a8;"/>
    <path d="M81.51,288.84c.5,.31,1.38,.66,2.21,.66,1.22,0,1.79-.6,1.79-1.37s-.49-1.22-1.71-1.68c-1.66-.6-2.45-1.5-2.44-2.61,0-1.48,1.2-2.69,3.18-2.69,.93,0,1.74,.25,2.25,.56l-.42,1.21c-.35-.22-1.03-.54-1.88-.54-.99,0-1.52,.57-1.52,1.26,0,.76,.54,1.1,1.74,1.57,1.58,.59,2.41,1.39,2.41,2.76,0,1.63-1.26,2.77-3.44,2.77-1.01,0-1.94-.26-2.58-.64,0,0,.41-1.26,.41-1.26Z" style="fill: #a3a5a8;"/>
    <path d="M90.2,286.25c.03,2.26,1.47,3.19,3.14,3.19,1.2,0,1.93-.21,2.54-.47l.29,1.19c-.58,.27-1.61,.59-3.07,.59-2.82,0-4.52-1.88-4.52-4.64s1.64-4.96,4.32-4.96c3,0,3.78,2.63,3.78,4.32,0,.35-.02,.6-.06,.78h-6.42Zm4.89-1.2c.02-1.05-.43-2.71-2.3-2.71-1.71,0-2.43,1.54-2.57,2.71h4.87Z" style="fill: #a3a5a8;"/>
    <path d="M98.79,283.83c0-.96-.03-1.72-.08-2.48h1.48l.09,1.51h.05c.45-.86,1.52-1.72,3.04-1.72,1.26,0,3.24,.76,3.24,3.92v5.48h-1.66v-5.3c0-1.49-.56-2.73-2.12-2.73-1.1,0-1.95,.78-2.25,1.71-.07,.2-.12,.5-.12,.78v5.54h-1.66v-6.71h0Zm1.55-4.07c-.03-1.24,.48-1.98,1.3-1.98,.41,0,.74,.19,1.18,.42,.3,.17,.56,.33,.8,.33,.3,0,.48-.17,.52-.81h.89c.02,1.26-.41,1.92-1.3,1.92-.41,0-.77-.18-1.16-.4-.38-.21-.59-.33-.82-.33-.3,0-.46,.33-.5,.86h-.91Z" style="fill: #a3a5a8;"/>
    <path d="M114.42,290.54l-.15-1.16h-.05c-.5,.72-1.5,1.37-2.81,1.37-1.86,0-2.81-1.32-2.81-2.64,0-2.23,1.97-3.45,5.52-3.42v-.2c0-.75-.21-2.13-2.09-2.12-.85,0-1.75,.25-2.39,.68l-.38-1.11c.76-.49,1.87-.8,3.03-.8,2.81,0,3.49,1.92,3.49,3.76v3.44c0,.79,.04,1.57,.14,2.2h-1.5Zm-.26-4.69c-1.81-.04-3.88,.29-3.88,2.06,0,1.1,.72,1.6,1.56,1.6,1.21,0,1.97-.76,2.24-1.54,.06-.18,.08-.37,.08-.53v-1.6h0Z" style="fill: #a3a5a8;"/>
    <path d="M129.19,284.54h-4.96v4.62h5.55v1.38h-7.21v-12.8h6.92v1.38h-5.26v4.06h4.96v1.37h0Z" style="fill: #a3a5a8;"/>
    <path d="M131.86,283.83c0-.96-.03-1.72-.08-2.48h1.45l.09,1.48h.05c.51-.87,1.37-1.69,2.9-1.69,1.25,0,2.2,.76,2.59,1.84h.04c.29-.52,.66-.92,1.04-1.2,.56-.42,1.16-.65,2.02-.65,1.23,0,3.03,.79,3.03,3.99v5.41h-1.63v-5.2c0-1.78-.66-2.83-1.99-2.83-.96,0-1.69,.7-1.99,1.5-.08,.24-.14,.54-.14,.84v5.69h-1.63v-5.51c0-1.46-.65-2.52-1.91-2.52-1.04,0-1.8,.83-2.08,1.67-.08,.25-.13,.54-.13,.82v5.54h-1.63v-6.71h0Z" style="fill: #a3a5a8;"/>
    <path d="M152.8,290.54l-.15-1.16h-.05c-.5,.72-1.5,1.37-2.81,1.37-1.86,0-2.81-1.32-2.81-2.64,0-2.23,1.97-3.45,5.52-3.42v-.2c0-.75-.21-2.13-2.09-2.12-.85,0-1.75,.25-2.39,.68l-.38-1.11c.76-.49,1.87-.8,3.03-.8,2.81,0,3.49,1.92,3.49,3.76v3.44c0,.79,.04,1.57,.14,2.2h-1.5Zm-.26-4.69c-1.81-.04-3.88,.29-3.88,2.06,0,1.1,.72,1.6,1.56,1.6,1.21,0,1.97-.76,2.24-1.54,.06-.18,.08-.37,.08-.53v-1.6h0Z" style="fill: #a3a5a8;"/>
    <path d="M158.74,278.75c0,.57-.4,1.04-1.06,1.04-.61,0-1.01-.47-1.01-1.04s.43-1.04,1.04-1.04,1.03,.46,1.03,1.04Zm-1.87,11.78v-9.19h1.66v9.19h-1.66Z" style="fill: #a3a5a8;"/>
    <path d="M161.31,277.05h1.66v13.49h-1.66v-13.49Z" style="fill: #a3a5a8;"/>
  </g>
  <rect x="25.65" y="302.75" width="320.18" height="38.89" style="fill: none; stroke: #e5e7eb;"/>
  <rect x="25.65" y="364.89" width="320.18" height="38.89" style="fill: #132748;"/>
  <g>
    <path d="M158.81,390.01c-.57,.29-1.73,.58-3.21,.58-3.42,0-5.98-2.16-5.98-6.15s2.57-6.37,6.33-6.37c1.5,0,2.47,.32,2.88,.53l-.39,1.28c-.59-.28-1.43-.5-2.44-.5-2.85,0-4.73,1.82-4.73,5.01,0,2.97,1.71,4.87,4.65,4.87,.96,0,1.93-.19,2.57-.5l.31,1.25h0Z" style="fill: #fff;"/>
    <path d="M168.41,385.96c0,3.22-2.24,4.64-4.33,4.64-2.36,0-4.19-1.72-4.19-4.49,0-2.91,1.92-4.62,4.32-4.62s4.19,1.82,4.19,4.47h0Zm-6.91,.1c0,1.91,1.09,3.35,2.64,3.35s2.65-1.42,2.65-3.4c0-1.47-.74-3.33-2.62-3.33s-2.67,1.73-2.67,3.38h0Z" style="fill: #fff;"/>
    <path d="M170.41,384.05c0-.91-.03-1.63-.07-2.35h1.4l.09,1.43h.04c.43-.82,1.44-1.63,2.88-1.63,1.2,0,3.07,.72,3.07,3.71v5.19h-1.58v-5.02c0-1.41-.53-2.59-2.01-2.59-1.04,0-1.85,.74-2.13,1.63-.07,.19-.11,.47-.11,.73v5.25h-1.58v-6.36h0Z" style="fill: #fff;"/>
    <path d="M182.23,379.19v2.51h2.28v1.2h-2.28v4.69c0,1.08,.31,1.7,1.2,1.7,.41,0,.71-.05,.92-.12l.07,1.2c-.31,.12-.8,.22-1.42,.22-.73,0-1.33-.24-1.71-.67-.44-.48-.61-1.25-.61-2.27v-4.75h-1.35v-1.2h1.35v-2.1l1.55-.41h0Z" style="fill: #fff;"/>
    <path d="M188.06,379.23c0,.54-.38,.98-1.01,.98-.57,0-.96-.45-.96-.98s.41-.99,.99-.99,.97,.43,.98,.99Zm-1.77,11.17v-8.71h1.58v8.71h-1.58Z" style="fill: #fff;"/>
    <path d="M190.5,384.05c0-.91-.03-1.63-.07-2.35h1.4l.09,1.43h.04c.43-.82,1.44-1.63,2.88-1.63,1.2,0,3.07,.72,3.07,3.71v5.19h-1.58v-5.02c0-1.41-.53-2.59-2.01-2.59-1.04,0-1.85,.74-2.13,1.63-.07,.19-.11,.47-.11,.73v5.25h-1.58v-6.36h0Z" style="fill: #fff;"/>
    <path d="M207.77,388.02c0,.91,.03,1.7,.07,2.38h-1.4l-.08-1.42h-.04c-.4,.7-1.32,1.62-2.88,1.62-1.36,0-3-.76-3-3.82v-5.09h1.58v4.81c0,1.66,.52,2.79,1.95,2.79,1.06,0,1.8-.74,2.1-1.45,.08-.23,.14-.51,.14-.81v-5.33h1.58v6.32h-.02Z" style="fill: #fff;"/>
    <path d="M215.23,390.4l-.14-1.1h-.05c-.48,.68-1.42,1.3-2.66,1.3-1.76,0-2.66-1.25-2.66-2.5,0-2.11,1.87-3.27,5.23-3.24v-.19c0-.71-.2-2.02-1.98-2.01-.81,0-1.66,.24-2.27,.65l-.36-1.05c.72-.46,1.78-.76,2.87-.76,2.66,0,3.31,1.82,3.31,3.56v3.26c0,.74,.03,1.49,.13,2.08h-1.42Zm-.25-4.45c-1.71-.04-3.68,.27-3.68,1.96,0,1.04,.68,1.52,1.48,1.52,1.15,0,1.87-.72,2.12-1.46,.06-.17,.08-.35,.08-.5v-1.51h0Z" style="fill: #fff;"/>
    <path d="M219.08,384.41c0-1.03-.03-1.9-.07-2.71h1.39l.06,1.71h.06c.41-1.17,1.37-1.91,2.42-1.91,.17,0,.3,.01,.44,.04v1.49c-.16-.03-.32-.05-.54-.05-1.12,0-1.9,.84-2.12,2.03-.04,.22-.06,.48-.06,.74v4.65h-1.58v-6h0Z" style="fill: #fff;"/>
  </g>
  <rect x="25.65" y="485.92" width="320.18" height="38.89" style="fill: none; stroke: #e5e7eb;"/>
  <line x1="25.65" y1="445.49" x2="345.83" y2="445.49" style="fill: none; stroke: #eee; stroke-width: .75px;"/>
  <path d="M176.88,97.02v14.43h19.24v-14.43h-19.24Zm17.25,1.6l-7.63,6.18-7.63-6.18h15.26Zm-15.65,11.22v-9.48l8.02,6.49,8.02-6.49v9.48h-16.04Z" style="fill: #132748;"/>
  <path d="M205.83,115.51h-1.61v-3.54c-2.98,6.82-9.8,11.59-17.72,11.59-10.66,0-19.32-8.66-19.32-19.32h1.61c0,9.77,7.94,17.72,17.72,17.72,7.5,0,13.93-4.67,16.51-11.27h-3.62v-1.61h6.44v6.44h0Zm-19.36-13.7l-12.85-2.41h-6.44v-6.44h1.61v3.54c2.98-6.82,9.8-11.59,17.72-11.59,10.66,0,19.32,8.66,19.32,19.32h-1.61c0-9.77-7.94-17.72-17.72-17.72-7.5,0-13.93,4.67-16.51,11.27h3.62v1.61l12.85,2.41h.01Z" style="fill: #a3a5a8; fill-rule: evenodd;"/>
  <g>
    <path d="M101.19,142v-8.08h1.14l2.59,4.09c.6,.95,1.07,1.8,1.45,2.63h.02c-.1-1.09-.12-2.07-.12-3.33v-3.38h.98v8.08h-1.06l-2.57-4.1c-.56-.9-1.1-1.82-1.51-2.7h-.04c.06,1.03,.08,2,.08,3.35v3.45h-.98Z" style="fill: #132748;"/>
    <path d="M109.63,139.29c.02,1.43,.94,2.01,1.99,2.01,.75,0,1.21-.13,1.61-.3l.18,.76c-.37,.17-1.01,.36-1.93,.36-1.79,0-2.85-1.18-2.85-2.93s1.03-3.13,2.72-3.13c1.9,0,2.4,1.67,2.4,2.73,0,.22-.02,.38-.04,.49h-4.08Zm3.09-.76c.01-.67-.28-1.71-1.46-1.71-1.07,0-1.54,.98-1.62,1.71h3.08Z" style="fill: #132748;"/>
    <path d="M119.2,141.78c-.28,.14-.89,.34-1.67,.34-1.75,0-2.89-1.19-2.89-2.96s1.22-3.08,3.12-3.08c.62,0,1.17,.16,1.46,.3l-.24,.82c-.25-.14-.65-.28-1.22-.28-1.33,0-2.05,.98-2.05,2.19,0,1.34,.86,2.17,2.02,2.17,.6,0,1-.16,1.29-.29l.18,.79Z" style="fill: #132748;"/>
    <path d="M120.95,139.29c.02,1.43,.94,2.01,1.99,2.01,.76,0,1.21-.13,1.61-.3l.18,.76c-.37,.17-1.01,.36-1.93,.36-1.79,0-2.85-1.18-2.85-2.93s1.03-3.13,2.72-3.13c1.89,0,2.4,1.67,2.4,2.73,0,.22-.02,.38-.04,.49h-4.08Zm3.09-.76c.01-.67-.28-1.71-1.46-1.71-1.07,0-1.54,.98-1.62,1.71h3.08Z" style="fill: #132748;"/>
    <path d="M126.23,140.92c.31,.2,.86,.42,1.39,.42,.77,0,1.13-.38,1.13-.86,0-.5-.3-.78-1.08-1.07-1.04-.37-1.54-.95-1.54-1.64,0-.94,.76-1.7,2-1.7,.59,0,1.1,.17,1.43,.36l-.26,.77c-.23-.14-.65-.34-1.19-.34-.62,0-.97,.36-.97,.79,0,.48,.35,.7,1.1,.98,1.01,.38,1.52,.89,1.52,1.75,0,1.02-.79,1.74-2.17,1.74-.63,0-1.22-.16-1.63-.4l.26-.8Z" style="fill: #132748;"/>
    <path d="M132.3,134.56c.01,.36-.25,.65-.67,.65-.37,0-.64-.29-.64-.65s.28-.66,.66-.66,.65,.29,.65,.66Zm-1.17,7.44v-5.8h1.06v5.8h-1.06Z" style="fill: #132748;"/>
    <path d="M135.21,134.53v1.67h1.51v.8h-1.51v3.13c0,.72,.2,1.13,.79,1.13,.28,0,.48-.04,.61-.07l.05,.79c-.2,.08-.53,.14-.94,.14-.49,0-.89-.16-1.14-.44-.3-.31-.41-.83-.41-1.51v-3.17h-.9v-.8h.9v-1.39l1.03-.28Z" style="fill: #132748;"/>
    <path d="M141.12,142l-.08-.73h-.04c-.32,.46-.95,.86-1.78,.86-1.17,0-1.77-.83-1.77-1.67,0-1.4,1.25-2.17,3.49-2.16v-.12c0-.48-.13-1.34-1.32-1.34-.54,0-1.1,.17-1.51,.43l-.24-.7c.48-.31,1.18-.52,1.91-.52,1.78,0,2.21,1.21,2.21,2.37v2.17c0,.5,.02,1,.1,1.39h-.96Zm-.16-2.96c-1.15-.02-2.46,.18-2.46,1.31,0,.68,.46,1.01,1,1.01,.75,0,1.24-.48,1.4-.97,.04-.11,.06-.23,.06-.34v-1.01Z" style="fill: #132748;"/>
    <path d="M143.69,137.77c0-.6-.01-1.09-.05-1.57h.92l.05,.94h.04c.32-.55,.86-1.07,1.82-1.07,.79,0,1.39,.48,1.64,1.16h.02c.18-.32,.41-.58,.65-.76,.35-.26,.73-.41,1.28-.41,.77,0,1.91,.5,1.91,2.52v3.42h-1.03v-3.29c0-1.12-.41-1.79-1.26-1.79-.6,0-1.07,.44-1.25,.96-.05,.14-.08,.34-.08,.53v3.59h-1.03v-3.48c0-.92-.41-1.6-1.21-1.6-.66,0-1.14,.53-1.31,1.06-.06,.16-.08,.34-.08,.52v3.5h-1.03v-4.23Z" style="fill: #132748;"/>
    <path d="M158.95,139.05c0,2.15-1.49,3.08-2.89,3.08-1.57,0-2.78-1.15-2.78-2.99,0-1.94,1.27-3.08,2.88-3.08s2.79,1.21,2.79,2.99Zm-4.61,.06c0,1.27,.73,2.23,1.76,2.23s1.76-.95,1.76-2.25c0-.98-.49-2.23-1.74-2.23s-1.79,1.15-1.79,2.25Z" style="fill: #132748;"/>
    <path d="M160.14,140.92c.31,.2,.86,.42,1.39,.42,.77,0,1.13-.38,1.13-.86,0-.5-.3-.78-1.08-1.07-1.04-.37-1.54-.95-1.54-1.64,0-.94,.75-1.7,2-1.7,.59,0,1.1,.17,1.43,.36l-.26,.77c-.23-.14-.65-.34-1.19-.34-.62,0-.97,.36-.97,.79,0,.48,.35,.7,1.1,.98,1.01,.38,1.52,.89,1.52,1.75,0,1.02-.79,1.74-2.17,1.74-.64,0-1.22-.16-1.63-.4l.26-.8Z" style="fill: #132748;"/>
    <path d="M169.98,140.92c.31,.2,.86,.42,1.39,.42,.77,0,1.13-.38,1.13-.86,0-.5-.3-.78-1.08-1.07-1.04-.37-1.54-.95-1.54-1.64,0-.94,.75-1.7,2-1.7,.59,0,1.1,.17,1.43,.36l-.26,.77c-.23-.14-.65-.34-1.19-.34-.62,0-.97,.36-.97,.79,0,.48,.35,.7,1.1,.98,1.01,.38,1.52,.89,1.52,1.75,0,1.02-.79,1.74-2.17,1.74-.64,0-1.22-.16-1.63-.4l.26-.8Z" style="fill: #132748;"/>
    <path d="M176.05,134.56c.01,.36-.25,.65-.67,.65-.37,0-.64-.29-.64-.65s.28-.66,.66-.66,.65,.29,.65,.66Zm-1.18,7.44v-5.8h1.06v5.8h-1.06Z" style="fill: #132748;"/>
    <path d="M177.69,137.77c0-.6-.01-1.09-.05-1.57h.94l.06,.96h.02c.29-.55,.96-1.09,1.92-1.09,.8,0,2.05,.48,2.05,2.47v3.47h-1.06v-3.35c0-.94-.35-1.71-1.34-1.71-.7,0-1.24,.49-1.42,1.08-.05,.13-.07,.31-.07,.49v3.49h-1.06v-4.23Z" style="fill: #132748;"/>
    <path d="M188.48,141.78c-.28,.14-.89,.34-1.67,.34-1.75,0-2.89-1.19-2.89-2.96s1.22-3.08,3.12-3.08c.62,0,1.17,.16,1.46,.3l-.24,.82c-.25-.14-.65-.28-1.22-.28-1.33,0-2.05,.98-2.05,2.19,0,1.34,.86,2.17,2.02,2.17,.6,0,1-.16,1.29-.29l.18,.79Z" style="fill: #132748;"/>
    <path d="M189.72,138.01c0-.68-.01-1.27-.05-1.81h.92l.04,1.14h.05c.26-.78,.9-1.27,1.61-1.27,.12,0,.2,.01,.3,.04v1c-.11-.02-.22-.04-.36-.04-.74,0-1.27,.56-1.42,1.36-.02,.14-.05,.31-.05,.49v3.09h-1.04v-3.99Z" style="fill: #132748;"/>
    <path d="M198.78,139.05c0,2.15-1.49,3.08-2.89,3.08-1.57,0-2.78-1.15-2.78-2.99,0-1.94,1.27-3.08,2.88-3.08s2.79,1.21,2.79,2.99Zm-4.61,.06c0,1.27,.73,2.23,1.76,2.23s1.76-.95,1.76-2.25c0-.98-.49-2.23-1.74-2.23s-1.79,1.15-1.79,2.25Z" style="fill: #132748;"/>
    <path d="M200.11,137.77c0-.6-.01-1.09-.05-1.57h.94l.06,.96h.02c.29-.55,.96-1.09,1.92-1.09,.8,0,2.05,.48,2.05,2.47v3.47h-1.06v-3.35c0-.94-.35-1.71-1.34-1.71-.7,0-1.24,.49-1.42,1.08-.05,.13-.07,.31-.07,.49v3.49h-1.06v-4.23Z" style="fill: #132748;"/>
    <path d="M207.95,134.56c.01,.36-.25,.65-.67,.65-.37,0-.64-.29-.64-.65s.28-.66,.66-.66,.65,.29,.65,.66Zm-1.18,7.44v-5.8h1.06v5.8h-1.06Z" style="fill: #132748;"/>
    <path d="M208.92,141.39l2.63-3.42c.25-.31,.49-.59,.76-.9v-.02h-3.14v-.85h4.43v.66s-2.6,3.37-2.6,3.37c-.24,.32-.48,.61-.74,.91v.02h3.39v.84h-4.71v-.61Z" style="fill: #132748;"/>
    <path d="M217.93,142l-.08-.73h-.04c-.32,.46-.95,.86-1.77,.86-1.18,0-1.78-.83-1.78-1.67,0-1.4,1.25-2.17,3.49-2.16v-.12c0-.48-.13-1.34-1.32-1.34-.54,0-1.1,.17-1.51,.43l-.24-.7c.48-.31,1.18-.52,1.91-.52,1.77,0,2.21,1.21,2.21,2.37v2.17c0,.5,.02,1,.1,1.39h-.96Zm-.16-2.96c-1.15-.02-2.46,.18-2.46,1.31,0,.68,.46,1.01,1,1.01,.76,0,1.24-.48,1.4-.97,.04-.11,.06-.23,.06-.34v-1.01Z" style="fill: #132748;"/>
    <path d="M220.5,138.01c0-.68-.01-1.27-.05-1.81h.92l.04,1.14h.05c.26-.78,.9-1.27,1.61-1.27,.12,0,.2,.01,.3,.04v1c-.11-.02-.22-.04-.36-.04-.74,0-1.27,.56-1.42,1.36-.02,.14-.05,.31-.05,.49v3.09h-1.04v-3.99Z" style="fill: #132748;"/>
    <path d="M226.83,140.92c.31,.2,.86,.42,1.39,.42,.77,0,1.13-.38,1.13-.86,0-.5-.3-.78-1.08-1.07-1.04-.37-1.54-.95-1.54-1.64,0-.94,.76-1.7,2-1.7,.59,0,1.1,.17,1.43,.36l-.26,.77c-.23-.14-.65-.34-1.19-.34-.62,0-.97,.36-.97,.79,0,.48,.35,.7,1.1,.98,1.01,.38,1.52,.89,1.52,1.75,0,1.02-.79,1.74-2.17,1.74-.63,0-1.22-.16-1.63-.4l.26-.8Z" style="fill: #132748;"/>
    <path d="M236.58,140.42c0,.6,.01,1.13,.05,1.58h-.94l-.06-.95h-.02c-.28,.47-.89,1.08-1.92,1.08-.91,0-2-.5-2-2.54v-3.39h1.06v3.21c0,1.1,.34,1.85,1.29,1.85,.71,0,1.2-.49,1.39-.96,.06-.16,.1-.35,.1-.54v-3.56h1.06v4.22Z" style="fill: #132748;"/>
    <path d="M245.01,141.78c-.28,.14-.89,.34-1.67,.34-1.75,0-2.89-1.19-2.89-2.96s1.22-3.08,3.12-3.08c.62,0,1.17,.16,1.46,.3l-.24,.82c-.25-.14-.65-.28-1.22-.28-1.33,0-2.05,.98-2.05,2.19,0,1.34,.86,2.17,2.02,2.17,.6,0,1-.16,1.29-.29l.18,.79Z" style="fill: #132748;"/>
    <path d="M251.43,139.05c0,2.15-1.49,3.08-2.89,3.08-1.57,0-2.78-1.15-2.78-2.99,0-1.94,1.27-3.08,2.88-3.08s2.79,1.21,2.79,2.99Zm-4.61,.06c0,1.27,.73,2.23,1.76,2.23s1.76-.95,1.76-2.25c0-.98-.49-2.23-1.74-2.23s-1.79,1.15-1.79,2.25Z" style="fill: #132748;"/>
    <path d="M252.77,138.01c0-.68-.01-1.27-.05-1.81h.92l.04,1.14h.05c.26-.78,.9-1.27,1.61-1.27,.12,0,.2,.01,.3,.04v1c-.11-.02-.22-.04-.36-.04-.74,0-1.27,.56-1.42,1.36-.02,.14-.05,.31-.05,.49v3.09h-1.04v-3.99Z" style="fill: #132748;"/>
    <path d="M256.74,138.01c0-.68-.01-1.27-.05-1.81h.92l.04,1.14h.05c.26-.78,.9-1.27,1.61-1.27,.12,0,.2,.01,.3,.04v1c-.11-.02-.22-.04-.36-.04-.74,0-1.27,.56-1.42,1.36-.02,.14-.05,.31-.05,.49v3.09h-1.04v-3.99Z" style="fill: #132748;"/>
    <path d="M261.13,139.29c.02,1.43,.94,2.01,1.99,2.01,.75,0,1.21-.13,1.61-.3l.18,.76c-.37,.17-1.01,.36-1.93,.36-1.79,0-2.85-1.18-2.85-2.93s1.03-3.13,2.72-3.13c1.9,0,2.4,1.67,2.4,2.73,0,.22-.02,.38-.04,.49h-4.08Zm3.09-.76c.01-.67-.28-1.71-1.46-1.71-1.07,0-1.54,.98-1.62,1.71h3.08Z" style="fill: #132748;"/>
    <path d="M271.81,139.05c0,2.15-1.49,3.08-2.89,3.08-1.57,0-2.78-1.15-2.78-2.99,0-1.94,1.27-3.08,2.88-3.08s2.79,1.21,2.79,2.99Zm-4.61,.06c0,1.27,.73,2.23,1.76,2.23s1.76-.95,1.76-2.25c0-.98-.49-2.23-1.74-2.23s-1.79,1.15-1.79,2.25Z" style="fill: #132748;"/>
    <path d="M126,153.69c.02,1.43,.94,2.01,1.99,2.01,.76,0,1.21-.13,1.61-.3l.18,.76c-.37,.17-1.01,.36-1.93,.36-1.79,0-2.85-1.18-2.85-2.93s1.03-3.13,2.72-3.13c1.89,0,2.4,1.67,2.4,2.73,0,.22-.02,.38-.04,.49h-4.08Zm3.09-.76c.01-.67-.28-1.71-1.46-1.71-1.07,0-1.54,.98-1.62,1.71h3.08Z" style="fill: #132748;"/>
    <path d="M131.42,147.88h1.06v8.52h-1.06v-8.52Z" style="fill: #132748;"/>
    <path d="M134.84,153.69c.02,1.43,.94,2.01,1.99,2.01,.76,0,1.21-.13,1.61-.3l.18,.76c-.37,.17-1.01,.36-1.93,.36-1.79,0-2.85-1.18-2.85-2.93s1.03-3.13,2.72-3.13c1.89,0,2.4,1.67,2.4,2.73,0,.22-.02,.38-.04,.49h-4.08Zm3.09-.76c.01-.67-.28-1.71-1.46-1.71-1.07,0-1.54,.98-1.62,1.71h3.08Z" style="fill: #132748;"/>
    <path d="M144.4,156.18c-.28,.14-.89,.34-1.67,.34-1.75,0-2.89-1.19-2.89-2.96s1.22-3.08,3.12-3.08c.62,0,1.17,.16,1.46,.3l-.24,.82c-.25-.14-.65-.28-1.22-.28-1.33,0-2.05,.98-2.05,2.19,0,1.34,.86,2.17,2.02,2.17,.6,0,1-.16,1.29-.29l.18,.79Z" style="fill: #132748;"/>
    <path d="M147.07,148.93v1.67h1.51v.8h-1.51v3.13c0,.72,.2,1.13,.79,1.13,.28,0,.48-.04,.61-.07l.05,.79c-.2,.08-.53,.14-.94,.14-.49,0-.89-.16-1.14-.44-.3-.31-.41-.83-.41-1.51v-3.17h-.9v-.8h.9v-1.39l1.03-.28Z" style="fill: #132748;"/>
    <path d="M149.77,152.41c0-.68-.01-1.27-.05-1.81h.92l.04,1.14h.05c.26-.78,.9-1.27,1.61-1.27,.12,0,.2,.01,.3,.04v1c-.11-.02-.22-.04-.36-.04-.74,0-1.27,.56-1.42,1.36-.02,.14-.05,.31-.05,.49v3.09h-1.04v-3.99Z" style="fill: #132748;"/>
    <path d="M158.83,153.45c0,2.15-1.49,3.08-2.89,3.08-1.57,0-2.78-1.15-2.78-2.99,0-1.94,1.27-3.08,2.88-3.08s2.79,1.21,2.79,2.99Zm-4.61,.06c0,1.27,.73,2.23,1.76,2.23s1.76-.95,1.76-2.25c0-.98-.49-2.23-1.74-2.23s-1.79,1.15-1.79,2.25Zm3.35-5.42l-1.46,1.72h-.76l1.06-1.72h1.16Z" style="fill: #132748;"/>
    <path d="M160.16,152.17c0-.6-.01-1.09-.05-1.57h.94l.06,.96h.02c.29-.55,.96-1.09,1.92-1.09,.8,0,2.05,.48,2.05,2.47v3.47h-1.06v-3.35c0-.94-.35-1.71-1.34-1.71-.7,0-1.24,.49-1.42,1.08-.05,.13-.07,.31-.07,.49v3.49h-1.06v-4.23Z" style="fill: #132748;"/>
    <path d="M168,148.96c.01,.36-.25,.65-.67,.65-.37,0-.64-.29-.64-.65s.28-.66,.66-.66,.65,.29,.65,.66Zm-1.17,7.44v-5.8h1.06v5.8h-1.06Z" style="fill: #132748;"/>
    <path d="M173.77,156.18c-.28,.14-.89,.34-1.67,.34-1.75,0-2.89-1.19-2.89-2.96s1.22-3.08,3.12-3.08c.62,0,1.17,.16,1.46,.3l-.24,.82c-.25-.14-.65-.28-1.22-.28-1.33,0-2.05,.98-2.05,2.19,0,1.34,.86,2.17,2.02,2.17,.6,0,1-.16,1.29-.29l.18,.79Z" style="fill: #132748;"/>
    <path d="M180.19,153.45c0,2.15-1.49,3.08-2.89,3.08-1.57,0-2.78-1.15-2.78-2.99,0-1.94,1.27-3.08,2.88-3.08s2.79,1.21,2.79,2.99Zm-4.61,.06c0,1.27,.73,2.23,1.76,2.23s1.76-.95,1.76-2.25c0-.98-.49-2.23-1.74-2.23s-1.79,1.15-1.79,2.25Z" style="fill: #132748;"/>
    <path d="M188.2,156.18c-.28,.14-.89,.34-1.67,.34-1.75,0-2.89-1.19-2.89-2.96s1.22-3.08,3.12-3.08c.62,0,1.18,.16,1.46,.3l-.24,.82c-.25-.14-.65-.28-1.22-.28-1.33,0-2.05,.98-2.05,2.19,0,1.34,.86,2.17,2.01,2.17,.6,0,1-.16,1.3-.29l.18,.79Z" style="fill: #132748;"/>
    <path d="M194.62,153.45c0,2.15-1.49,3.08-2.89,3.08-1.57,0-2.78-1.15-2.78-2.99,0-1.94,1.27-3.08,2.88-3.08s2.79,1.21,2.79,2.99Zm-4.61,.06c0,1.27,.73,2.23,1.76,2.23s1.76-.95,1.76-2.25c0-.98-.49-2.23-1.74-2.23s-1.79,1.15-1.79,2.25Z" style="fill: #132748;"/>
    <path d="M195.96,152.17c0-.6-.01-1.09-.05-1.57h.94l.06,.96h.02c.29-.55,.96-1.09,1.92-1.09,.8,0,2.05,.48,2.05,2.47v3.47h-1.06v-3.35c0-.94-.35-1.71-1.34-1.71-.7,0-1.24,.49-1.42,1.08-.05,.13-.07,.31-.07,.49v3.49h-1.06v-4.23Z" style="fill: #132748;"/>
    <path d="M205.02,155.32c.31,.2,.86,.42,1.39,.42,.77,0,1.13-.38,1.13-.86,0-.5-.3-.78-1.08-1.07-1.04-.37-1.54-.95-1.54-1.64,0-.94,.76-1.7,2-1.7,.59,0,1.1,.17,1.43,.36l-.26,.77c-.23-.14-.65-.34-1.19-.34-.62,0-.97,.36-.97,.79,0,.48,.35,.7,1.1,.98,1.01,.38,1.52,.89,1.52,1.75,0,1.02-.79,1.74-2.17,1.74-.63,0-1.22-.16-1.63-.4l.26-.8Z" style="fill: #132748;"/>
    <path d="M214.77,154.82c0,.6,.01,1.13,.05,1.58h-.94l-.06-.95h-.02c-.28,.47-.89,1.08-1.92,1.08-.91,0-2-.5-2-2.54v-3.39h1.06v3.21c0,1.1,.34,1.85,1.29,1.85,.71,0,1.2-.49,1.39-.96,.06-.16,.1-.35,.1-.54v-3.56h1.06v4.22Z" style="fill: #132748;"/>
    <path d="M220.34,148.93v1.67h1.51v.8h-1.51v3.13c0,.72,.2,1.13,.79,1.13,.28,0,.48-.04,.61-.07l.05,.79c-.2,.08-.53,.14-.94,.14-.49,0-.89-.16-1.14-.44-.3-.31-.41-.83-.41-1.51v-3.17h-.9v-.8h.9v-1.39l1.03-.28Z" style="fill: #132748;"/>
    <path d="M226.25,156.4l-.08-.73h-.04c-.32,.46-.95,.86-1.78,.86-1.17,0-1.77-.83-1.77-1.67,0-1.4,1.25-2.17,3.49-2.16v-.12c0-.48-.13-1.34-1.32-1.34-.54,0-1.1,.17-1.51,.43l-.24-.7c.48-.31,1.18-.52,1.91-.52,1.78,0,2.21,1.21,2.21,2.37v2.17c0,.5,.02,1,.1,1.39h-.96Zm-.16-2.96c-1.15-.02-2.46,.18-2.46,1.31,0,.68,.46,1.01,1,1.01,.75,0,1.24-.48,1.4-.97,.04-.11,.06-.23,.06-.34v-1.01Z" style="fill: #132748;"/>
    <path d="M228.82,152.41c0-.68-.01-1.27-.05-1.81h.92l.04,1.14h.05c.26-.78,.9-1.27,1.61-1.27,.12,0,.2,.01,.3,.04v1c-.11-.02-.22-.04-.36-.04-.74,0-1.27,.56-1.42,1.36-.02,.14-.05,.31-.05,.49v3.09h-1.04v-3.99Z" style="fill: #132748;"/>
    <path d="M231.33,158.08c.48-.04,.9-.17,1.15-.44,.29-.34,.4-.79,.4-2.18v-4.86h1.06v5.27c0,1.13-.18,1.86-.7,2.39-.47,.47-1.24,.66-1.8,.66l-.11-.83Zm2.72-9.12c.01,.35-.24,.65-.66,.65-.4,0-.65-.3-.65-.65,0-.37,.28-.66,.67-.66s.64,.29,.64,.66Z" style="fill: #132748;"/>
    <path d="M236.25,153.69c.02,1.43,.94,2.01,1.99,2.01,.75,0,1.21-.13,1.61-.3l.18,.76c-.37,.17-1.01,.36-1.93,.36-1.79,0-2.85-1.18-2.85-2.93s1.03-3.13,2.72-3.13c1.9,0,2.4,1.67,2.4,2.73,0,.22-.02,.38-.04,.49h-4.08Zm3.09-.76c.01-.67-.28-1.71-1.46-1.71-1.07,0-1.54,.98-1.62,1.71h3.08Z" style="fill: #132748;"/>
    <path d="M242.95,148.93v1.67h1.51v.8h-1.51v3.13c0,.72,.2,1.13,.79,1.13,.28,0,.48-.04,.61-.07l.05,.79c-.2,.08-.53,.14-.94,.14-.49,0-.89-.16-1.14-.44-.3-.31-.41-.83-.41-1.51v-3.17h-.9v-.8h.9v-1.39l1.03-.28Z" style="fill: #132748;"/>
    <path d="M248.86,156.4l-.08-.73h-.04c-.32,.46-.95,.86-1.77,.86-1.18,0-1.78-.83-1.78-1.67,0-1.4,1.25-2.17,3.49-2.16v-.12c0-.48-.13-1.34-1.32-1.34-.54,0-1.1,.17-1.51,.43l-.24-.7c.48-.31,1.18-.52,1.91-.52,1.77,0,2.21,1.21,2.21,2.37v2.17c0,.5,.02,1,.1,1.39h-.96Zm-.16-2.96c-1.15-.02-2.46,.18-2.46,1.31,0,.68,.46,1.01,1,1.01,.76,0,1.24-.48,1.4-.97,.04-.11,.06-.23,.06-.34v-1.01Z" style="fill: #132748;"/>
  </g>
  <g>
    <path d="M100.97,45.38c-.58,.29-1.73,.58-3.21,.58-3.42,0-6-2.16-6-6.14s2.57-6.37,6.34-6.37c1.51,0,2.47,.32,2.88,.54l-.38,1.28c-.59-.29-1.44-.5-2.45-.5-2.84,0-4.74,1.82-4.74,5.01,0,2.97,1.71,4.88,4.66,4.88,.95,0,1.93-.2,2.56-.5l.32,1.24Z" style="fill: #132748;"/>
    <path d="M110.57,41.35c0,3.22-2.23,4.63-4.34,4.63-2.36,0-4.18-1.73-4.18-4.48,0-2.92,1.91-4.63,4.32-4.63s4.2,1.82,4.2,4.48Zm-6.91,.09c0,1.91,1.1,3.35,2.65,3.35s2.65-1.42,2.65-3.39c0-1.48-.74-3.35-2.61-3.35s-2.68,1.73-2.68,3.38Z" style="fill: #132748;"/>
    <path d="M112.56,39.42c0-.9-.02-1.64-.07-2.36h1.39l.07,1.4h.05c.49-.83,1.3-1.6,2.74-1.6,1.19,0,2.09,.72,2.47,1.75h.04c.27-.49,.61-.86,.97-1.13,.52-.4,1.1-.61,1.93-.61,1.15,0,2.86,.76,2.86,3.78v5.13h-1.55v-4.93c0-1.67-.61-2.68-1.89-2.68-.9,0-1.6,.67-1.87,1.44-.07,.22-.13,.5-.13,.79v5.38h-1.55v-5.22c0-1.39-.61-2.39-1.82-2.39-.99,0-1.71,.79-1.96,1.58-.09,.23-.13,.5-.13,.77v5.26h-1.55v-6.36Z" style="fill: #132748;"/>
    <path d="M127.57,39.91c0-1.12-.04-2.02-.07-2.84h1.42l.07,1.49h.04c.65-1.06,1.67-1.69,3.1-1.69,2.11,0,3.69,1.78,3.69,4.43,0,3.13-1.91,4.68-3.96,4.68-1.15,0-2.16-.5-2.68-1.37h-.04v4.74h-1.57v-9.43Zm1.57,2.32c0,.23,.04,.45,.07,.65,.29,1.1,1.24,1.85,2.38,1.85,1.67,0,2.65-1.37,2.65-3.37,0-1.75-.92-3.24-2.59-3.24-1.08,0-2.09,.77-2.39,1.96-.05,.2-.11,.43-.11,.65v1.49Z" style="fill: #132748;"/>
    <path d="M137.82,32.99h1.58v12.78h-1.58v-12.78Z" style="fill: #132748;"/>
    <path d="M142.95,41.71c.04,2.14,1.4,3.02,2.99,3.02,1.13,0,1.82-.2,2.41-.45l.27,1.13c-.56,.25-1.51,.54-2.9,.54-2.68,0-4.29-1.76-4.29-4.39s1.55-4.7,4.09-4.7c2.85,0,3.6,2.5,3.6,4.1,0,.32-.04,.58-.05,.74h-6.12Zm4.65-1.13c.02-1.01-.42-2.57-2.2-2.57-1.6,0-2.3,1.48-2.43,2.57h4.63Z" style="fill: #132748;"/>
    <path d="M152.99,34.56v2.5h2.27v1.21h-2.27v4.7c0,1.08,.31,1.69,1.19,1.69,.41,0,.72-.05,.92-.11l.07,1.19c-.31,.13-.79,.22-1.4,.22-.74,0-1.33-.23-1.71-.67-.45-.47-.61-1.24-.61-2.27v-4.75h-1.35v-1.21h1.35v-2.09l1.55-.41Z" style="fill: #132748;"/>
    <path d="M157.81,41.71c.04,2.14,1.4,3.02,2.99,3.02,1.13,0,1.82-.2,2.41-.45l.27,1.13c-.56,.25-1.51,.54-2.9,.54-2.68,0-4.29-1.76-4.29-4.39s1.55-4.7,4.09-4.7c2.84,0,3.6,2.5,3.6,4.1,0,.32-.04,.58-.05,.74h-6.12Zm4.65-1.13c.02-1.01-.41-2.57-2.2-2.57-1.6,0-2.3,1.48-2.43,2.57h4.63Z" style="fill: #132748;"/>
    <path d="M169.77,32.99h1.58v12.78h-1.58v-12.78Z" style="fill: #132748;"/>
    <path d="M178.84,45.78l-.13-1.1h-.05c-.49,.68-1.42,1.3-2.67,1.3-1.76,0-2.66-1.24-2.66-2.5,0-2.11,1.87-3.26,5.24-3.24v-.18c0-.72-.2-2.02-1.98-2.02-.81,0-1.66,.25-2.27,.65l-.36-1.04c.72-.47,1.76-.77,2.86-.77,2.67,0,3.31,1.82,3.31,3.56v3.26c0,.76,.04,1.49,.14,2.09h-1.44Zm-.23-4.45c-1.73-.04-3.69,.27-3.69,1.96,0,1.03,.68,1.51,1.49,1.51,1.13,0,1.86-.72,2.11-1.46,.05-.16,.09-.34,.09-.5v-1.51Z" style="fill: #132748;"/>
    <path d="M187.12,37.06l1.71,4.9c.29,.79,.52,1.51,.7,2.23h.05c.2-.72,.45-1.44,.74-2.23l1.69-4.9h1.66l-3.42,8.71h-1.51l-3.31-8.71h1.69Z" style="fill: #132748;"/>
    <path d="M195.87,41.71c.04,2.14,1.4,3.02,2.99,3.02,1.13,0,1.82-.2,2.41-.45l.27,1.13c-.56,.25-1.51,.54-2.9,.54-2.68,0-4.29-1.76-4.29-4.39s1.55-4.7,4.09-4.7c2.84,0,3.6,2.5,3.6,4.1,0,.32-.04,.58-.05,.74h-6.12Zm4.65-1.13c.02-1.01-.41-2.57-2.2-2.57-1.6,0-2.3,1.48-2.43,2.57h4.63Z" style="fill: #132748;"/>
    <path d="M204,39.78c0-1.03-.02-1.91-.07-2.72h1.39l.05,1.71h.07c.4-1.17,1.35-1.91,2.41-1.91,.18,0,.31,.02,.45,.05v1.49c-.16-.04-.32-.05-.54-.05-1.12,0-1.91,.85-2.12,2.03-.04,.22-.07,.47-.07,.74v4.65h-1.57v-6Z" style="fill: #132748;"/>
    <path d="M211.72,34.61c.02,.54-.38,.97-1.01,.97-.56,0-.95-.43-.95-.97s.41-.99,.99-.99,.97,.43,.97,.99Zm-1.77,11.16v-8.71h1.58v8.71h-1.58Z" style="fill: #132748;"/>
    <path d="M214.33,45.78v-7.51h-1.22v-1.21h1.22v-.47c0-2.3,1.35-3.8,3.8-3.8,.81,0,1.76,.25,2.21,.58l-.45,1.21c-.38-.27-1.06-.5-1.84-.5-1.67,0-2.16,1.17-2.16,2.56v.43h5.06v8.71h-1.57v-7.51h-3.49v7.51h-1.57Z" style="fill: #132748;"/>
    <path d="M229.8,45.45c-.41,.22-1.33,.5-2.5,.5-2.63,0-4.34-1.78-4.34-4.45s1.84-4.63,4.68-4.63c.94,0,1.76,.23,2.2,.45l-.36,1.22c-.38-.22-.97-.41-1.84-.41-2,0-3.08,1.48-3.08,3.29,0,2.02,1.3,3.26,3.02,3.26,.9,0,1.5-.23,1.95-.43l.27,1.19Z" style="fill: #132748;"/>
    <path d="M236.47,45.78l-.13-1.1h-.05c-.49,.68-1.42,1.3-2.67,1.3-1.76,0-2.67-1.24-2.67-2.5,0-2.11,1.87-3.26,5.24-3.24v-.18c0-.72-.2-2.02-1.98-2.02-.81,0-1.66,.25-2.27,.65l-.36-1.04c.72-.47,1.76-.77,2.86-.77,2.67,0,3.31,1.82,3.31,3.56v3.26c0,.76,.04,1.49,.14,2.09h-1.44Zm-.23-4.45c-1.73-.04-3.69,.27-3.69,1.96,0,1.03,.68,1.51,1.49,1.51,1.13,0,1.85-.72,2.11-1.46,.05-.16,.09-.34,.09-.5v-1.51Z" style="fill: #132748;"/>
    <path d="M246.54,45.45c-.41,.22-1.33,.5-2.5,.5-2.63,0-4.34-1.78-4.34-4.45s1.84-4.63,4.68-4.63c.94,0,1.76,.23,2.2,.45l-.36,1.22c-.38-.22-.97-.41-1.84-.41-2,0-3.08,1.48-3.08,3.29,0,2.02,1.3,3.26,3.03,3.26,.9,0,1.49-.23,1.95-.43l.27,1.19Z" style="fill: #132748;"/>
    <path d="M250.15,34.61c.02,.54-.38,.97-1.01,.97-.56,0-.95-.43-.95-.97s.41-.99,.99-.99,.97,.43,.97,.99Zm-1.77,11.16v-8.71h1.58v8.71h-1.58Z" style="fill: #132748;"/>
    <path d="M260.49,41.35c0,3.22-2.23,4.63-4.34,4.63-2.36,0-4.18-1.73-4.18-4.48,0-2.92,1.91-4.63,4.32-4.63s4.2,1.82,4.2,4.48Zm-6.91,.09c0,1.91,1.1,3.35,2.65,3.35s2.65-1.42,2.65-3.39c0-1.48-.74-3.35-2.61-3.35s-2.68,1.73-2.68,3.38Zm5.02-8.14l-2.2,2.57h-1.13l1.58-2.57h1.75Z" style="fill: #132748;"/>
    <path d="M262.48,39.42c0-.9-.02-1.64-.07-2.36h1.41l.09,1.44h.04c.43-.83,1.44-1.64,2.88-1.64,1.21,0,3.08,.72,3.08,3.71v5.2h-1.58v-5.02c0-1.4-.52-2.57-2.02-2.57-1.04,0-1.85,.74-2.12,1.62-.07,.2-.11,.47-.11,.74v5.24h-1.58v-6.36Z" style="fill: #132748;"/>
  </g>
  <g>
    <path d="M154.75,500.46c.79-.16,1.93-.25,3.01-.25,1.67,0,2.75,.31,3.51,.99,.61,.54,.95,1.37,.95,2.3,0,1.6-1.01,2.67-2.29,3.1v.05c.94,.32,1.49,1.19,1.78,2.45,.4,1.69,.68,2.86,.94,3.33h-1.62c-.2-.34-.47-1.39-.81-2.9-.36-1.67-1.01-2.3-2.43-2.36h-1.48v5.26h-1.57v-11.97Zm1.57,5.53h1.6c1.67,0,2.74-.92,2.74-2.3,0-1.57-1.13-2.25-2.79-2.27-.76,0-1.3,.07-1.55,.14v4.43Z" style="fill: #e5e7eb;"/>
    <path d="M165.33,508.37c.04,2.14,1.4,3.03,2.99,3.03,1.13,0,1.82-.2,2.41-.45l.27,1.13c-.56,.25-1.51,.54-2.9,.54-2.68,0-4.29-1.76-4.29-4.39s1.55-4.7,4.09-4.7c2.84,0,3.6,2.5,3.6,4.1,0,.32-.04,.58-.05,.74h-6.12Zm4.65-1.13c.02-1.01-.42-2.58-2.2-2.58-1.6,0-2.3,1.48-2.43,2.58h4.63Z" style="fill: #e5e7eb;"/>
    <path d="M180.98,503.72c-.04,.63-.07,1.33-.07,2.39v5.06c0,2-.4,3.22-1.24,3.98-.85,.79-2.07,1.04-3.17,1.04s-2.2-.25-2.9-.72l.4-1.21c.58,.36,1.48,.68,2.56,.68,1.62,0,2.81-.85,2.81-3.04v-.97h-.04c-.49,.81-1.42,1.46-2.77,1.46-2.16,0-3.71-1.84-3.71-4.25,0-2.95,1.93-4.63,3.93-4.63,1.51,0,2.34,.79,2.72,1.51h.04l.07-1.31h1.39Zm-1.64,3.44c0-.27-.02-.5-.09-.72-.29-.92-1.06-1.67-2.21-1.67-1.51,0-2.59,1.28-2.59,3.29,0,1.71,.86,3.13,2.58,3.13,.97,0,1.85-.61,2.2-1.62,.09-.27,.13-.58,.13-.85v-1.57Z" style="fill: #e5e7eb;"/>
    <path d="M183.42,506.44c0-1.03-.02-1.91-.07-2.72h1.39l.05,1.71h.07c.4-1.17,1.35-1.91,2.41-1.91,.18,0,.31,.02,.45,.05v1.49c-.16-.04-.32-.05-.54-.05-1.12,0-1.91,.85-2.12,2.03-.04,.22-.07,.47-.07,.74v4.65h-1.57v-6Z" style="fill: #e5e7eb;"/>
    <path d="M190.01,508.37c.04,2.14,1.4,3.03,2.99,3.03,1.13,0,1.82-.2,2.41-.45l.27,1.13c-.56,.25-1.51,.54-2.9,.54-2.68,0-4.29-1.76-4.29-4.39s1.55-4.7,4.09-4.7c2.84,0,3.6,2.5,3.6,4.1,0,.32-.04,.58-.05,.74h-6.12Zm4.65-1.13c.02-1.01-.42-2.58-2.2-2.58-1.6,0-2.3,1.48-2.43,2.58h4.63Z" style="fill: #e5e7eb;"/>
    <path d="M197.93,510.82c.47,.31,1.3,.63,2.09,.63,1.15,0,1.69-.58,1.69-1.3,0-.76-.45-1.17-1.62-1.6-1.57-.56-2.3-1.42-2.3-2.47,0-1.4,1.13-2.56,3.01-2.56,.88,0,1.66,.25,2.14,.54l-.4,1.15c-.34-.22-.97-.5-1.78-.5-.94,0-1.46,.54-1.46,1.19,0,.72,.52,1.04,1.66,1.48,1.51,.58,2.29,1.33,2.29,2.63,0,1.53-1.19,2.61-3.26,2.61-.95,0-1.84-.23-2.45-.59l.4-1.21Z" style="fill: #e5e7eb;"/>
    <path d="M210.1,512.44l-.13-1.1h-.05c-.49,.68-1.42,1.3-2.67,1.3-1.76,0-2.67-1.24-2.67-2.5,0-2.11,1.87-3.26,5.24-3.24v-.18c0-.72-.2-2.02-1.98-2.02-.81,0-1.66,.25-2.27,.65l-.36-1.04c.72-.47,1.76-.77,2.86-.77,2.67,0,3.31,1.82,3.31,3.56v3.26c0,.76,.04,1.49,.14,2.09h-1.44Zm-.23-4.45c-1.73-.04-3.69,.27-3.69,1.96,0,1.03,.68,1.51,1.49,1.51,1.13,0,1.85-.72,2.11-1.46,.05-.16,.09-.34,.09-.5v-1.51Z" style="fill: #e5e7eb;"/>
    <path d="M213.95,506.44c0-1.03-.02-1.91-.07-2.72h1.39l.05,1.71h.07c.4-1.17,1.35-1.91,2.41-1.91,.18,0,.31,.02,.45,.05v1.49c-.16-.04-.32-.05-.54-.05-1.12,0-1.91,.85-2.12,2.03-.04,.22-.07,.47-.07,.74v4.65h-1.57v-6Z" style="fill: #e5e7eb;"/>
  </g>
</svg>