<?xml version="1.0" encoding="UTF-8"?>
<svg id="Layer_1" data-name="Layer 1" xmlns="http://www.w3.org/2000/svg" viewBox="0 0 373 680">
  <rect x="25.6" y="483.2" width="320.2" height="38.9" style="fill: #132748;"/>
  <g>
    <path d="M158.8,508.3c-.6,.3-1.7,.6-3.2,.6-3.4,0-6-2.2-6-6.1s2.6-6.4,6.3-6.4c1.5,0,2.5,.3,2.9,.5l-.4,1.3c-.6-.3-1.4-.5-2.4-.5-2.9,0-4.7,1.8-4.7,5,0,3,1.7,4.9,4.6,4.9,1,0,1.9-.2,2.6-.5l.3,1.2h0Z" style="fill: #fff;"/>
    <path d="M168.4,504.3c0,3.2-2.2,4.6-4.3,4.6-2.4,0-4.2-1.7-4.2-4.5s1.9-4.6,4.3-4.6,4.2,1.8,4.2,4.5h0Zm-6.9,.1c0,1.9,1.1,3.4,2.6,3.4s2.6-1.4,2.6-3.4c0-1.5-.7-3.3-2.6-3.3s-2.6,1.6-2.6,3.3h0Z" style="fill: #fff;"/>
    <path d="M170.4,502.4c0-.9,0-1.6-.1-2.4h1.4l.1,1.4h0c.4-.8,1.4-1.6,2.9-1.6,1.2,0,3.1,.7,3.1,3.7v5.2h-1.6v-5c0-1.4-.5-2.6-2-2.6-1,0-1.9,.7-2.1,1.6-.1,.2-.1,.5-.1,.7v5.2h-1.6v-6.2h0Z" style="fill: #fff;"/>
    <path d="M182.2,497.5v2.5h2.3v1.2h-2.3v4.7c0,1.1,.3,1.7,1.2,1.7,.4,0,.7,0,.9-.1l.1,1.2c-.3,.1-.8,.2-1.4,.2-.7,0-1.3-.2-1.7-.7s-.6-1.2-.6-2.3v-4.8h-1.4v-1.1h1.4v-2.1l1.5-.4h0Z" style="fill: #fff;"/>
    <path d="M188.1,497.5c0,.5-.4,1-1,1s-1-.5-1-1,.4-1,1-1,1,.5,1,1Zm-1.8,11.2v-8.7h1.6v8.7h-1.6Z" style="fill: #fff;"/>
    <path d="M190.5,502.4c0-.9,0-1.6-.1-2.4h1.4l.1,1.4h0c.4-.8,1.4-1.6,2.9-1.6,1.2,0,3.1,.7,3.1,3.7v5.2h-1.6v-5c0-1.4-.5-2.6-2-2.6-1,0-1.9,.7-2.1,1.6-.1,.2-.1,.5-.1,.7v5.2h-1.6v-6.2h0Z" style="fill: #fff;"/>
    <path d="M207.8,506.3c0,.9,0,1.7,.1,2.4h-1.4l-.1-1.4h0c-.4,.7-1.3,1.6-2.9,1.6-1.4,0-3-.8-3-3.8v-5.1h1.6v4.8c0,1.7,.5,2.8,1.9,2.8,1.1,0,1.8-.7,2.1-1.5,.1-.2,.1-.5,.1-.8v-5.3h1.6v6.3h0Z" style="fill: #fff;"/>
    <path d="M215.2,508.7l-.1-1.1h-.1c-.5,.7-1.4,1.3-2.7,1.3-1.8,0-2.7-1.2-2.7-2.5,0-2.1,1.9-3.3,5.2-3.2v-.2c0-.7-.2-2-2-2-.8,0-1.7,.2-2.3,.6l-.4-1c.7-.5,1.8-.8,2.9-.8,2.7,0,3.3,1.8,3.3,3.6v3.3c0,.7,0,1.5,.1,2.1l-1.2-.1h0Zm-.2-4.4c-1.7,0-3.7,.3-3.7,2,0,1,.7,1.5,1.5,1.5,1.1,0,1.9-.7,2.1-1.5,.1-.2,.1-.4,.1-.5v-1.5h0Z" style="fill: #fff;"/>
    <path d="M219.1,502.7c0-1,0-1.9-.1-2.7h1.4l.1,1.7h.1c.4-1.2,1.4-1.9,2.4-1.9h.4v1.5h-.5c-1.1,0-1.9,.8-2.1,2,0,.2-.1,.5-.1,.7v4.6h-1.6v-5.9h0Z" style="fill: #fff;"/>
  </g>
  <rect x="25.6" y="604.2" width="320.2" height="38.9" style="fill: none; stroke: #e5e7eb;"/>
  <g>
    <path d="M156.5,618.5c.8-.2,1.8-.2,2.9-.2,1.6,0,2.6,.3,3.3,.9,.6,.5,.9,1.3,.9,2.2,0,1.5-1,2.5-2.2,2.9h0c.9,.3,1.4,1.1,1.7,2.3,.4,1.6,.6,2.7,.9,3.1h-1.5c-.2-.3-.4-1.3-.8-2.7-.3-1.6-1-2.2-2.3-2.2h-1.4v5h-1.5v-11.3h0Zm1.5,5.2h1.5c1.6,0,2.6-.9,2.6-2.2,0-1.5-1.1-2.1-2.6-2.1-.7,0-1.2,.1-1.5,.1v4.2h0Z" style="fill: #e5e7eb;"/>
    <path d="M166.5,625.9c0,2,1.3,2.8,2.8,2.8,1.1,0,1.7-.2,2.3-.4l.3,1.1c-.5,.2-1.4,.5-2.7,.5-2.5,0-4-1.7-4-4.2s1.5-4.4,3.9-4.4c2.7,0,3.4,2.3,3.4,3.9,0,.3,0,.5-.1,.7h-5.9Zm4.4-1.1c0-.9-.4-2.4-2.1-2.4-1.5,0-2.2,1.4-2.3,2.4h4.4Z" style="fill: #e5e7eb;"/>
    <path d="M181.3,621.5c0,.6-.1,1.2-.1,2.2v4.8c0,1.9-.4,3-1.2,3.8-.8,.7-2,1-3,1s-2.1-.2-2.7-.7l.4-1.2c.6,.3,1.4,.7,2.4,.7,1.5,0,2.6-.8,2.6-2.9v-.9h0c-.4,.8-1.4,1.4-2.6,1.4-2.1,0-3.5-1.7-3.5-4,0-2.8,1.8-4.4,3.7-4.4,1.4,0,2.2,.7,2.6,1.4h0l.1-1.2h1.3Zm-1.6,3.3c0-.2,0-.5-.1-.7-.3-.9-1-1.6-2.1-1.6-1.4,0-2.4,1.2-2.4,3.1,0,1.6,.8,3,2.4,3,.9,0,1.8-.6,2.1-1.5,.1-.2,.1-.5,.1-.8v-1.5h0Z" style="fill: #e5e7eb;"/>
    <path d="M183.6,624.1c0-1,0-1.8-.1-2.6h1.3l.1,1.6h.1c.4-1.1,1.3-1.8,2.3-1.8h.4v1.4h-.5c-1.1,0-1.8,.8-2,1.9,0,.2-.1,.5-.1,.7v4.4h-1.5v-5.6h0Z" style="fill: #e5e7eb;"/>
    <path d="M189.8,625.9c0,2,1.3,2.8,2.8,2.8,1.1,0,1.7-.2,2.3-.4l.3,1.1c-.5,.2-1.4,.5-2.7,.5-2.5,0-4-1.7-4-4.2s1.5-4.4,3.9-4.4c2.7,0,3.4,2.3,3.4,3.9,0,.3,0,.5-.1,.7h-5.9Zm4.4-1.1c0-.9-.4-2.4-2.1-2.4-1.5,0-2.2,1.4-2.3,2.4h4.4Z" style="fill: #e5e7eb;"/>
    <path d="M197.3,628.2c.4,.3,1.2,.6,2,.6,1.1,0,1.6-.5,1.6-1.2s-.4-1.1-1.5-1.5c-1.5-.5-2.2-1.3-2.2-2.3,0-1.3,1.1-2.4,2.8-2.4,.8,0,1.6,.2,2,.5l-.4,1.1c-.3-.2-.9-.5-1.7-.5-.9,0-1.4,.5-1.4,1.1,0,.7,.5,1,1.6,1.4,1.4,.5,2.1,1.2,2.2,2.5,0,1.5-1.1,2.5-3.1,2.5-.9,0-1.7-.2-2.3-.6l.4-1.2h0Z" style="fill: #e5e7eb;"/>
    <path d="M208.8,629.8l-.1-1h0c-.4,.6-1.3,1.2-2.5,1.2-1.7,0-2.5-1.2-2.5-2.4,0-2,1.8-3.1,4.9-3.1v-.2c0-.7-.2-1.9-1.9-1.9-.8,0-1.6,.2-2.1,.6l-.3-1c.7-.4,1.7-.7,2.7-.7,2.5,0,3.1,1.7,3.1,3.4v3.1c0,.7,0,1.4,.1,2h-1.4Zm-.2-4.3c-1.6,0-3.5,.3-3.5,1.8,0,1,.6,1.4,1.4,1.4,1.1,0,1.8-.7,2-1.4,.1-.2,.1-.3,.1-.5v-1.3Z" style="fill: #e5e7eb;"/>
    <path d="M212.4,624.1c0-1,0-1.8-.1-2.6h1.3l.1,1.6h.1c.4-1.1,1.3-1.8,2.3-1.8h.4v1.4h-.5c-1.1,0-1.8,.8-2,1.9,0,.2-.1,.5-.1,.7v4.4h-1.5v-5.6h0Z" style="fill: #e5e7eb;"/>
  </g>
  <line x1="25.6" y1="563.8" x2="345.8" y2="563.8" style="fill: none; stroke: #eee; stroke-width: .75px;"/>
  <g>
    <path d="M26.6,259v-11.5h1.6l3.7,5.8c.8,1.3,1.5,2.6,2,3.7h0c-.1-1.5-.2-2.9-.2-4.7v-4.8h1.4v11.5h-1.5l-3.6-5.8c-.8-1.3-1.6-2.6-2.1-3.8h0c.1,1.4,.1,2.8,.1,4.7v4.9h-1.4Z" style="fill: #a3a5a8;"/>
    <path d="M45.1,254.8c0,3-2.1,4.4-4.1,4.4-2.2,0-4-1.6-4-4.2,0-2.8,1.8-4.4,4.1-4.4s4,1.7,4,4.2h0Zm-6.5,.1c0,1.8,1,3.2,2.5,3.2s2.5-1.3,2.5-3.2c0-1.4-.7-3.1-2.5-3.1s-2.5,1.6-2.5,3.1h0Z" style="fill: #a3a5a8;"/>
    <path d="M47,253c0-.9,0-1.5-.1-2.2h1.3l.1,1.3h0c.5-.8,1.2-1.5,2.6-1.5,1.1,0,2,.7,2.3,1.6h0c.3-.5,.6-.8,.9-1.1,.5-.4,1-.6,1.8-.6,1.1,0,2.7,.7,2.7,3.6v4.8h-1.5v-4.6c0-1.6-.6-2.5-1.8-2.5-.9,0-1.5,.6-1.8,1.4-.1,.2-.1,.5-.1,.8v5.1h-1.5v-4.9c0-1.3-.6-2.2-1.7-2.2-.9,0-1.6,.7-1.9,1.5-.1,.2-.1,.5-.1,.7v5h-1.2v-6.2h0Z" style="fill: #a3a5a8;"/>
    <path d="M61.1,259c0-.6,.1-1.4,.1-2.1v-9.9h1.5v5.2h0c.5-.9,1.5-1.5,2.8-1.5,2,0,3.5,1.7,3.5,4.2,0,2.9-1.9,4.4-3.7,4.4-1.2,0-2.1-.5-2.8-1.5h0l-.1,1.4c0-.2-1.3-.2-1.3-.2Zm1.6-3.3c0,.2,0,.4,.1,.5,.3,1,1.2,1.8,2.2,1.8,1.6,0,2.5-1.3,2.5-3.2,0-1.6-.8-3.1-2.4-3.1-1,0-2,.7-2.3,1.8,0,.2-.1,.4-.1,.6v1.6h0Z" style="fill: #a3a5a8;"/>
    <path d="M70.9,253.4c0-1,0-1.8-.1-2.6h1.3l.1,1.6h.1c.4-1.1,1.3-1.8,2.3-1.8h.4v1.4h-.5c-1.1,0-1.8,.8-2,1.9,0,.2-.1,.5-.1,.7v4.4h-1.5s0-5.6,0-5.6Z" style="fill: #a3a5a8;"/>
    <path d="M77.1,255.2c0,2,1.3,2.9,2.8,2.9,1.1,0,1.7-.2,2.3-.4l.3,1.1c-.5,.2-1.4,.5-2.7,.5-2.5,0-4-1.7-4-4.1s1.5-4.4,3.9-4.4c2.7,0,3.4,2.4,3.4,3.9,0,.3,0,.5-.1,.7l-5.9-.2h0Zm4.4-1.1c0-.9-.4-2.4-2.1-2.4-1.5,0-2.2,1.4-2.3,2.4h4.4Z" style="fill: #a3a5a8;"/>
  </g>
  <g>
    <path d="M26.8,334.7v-11.5h1.6l3.7,5.8c.8,1.3,1.5,2.5,2,3.7h0c-.1-1.5-.2-2.9-.2-4.7v-4.8h1.4v11.5h-1.5l-3.6-5.8c-.8-1.3-1.6-2.6-2.1-3.8h0c.1,1.5,.1,2.8,.1,4.7v4.9h-1.4Z" style="fill: #a3a5a8;"/>
    <path d="M44.8,332.5c0,.9,0,1.6,.1,2.2h-1.3l-.1-1.3h0c-.4,.7-1.2,1.5-2.7,1.5-1.3,0-2.8-.7-2.8-3.6v-4.8h1.5v4.5c0,1.6,.5,2.6,1.8,2.6,1,0,1.7-.7,2-1.4,.1-.2,.1-.5,.1-.8v-5h1.5l-.1,6.1h0Zm-1.1-9.6l-2.1,2.4h-1.1l1.5-2.4h1.7Z" style="fill: #a3a5a8;"/>
    <path d="M47.2,328.7c0-.9,0-1.5-.1-2.2h1.3l.1,1.3h0c.5-.8,1.2-1.5,2.6-1.5,1.1,0,2,.7,2.3,1.6h0c.3-.5,.6-.8,.9-1.1,.5-.4,1-.6,1.8-.6,1.1,0,2.7,.7,2.7,3.6v4.8h-1.5v-4.6c0-1.6-.6-2.5-1.8-2.5-.9,0-1.5,.6-1.8,1.4-.1,.2-.1,.5-.1,.8v5.1h-1.5v-4.9c0-1.3-.6-2.2-1.7-2.2-.9,0-1.6,.7-1.9,1.5-.1,.2-.1,.5-.1,.7v5h-1.5l.3-6.2h0Z" style="fill: #a3a5a8;"/>
    <path d="M62.2,330.9c0,2,1.3,2.9,2.8,2.9,1.1,0,1.7-.2,2.3-.4l.3,1.1c-.5,.2-1.4,.5-2.7,.5-2.5,0-4-1.7-4-4.1s1.5-4.4,3.9-4.4c2.7,0,3.4,2.4,3.4,3.9,0,.3,0,.5-.1,.7l-5.9-.2h0Zm4.4-1.1c0-.9-.4-2.4-2.1-2.4-1.5,0-2.2,1.4-2.3,2.4h4.4Z" style="fill: #a3a5a8;"/>
    <path d="M69.9,329.1c0-1,0-1.8-.1-2.6h1.3l.1,1.6h.1c.4-1.1,1.3-1.8,2.3-1.8h.4v1.4h-.5c-1.1,0-1.8,.8-2,1.9,0,.2-.1,.5-.1,.7v4.4h-1.5v-5.6h0Z" style="fill: #a3a5a8;"/>
    <path d="M82.8,330.6c0,3-2.1,4.4-4.1,4.4-2.2,0-3.9-1.6-3.9-4.2,0-2.8,1.8-4.4,4.1-4.4s3.9,1.7,3.9,4.2h0Zm-6.6,.1c0,1.8,1,3.2,2.5,3.2s2.5-1.3,2.5-3.2c0-1.4-.7-3.1-2.5-3.1s-2.5,1.5-2.5,3.1h0Z" style="fill: #a3a5a8;"/>
    <path d="M95.4,322.7v10c0,.7,0,1.5,.1,2.1h-1.3l-.1-1.4h0c-.5,.9-1.4,1.6-2.8,1.6-2,0-3.5-1.7-3.5-4.2,0-2.8,1.7-4.4,3.7-4.4,1.3,0,2.1,.6,2.5,1.2h0v-4.9h1.4Zm-1.5,7.2c0-.2,0-.4-.1-.6-.2-.9-1-1.7-2.2-1.7-1.6,0-2.5,1.4-2.5,3.2,0,1.7,.8,3.1,2.4,3.1,1,0,1.9-.7,2.2-1.8,.1-.2,.1-.4,.1-.6v-1.6h.1Z" style="fill: #a3a5a8;"/>
    <path d="M98.7,330.9c0,2,1.3,2.9,2.8,2.9,1.1,0,1.7-.2,2.3-.4l.3,1.1c-.5,.2-1.4,.5-2.7,.5-2.5,0-4-1.7-4-4.1s1.5-4.4,3.9-4.4c2.7,0,3.4,2.4,3.4,3.9,0,.3,0,.5-.1,.7l-5.9-.2h0Zm4.4-1.1c0-.9-.4-2.4-2.1-2.4-1.5,0-2.2,1.4-2.3,2.4h4.4Z" style="fill: #a3a5a8;"/>
    <path d="M111.5,324.5h-3.5v-1.2h8.5v1.2h-3.5v10.2h-1.5v-10.2h0Z" style="fill: #a3a5a8;"/>
    <path d="M121.2,334.7l-.1-1h0c-.4,.6-1.3,1.2-2.5,1.2-1.7,0-2.5-1.2-2.5-2.4,0-2,1.8-3.1,4.9-3.1v-.2c0-.7-.2-1.9-1.9-1.9-.8,0-1.6,.2-2.1,.6l-.3-1c.7-.4,1.7-.7,2.7-.7,2.5,0,3.1,1.7,3.1,3.4v3.1c0,.7,0,1.4,.1,2h-1.4Zm-.2-4.2c-1.6,0-3.5,.3-3.5,1.9,0,1,.7,1.4,1.4,1.4,1.1,0,1.8-.7,2-1.4,.1-.2,.1-.3,.1-.5v-1.4Z" style="fill: #a3a5a8;"/>
    <path d="M124.8,329.1c0-1,0-1.8-.1-2.6h1.3l.1,1.6h.1c.4-1.1,1.3-1.8,2.3-1.8h.4v1.4h-.5c-1.1,0-1.8,.8-2,1.9,0,.2-.1,.5-.1,.7v4.4h-1.5v-5.6h0Z" style="fill: #a3a5a8;"/>
    <path d="M128.4,337.1c.7,0,1.3-.2,1.6-.6,.4-.5,.6-1.1,.6-3.1v-6.9h1.5v7.5c0,1.6-.2,2.6-1,3.4-.7,.7-1.8,.9-2.6,.9l-.1-1.2h0Zm3.8-12.9c0,.5-.4,.9-.9,.9-.6,0-.9-.4-.9-.9s.4-.9,.9-.9,.9,.4,.9,.9h0Z" style="fill: #a3a5a8;"/>
    <path d="M135.4,330.9c0,2,1.3,2.9,2.8,2.9,1.1,0,1.7-.2,2.3-.4l.3,1.1c-.5,.2-1.4,.5-2.7,.5-2.5,0-4-1.7-4-4.1s1.5-4.4,3.9-4.4c2.7,0,3.4,2.4,3.4,3.9,0,.3,0,.5-.1,.7l-5.9-.2h0Zm4.3-1.1c0-.9-.4-2.4-2.1-2.4-1.5,0-2.2,1.4-2.3,2.4h4.4Z" style="fill: #a3a5a8;"/>
    <path d="M144.8,324.2v2.4h2.1v1.1h-2.1v4.4c0,1,.3,1.6,1.1,1.6,.4,0,.7,0,.9-.1l.1,1.1c-.3,.1-.8,.2-1.3,.2-.7,0-1.3-.2-1.6-.6-.4-.5-.6-1.2-.6-2.1v-4.5h-1.3v-1.1h1.3v-2l1.4-.4h0Z" style="fill: #a3a5a8;"/>
    <path d="M153.2,334.7l-.1-1h0c-.4,.6-1.3,1.2-2.5,1.2-1.7,0-2.5-1.2-2.5-2.4,0-2,1.8-3.1,4.9-3.1v-.2c0-.7-.2-1.9-1.9-1.9-.8,0-1.6,.2-2.1,.6l-.3-1c.7-.4,1.7-.7,2.7-.7,2.5,0,3.1,1.7,3.1,3.4v3.1c0,.7,0,1.4,.1,2h-1.4Zm-.2-4.2c-1.6,0-3.5,.3-3.5,1.9,0,1,.6,1.4,1.4,1.4,1.1,0,1.8-.7,2-1.4,.1-.2,.1-.3,.1-.5v-1.4Z" style="fill: #a3a5a8;"/>
  </g>
  <g>
    <path d="M27.5,405.3h6.2v1.2h-4.7v3.8h4.3v1.2h-4.3v5.2h-1.5v-11.4h0Z" style="fill: #a3a5a8;"/>
    <path d="M36.1,412.9c0,2,1.3,2.9,2.8,2.9,1.1,0,1.7-.2,2.3-.4l.3,1.1c-.5,.2-1.4,.5-2.7,.5-2.5,0-4-1.7-4-4.1s1.5-4.4,3.9-4.4c2.7,0,3.4,2.4,3.4,3.9v.7l-6-.2h0Zm4.4-1.1c0-.9-.4-2.4-2.1-2.4-1.5,0-2.2,1.4-2.3,2.4h4.4Z" style="fill: #a3a5a8;"/>
    <path d="M49.6,416.4c-.4,.2-1.2,.5-2.4,.5-2.5,0-4.1-1.7-4.1-4.2s1.7-4.4,4.4-4.4c.9,0,1.7,.2,2.1,.4l-.3,1.1c-.4-.2-.9-.4-1.8-.4-1.9,0-2.9,1.4-2.9,3.1,0,1.9,1.2,3.1,2.9,3.1,.8,0,1.4-.2,1.8-.4l.3,1.2h0Z" style="fill: #a3a5a8;"/>
    <path d="M51.4,404.6h1.5v5.1h0c.2-.4,.6-.8,1.1-1.1,.4-.3,1-.4,1.5-.4,1.1,0,2.9,.7,2.9,3.5v4.9h-1.5v-4.6c0-1.3-.5-2.4-1.9-2.4-1,0-1.7,.7-2,1.5-.1,.2-.1,.4-.1,.7v5h-1.5v-12.2h0Z" style="fill: #a3a5a8;"/>
    <path d="M65.4,416.7l-.1-1h0c-.4,.6-1.3,1.2-2.5,1.2-1.7,0-2.5-1.2-2.5-2.4,0-2,1.8-3.1,4.9-3.1v-.2c0-.7-.2-1.9-1.9-1.9-.8,0-1.6,.2-2.1,.6l-.3-1c.7-.4,1.7-.7,2.7-.7,2.5,0,3.1,1.7,3.1,3.4v3.1c0,.7,0,1.4,.1,2h-1.4Zm-.3-4.2c-1.6,0-3.5,.3-3.5,1.9,0,1,.7,1.4,1.4,1.4,1.1,0,1.8-.7,2-1.4,.1-.2,.1-.3,.1-.5v-1.4Z" style="fill: #a3a5a8;"/>
    <path d="M79.7,404.6v10c0,.7,0,1.5,.1,2.1h-1.3l-.1-1.4h0c-.5,.9-1.4,1.6-2.8,1.6-2,0-3.5-1.7-3.5-4.2,0-2.8,1.7-4.4,3.7-4.4,1.3,0,2.1,.6,2.5,1.2h0v-4.9h1.4Zm-1.5,7.2c0-.2,0-.4-.1-.6-.2-.9-1-1.7-2.2-1.7-1.6,0-2.5,1.4-2.5,3.2,0,1.7,.8,3.1,2.4,3.1,1,0,1.9-.7,2.2-1.8,.1-.2,.1-.4,.1-.6v-1.6h.1Z" style="fill: #a3a5a8;"/>
    <path d="M83,412.9c0,2,1.3,2.9,2.8,2.9,1.1,0,1.7-.2,2.3-.4l.3,1.1c-.5,.2-1.4,.5-2.7,.5-2.5,0-4-1.7-4-4.1s1.5-4.4,3.9-4.4c2.7,0,3.4,2.4,3.4,3.9,0,.3,0,.5-.1,.7l-5.9-.2h0Zm4.4-1.1c0-.9-.4-2.4-2.1-2.4-1.5,0-2.2,1.4-2.3,2.4h4.4Z" style="fill: #a3a5a8;"/>
    <path d="M96.3,416.7l-3.8-11.5h1.6l1.8,5.6c.5,1.5,.9,2.9,1.2,4.3h0c.3-1.3,.8-2.8,1.3-4.3l1.9-5.7h1.6l-4.1,11.5-1.5,.1h0Z" style="fill: #a3a5a8;"/>
    <path d="M103.5,412.9c0,2,1.3,2.9,2.8,2.9,1.1,0,1.7-.2,2.3-.4l.3,1.1c-.5,.2-1.4,.5-2.7,.5-2.5,0-4-1.7-4-4.1s1.5-4.4,3.9-4.4c2.7,0,3.4,2.4,3.4,3.9,0,.3,0,.5-.1,.7l-5.9-.2h0Zm4.3-1.1c0-.9-.4-2.4-2.1-2.4-1.5,0-2.2,1.4-2.3,2.4h4.4Z" style="fill: #a3a5a8;"/>
    <path d="M111.2,410.7c0-.9,0-1.5-.1-2.2h1.3l.1,1.4h0c.4-.8,1.4-1.5,2.7-1.5,1.1,0,2.9,.7,2.9,3.5v4.9h-1.5v-4.8c0-1.3-.5-2.4-1.9-2.4-1,0-1.8,.7-2,1.5-.1,.2-.1,.5-.1,.7v5h-1.5l.1-6.1h0Z" style="fill: #a3a5a8;"/>
    <path d="M126.4,416.4c-.4,.2-1.2,.5-2.4,.5-2.5,0-4.1-1.7-4.1-4.2s1.7-4.4,4.4-4.4c.9,0,1.7,.2,2.1,.4l-.3,1.1c-.4-.2-.9-.4-1.8-.4-1.9,0-2.9,1.4-2.9,3.1,0,1.9,1.2,3.1,2.9,3.1,.8,0,1.4-.2,1.8-.4l.3,1.2h0Z" style="fill: #a3a5a8;"/>
    <path d="M129.9,406.2c0,.5-.4,.9-.9,.9s-.9-.4-.9-.9,.4-.9,.9-.9,.9,.4,.9,.9Zm-1.7,10.5v-8.2h1.5v8.2h-1.5Z" style="fill: #a3a5a8;"/>
    <path d="M132.2,410.7c0-.9,0-1.5-.1-2.2h1.3l.1,1.3h0c.5-.8,1.2-1.5,2.6-1.5,1.1,0,2,.7,2.3,1.6h0c.3-.5,.6-.8,.9-1.1,.5-.4,1-.6,1.8-.6,1.1,0,2.7,.7,2.7,3.6v4.8h-1.5v-4.6c0-1.6-.6-2.5-1.8-2.5-.9,0-1.5,.6-1.8,1.4-.1,.2-.1,.5-.1,.8v5.1h-1.5v-4.9c0-1.3-.6-2.2-1.7-2.2-.9,0-1.6,.7-1.9,1.5-.1,.2-.1,.5-.1,.7v5h-1.5l.3-6.2h0Z" style="fill: #a3a5a8;"/>
    <path d="M148,406.2c0,.5-.4,.9-.9,.9s-.9-.4-.9-.9,.4-.9,.9-.9,.9,.4,.9,.9Zm-1.6,10.5v-8.2h1.5v8.2h-1.5Z" style="fill: #a3a5a8;"/>
    <path d="M151.2,412.9c0,2,1.3,2.9,2.8,2.9,1.1,0,1.7-.2,2.3-.4l.3,1.1c-.5,.2-1.4,.5-2.7,.5-2.5,0-4-1.7-4-4.1s1.5-4.4,3.9-4.4c2.7,0,3.4,2.4,3.4,3.9,0,.3,0,.5-.1,.7l-5.9-.2h0Zm4.4-1.1c0-.9-.4-2.4-2.1-2.4-1.5,0-2.2,1.4-2.3,2.4h4.4Z" style="fill: #a3a5a8;"/>
    <path d="M158.9,410.7c0-.9,0-1.5-.1-2.2h1.3l.1,1.4h0c.4-.8,1.4-1.5,2.7-1.5,1.1,0,2.9,.7,2.9,3.5v4.9h-1.5v-4.8c0-1.3-.5-2.4-1.9-2.4-1,0-1.8,.7-2,1.5-.1,.2-.1,.5-.1,.7v5h-1.5l.1-6.1h0Z" style="fill: #a3a5a8;"/>
    <path d="M170,406.1v2.4h2.1v1.1h-2.1v4.4c0,1,.3,1.6,1.1,1.6,.4,0,.7,0,.9-.1l.1,1.1c-.3,.1-.8,.2-1.3,.2-.7,0-1.3-.2-1.6-.6-.4-.5-.6-1.2-.6-2.1v-4.5h-1.3v-1.1h1.3v-2l1.4-.4h0Z" style="fill: #a3a5a8;"/>
    <path d="M181.2,412.5c0,3-2.1,4.4-4.1,4.4-2.2,0-3.9-1.6-3.9-4.2,0-2.8,1.8-4.4,4.1-4.4s3.9,1.7,3.9,4.2h0Zm-6.5,.1c0,1.8,1,3.2,2.5,3.2s2.5-1.3,2.5-3.2c0-1.4-.7-3.1-2.5-3.1s-2.5,1.6-2.5,3.1h0Z" style="fill: #a3a5a8;"/>
  </g>
  <g>
    <path d="M190.5,255.4l-1.2,3.6h-1.5l3.9-11.5h1.8l3.9,11.5h-1.6l-1.2-3.6h-4.1Zm3.8-1.1l-1.1-3.3c-.2-.8-.4-1.4-.6-2.1h0c-.2,.7-.3,1.4-.6,2.1l-1.1,3.3h3.4Z" style="fill: #a3a5a8;"/>
    <path d="M199,253.5c0-1.1,0-1.9-.1-2.7h1.3l.1,1.4h0c.6-1,1.6-1.6,2.9-1.6,2,0,3.5,1.7,3.5,4.2,0,3-1.8,4.4-3.7,4.4-1.1,0-2-.5-2.5-1.3h0v4.5h-1.5v-8.9h0Zm1.5,2.2c0,.2,0,.4,.1,.6,.3,1,1.2,1.8,2.2,1.8,1.6,0,2.5-1.3,2.5-3.2,0-1.6-.9-3.1-2.4-3.1-1,0-2,.7-2.3,1.8-.1,.2-.1,.4-.1,.6v1.5h0Z" style="fill: #a3a5a8;"/>
    <path d="M209.5,255.2c0,2,1.3,2.9,2.8,2.9,1.1,0,1.7-.2,2.3-.4l.3,1.1c-.5,.2-1.4,.5-2.7,.5-2.5,0-4-1.7-4-4.1s1.5-4.4,3.9-4.4c2.7,0,3.4,2.4,3.4,3.9,0,.3,0,.5-.1,.7l-5.9-.2h0Zm4.4-1.1c0-.9-.4-2.4-2.1-2.4-1.5,0-2.2,1.4-2.3,2.4h4.4Z" style="fill: #a3a5a8;"/>
    <path d="M217.2,247h1.5v12h-1.5v-12h0Z" style="fill: #a3a5a8;"/>
    <path d="M221.2,247h1.5v12h-1.5v-12h0Z" style="fill: #a3a5a8;"/>
    <path d="M226.9,248.5c0,.5-.4,.9-.9,.9s-.9-.4-.9-.9,.4-.9,.9-.9,.9,.4,.9,.9Zm-1.7,10.5v-8.2h1.5v8.2h-1.5Z" style="fill: #a3a5a8;"/>
    <path d="M236.3,247v9.9c0,.7,0,1.5,.1,2.1h-1.4l-.1-1.4h0c-.5,.9-1.4,1.6-2.8,1.6-2,0-3.5-1.7-3.5-4.2,0-2.8,1.7-4.4,3.7-4.4,1.3,0,2.1,.6,2.5,1.2h0v-4.8h1.5Zm-1.5,7.2c0-.2,0-.4-.1-.6-.2-.9-1-1.7-2.2-1.7-1.6,0-2.5,1.4-2.5,3.2,0,1.7,.8,3.1,2.4,3.1,1,0,1.9-.7,2.2-1.8,.1-.2,.1-.4,.1-.6v-1.6h.1Z" style="fill: #a3a5a8;"/>
    <path d="M246.2,254.8c0,3-2.1,4.4-4.1,4.4-2.2,0-3.9-1.6-3.9-4.2,0-2.8,1.8-4.4,4.1-4.4s3.9,1.7,3.9,4.2h0Zm-6.5,.1c0,1.8,1,3.2,2.5,3.2s2.5-1.3,2.5-3.2c0-1.4-.7-3.1-2.5-3.1s-2.5,1.6-2.5,3.1h0Z" style="fill: #a3a5a8;"/>
  </g>
  <g>
    <path d="M233.7,416.5c-.5,.3-1.6,.5-3,.5-3.2,0-5.6-2-5.6-5.8s2.4-6,6-6c1.4,0,2.3,.3,2.7,.5l-.4,1.2c-.6-.3-1.4-.5-2.3-.5-2.7,0-4.5,1.7-4.5,4.7,0,2.8,1.6,4.6,4.4,4.6,.9,0,1.8-.2,2.4-.5l.3,1.3h0Z" style="fill: #a3a5a8;"/>
    <path d="M238.3,416.9l-3.8-11.5h1.6l1.8,5.6c.5,1.5,.9,2.9,1.2,4.3h0c.3-1.3,.8-2.8,1.3-4.3l1.9-5.7h1.6l-4.1,11.5-1.5,.1h0Z" style="fill: #a3a5a8;"/>
    <path d="M248,416.9l-3.8-11.5h1.6l1.8,5.6c.5,1.5,.9,2.9,1.2,4.3h0c.3-1.3,.8-2.8,1.3-4.3l1.9-5.7h1.6l-4.1,11.5-1.5,.1h0Z" style="fill: #a3a5a8;"/>
  </g>
  <path d="M31.7,342.5H321.3c4.9,0,8.9,4,8.9,8.9v21.2c0,4.9-4,8.9-8.9,8.9H31.7c-4.9,0-8.9-4-8.9-8.9v-21.2c.1-4.9,4-8.9,8.9-8.9Z" style="fill: none; stroke: #e5e7eb;"/>
  <path d="M29,267.4H159.7c3.5,0,6.2,2.8,6.2,6.2v26.4c0,3.5-2.8,6.2-6.2,6.2H29c-3.5,0-6.2-2.8-6.2-6.2v-26.4c0-3.4,2.7-6.2,6.2-6.2Z" style="fill: none; stroke: #e5e7eb;"/>
  <path d="M191.8,267.9h132.2c3.5,0,6.2,2.8,6.2,6.2v26.4c0,3.5-2.8,6.2-6.2,6.2H191.8c-3.5,0-6.2-2.8-6.2-6.2v-26.4c0-3.4,2.8-6.2,6.2-6.2Z" style="fill: none; stroke: #e5e7eb;"/>
  <path d="M228.5,422.2h64.6c3.9,0,7.1,3.2,7.1,7.1v22.1c0,3.9-3.2,7.1-7.1,7.1h-64.6c-3.9,0-7.1-3.2-7.1-7.1v-22.1c0-3.9,3.2-7.1,7.1-7.1Z" style="fill: none; stroke: #e5e7eb;"/>
  <path d="M29.9,422.2h122c3.9,0,7.1,3.2,7.1,7.1v22.1c0,3.9-3.2,7.1-7.1,7.1H29.9c-3.9,0-7.1-3.2-7.1-7.1v-22.1c0-3.9,3.1-7.1,7.1-7.1Z" style="fill: none; stroke: #e5e7eb;"/>
  <path d="M200.3,107.1c-4.6,0-8.3,3.8-8.3,8.3s3.8,8.3,8.3,8.3,8.3-3.8,8.3-8.3-3.7-8.3-8.3-8.3Zm-.8,12l-3.1-3,1.3-1.3,1.8,1.7,3.9-4,1.3,1.3-5.2,5.3h0Zm-27.8-4.6h9.2v1.9h-9.2v-1.9Zm14.8-1.8h-14.8v-1.9h14.8v1.9Zm2.8,7.3h-20.3c-.5,0-.9-.4-.9-.9v-12h23.6c2.2-2.3,5.3-3.7,8.6-3.7,1.7,0,3.2,.4,4.6,.9v-6.5c0-2-1.7-3.7-3.7-3.7h-33.2c-2,0-3.7,1.7-3.7,3.7v22.2c0,2,1.7,3.7,3.7,3.7h23.6c-.9-1-1.8-2.3-2.3-3.7h0Zm-21.3-21.2c0-.5,.4-.9,.9-.9h31.4c.5,0,.9,.4,.9,.9v2.7h-33.2v-2.7h0Z" style="fill: #132748;"/>
  <path d="M350.6,424.2h-40.4c-2.3,0-4,1.9-4,4v24.2c0,2.3,1.9,4,4,4h40.4c2.3,0,4-1.9,4-4v-24.3c0-2.2-1.7-3.9-4-3.9h0Zm0,27.3c0,.5-.4,1-1,1h-38.5c-.5,0-1-.4-1-1v-13.1h40.4l.1,13.1h0Zm0-19.3h-40.4v-3c0-.5,.4-1,1-1h38.5c.5,0,1,.4,1,1l-.1,3h0Zm-18.2,12.2h-18.3v-2.1h18.3v2.1Zm-6.1,4h-12.2v-2.1h12.2v2.1Z" style="fill: #a3a5a8;"/>
  <g style="opacity: .66;">
    <path d="M358.4,434.2v5.6h-7l-2.6,1.3v-1.3h-2.4v-5.6h12Zm1.2-.9h-14.3v7.5h2.4v2.2l4.1-2.2h7.7l.1-7.5h0Z" style="fill: #555656;"/>
  </g>
  <g>
    <path d="M348.6,437.3c0-.9,.5-1.3,1.2-1.3,.3,0,.5,.1,.8,.3l-.2,.3c-.1-.1-.3-.2-.5-.2-.4,0-.8,.3-.8,1s.2,1,.6,1c.2,0,.4-.1,.5-.2l.2,.3c-.2,.2-.4,.3-.9,.3-.3-.2-.9-.6-.9-1.5h0Z" style="fill: #555656;"/>
    <path d="M351,436h.4l.3,1.3c.1,.3,.1,.5,.2,.9h0c.1-.3,.1-.5,.2-.9l.3-1.3h.4l-.8,2.6h-.5l-.5-2.6h0Z" style="fill: #555656;"/>
    <path d="M353.5,436h.4l.3,1.3c.1,.3,.1,.5,.2,.9h0c.1-.3,.1-.5,.2-.9l.3-1.3h.4l-.8,2.6h-.5l-.5-2.6h0Z" style="fill: #555656;"/>
  </g>
  <g>
    <path d="M341,444.1h.5v-1.4h-.4v-.2c.2,0,.3-.1,.5-.2h.3v1.9h.4v.3h-1.3v-.4h0Z" style="fill: #555656;"/>
    <path d="M343,444.2c.6-.5,1-1,1-1.3,0-.2-.1-.4-.3-.4s-.3,.1-.4,.2l-.2-.2c.2-.2,.4-.3,.6-.3,.4,0,.6,.2,.6,.6s-.3,.8-.8,1.2h.9v.3h-1.5l.1-.1h0Z" style="fill: #555656;"/>
    <path d="M344.9,444.1l.2-.2c.1,.1,.3,.2,.5,.2s.4-.1,.4-.3-.1-.3-.6-.3v-.3c.4,0,.5-.1,.5-.3s-.1-.3-.3-.3-.3,.1-.4,.2l-.2-.2c.2-.1,.4-.2,.6-.2,.4,0,.6,.2,.6,.5,0,.2-.1,.4-.4,.5h0c.2,.1,.4,.2,.4,.5,0,.4-.3,.6-.8,.6,0-.1-.3-.2-.5-.4h0Z" style="fill: #555656;"/>
  </g>
  <g>
    <path d="M226.8,467.2c-.2,.1-.6,.2-1.1,.2-1.1,0-2-.7-2-2s.9-2.1,2.1-2.1c.5,0,.8,.1,1,.2l-.1,.4c-.2-.1-.5-.2-.8-.2-.9,0-1.6,.6-1.6,1.7,0,1,.6,1.6,1.6,1.6,.3,0,.6-.1,.9-.2v.4h0Z" style="fill: #a3a5a8;"/>
    <path d="M230,465.9c0,1.1-.8,1.5-1.4,1.5-.8,0-1.4-.6-1.4-1.5,0-1,.6-1.5,1.4-1.5s1.4,.6,1.4,1.5h0Zm-2.3,0c0,.6,.4,1.1,.9,1.1s.9-.5,.9-1.1c0-.5-.2-1.1-.9-1.1s-.9,.6-.9,1.1h0Zm1.7-2.7l-.7,.9h-.4l.5-.9h.6Z" style="fill: #a3a5a8;"/>
    <path d="M233.2,463.1v4.3h-.5v-.5h0c-.2,.3-.5,.6-1,.6-.7,0-1.2-.6-1.2-1.5,0-1,.6-1.6,1.3-1.6,.4,0,.8,.2,.9,.4h0v-1.7h.5Zm-.5,2.5v-.2c-.1-.3-.4-.6-.8-.6-.6,0-.9,.5-.9,1.1s.3,1.1,.9,1.1c.4,0,.7-.2,.8-.6v-.8h0Z" style="fill: #a3a5a8;"/>
    <path d="M234.7,463.6c0,.2-.1,.3-.3,.3s-.3-.1-.3-.3,.1-.3,.3-.3,.3,.2,.3,.3Zm-.6,3.8v-2.9h.5v2.9h-.5Z" style="fill: #a3a5a8;"/>
    <path d="M238,464.5v2.5c0,.7-.1,1.1-.4,1.3-.3,.3-.7,.4-1.1,.4s-.7-.1-1-.2l.1-.4c.2,.1,.5,.2,.9,.2,.5,0,.9-.3,.9-1v-.3h0c-.2,.3-.5,.5-.9,.5-.7,0-1.2-.6-1.2-1.4,0-1,.6-1.5,1.3-1.5,.5,0,.8,.3,.9,.5h0v-.4l.5-.2h0Zm-.6,1.1v-.2c-.1-.3-.4-.6-.7-.6-.5,0-.9,.4-.9,1.1,0,.6,.3,1,.9,1,.3,0,.6-.2,.7-.5v-.8h0Z" style="fill: #a3a5a8;"/>
    <path d="M241.5,465.9c0,1.1-.8,1.5-1.4,1.5-.8,0-1.4-.6-1.4-1.5,0-1,.6-1.5,1.4-1.5s1.4,.6,1.4,1.5h0Zm-2.3,0c0,.6,.4,1.1,.9,1.1s.9-.5,.9-1.1c0-.5-.2-1.1-.9-1.1s-.9,.6-.9,1.1h0Z" style="fill: #a3a5a8;"/>
    <path d="M245.9,463.1v4.3h-.5v-.5h0c-.2,.3-.5,.6-1,.6-.7,0-1.2-.6-1.2-1.5,0-1,.6-1.6,1.3-1.6,.4,0,.8,.2,.9,.4h0v-1.7h.5Zm-.5,2.5v-.2c-.1-.3-.4-.6-.8-.6-.6,0-.9,.5-.9,1.1s.3,1.1,.9,1.1c.4,0,.7-.2,.8-.6v-.8h0Z" style="fill: #a3a5a8;"/>
    <path d="M247.1,466c0,.7,.5,1,1,1,.4,0,.6-.1,.8-.1l.1,.4c-.2,.1-.5,.2-1,.2-.9,0-1.4-.6-1.4-1.5s.5-1.6,1.4-1.6,1.2,.8,1.2,1.4v.2h-2.1Zm1.5-.4c0-.3-.1-.9-.7-.9-.5,0-.8,.5-.8,.9h1.5Z" style="fill: #a3a5a8;"/>
    <path d="M251,466.8c.1,.1,.5,.2,.9,.2,.7,0,.9-.4,.9-.8,0-.5-.5-.8-1-.8h-.3v-.4h.3c.4,0,.9-.2,.9-.7,0-.3-.2-.6-.7-.6-.3,0-.6,.1-.8,.3l-.1-.4c.2-.1,.6-.3,1-.3,.8,0,1.1,.5,1.1,.9s-.2,.7-.7,.9h0c.5,.1,.9,.5,.9,1,0,.6-.5,1.2-1.4,1.2-.4,0-.8-.1-1-.3v-.2h0Z" style="fill: #a3a5a8;"/>
    <path d="M257.9,463.1v4.3h-.5v-.5h0c-.2,.3-.5,.6-1,.6-.7,0-1.2-.6-1.2-1.5,0-1,.6-1.6,1.3-1.6,.5,0,.8,.2,.9,.4h0v-1.7h.5Zm-.5,2.5v-.2c-.1-.3-.4-.6-.8-.6-.5,0-.9,.5-.9,1.1s.3,1.1,.9,1.1c.4,0,.7-.2,.8-.6v-.8h0Z" style="fill: #a3a5a8;"/>
    <path d="M259.9,463.2l-.7,.9h-.4l.5-.9h.6Zm-1.1,4.2v-2.9h.5v2.9h-.5Z" style="fill: #a3a5a8;"/>
    <path d="M262.7,464.5v2.5c0,.7-.1,1.1-.4,1.3-.3,.3-.7,.4-1.1,.4s-.7-.1-1-.2l.1-.4c.2,.1,.5,.2,.9,.2,.5,0,.9-.3,.9-1v-.3h0c-.2,.3-.5,.5-.9,.5-.7,0-1.2-.6-1.2-1.4,0-1,.6-1.5,1.3-1.5,.5,0,.8,.3,.9,.5h0v-.4l.5-.2h0Zm-.5,1.1v-.2c-.1-.3-.4-.6-.7-.6-.5,0-.9,.4-.9,1.1,0,.6,.3,1,.9,1,.3,0,.6-.2,.7-.5v-.8h0Z" style="fill: #a3a5a8;"/>
    <path d="M264.1,463.6c0,.2-.1,.3-.3,.3s-.3-.1-.3-.3,.1-.3,.3-.3,.3,.2,.3,.3h0Zm-.6,3.8v-2.9h.5v2.9h-.5Z" style="fill: #a3a5a8;"/>
    <path d="M265.6,463.6v.8h.8v.4h-.8v1.6c0,.4,.1,.6,.4,.6h.3v.4c-.1,0-.3,.1-.5,.1s-.4-.1-.6-.2c-.1-.2-.2-.4-.2-.8v-1.6h-.5v-.4h.5v-.7l.6-.2h0Z" style="fill: #a3a5a8;"/>
    <path d="M269.5,465.9c0,1.1-.8,1.5-1.4,1.5-.8,0-1.4-.6-1.4-1.5,0-1,.6-1.5,1.4-1.5s1.4,.6,1.4,1.5h0Zm-2.3,0c0,.6,.4,1.1,.9,1.1s.9-.5,.9-1.1c0-.5-.2-1.1-.9-1.1s-.9,.6-.9,1.1h0Z" style="fill: #a3a5a8;"/>
    <path d="M270.1,466.8c.2,.1,.4,.2,.7,.2,.4,0,.6-.2,.6-.4s-.1-.4-.5-.5c-.5-.2-.8-.5-.8-.8,0-.5,.4-.9,1-.9,.3,0,.5,.1,.7,.2l-.1,.4c-.1-.1-.3-.2-.6-.2s-.5,.2-.5,.4,.2,.4,.5,.5c.5,.2,.8,.4,.8,.9s-.4,.9-1.1,.9c-.3,0-.6-.1-.8-.2l.1-.5h0Z" style="fill: #a3a5a8;"/>
    <path d="M274.1,466c0,.7,.5,1,1,1,.4,0,.6-.1,.8-.1l.1,.4c-.2,.1-.5,.2-1,.2-.9,0-1.4-.6-1.4-1.5s.5-1.6,1.4-1.6c1,0,1.2,.8,1.2,1.4v.2h-2.1Zm1.6-.4c0-.3-.1-.9-.7-.9-.5,0-.8,.5-.8,.9h1.5Z" style="fill: #a3a5a8;"/>
    <path d="M276.8,465.2v-.8h.5v.5h0c.1-.3,.5-.5,1-.5,.4,0,1,.2,1,1.2v1.7h-.5v-1.7c0-.5-.2-.9-.7-.9-.4,0-.6,.2-.7,.5v2h-.5v-2h-.1Z" style="fill: #a3a5a8;"/>
    <path d="M281.4,463.1h.5v4.3h-.5v-4.3Z" style="fill: #a3a5a8;"/>
    <path d="M284.5,467.4v-.4h0c-.2,.2-.5,.4-.9,.4-.6,0-.9-.4-.9-.8,0-.7,.6-1.1,1.7-1.1v-.1c0-.2-.1-.7-.7-.7-.3,0-.5,.1-.8,.2l-.1-.4c.2-.1,.6-.2,1-.2,.9,0,1.1,.6,1.1,1.2v1.8h-.4v.1Zm-.1-1.5c-.6,0-1.2,.1-1.2,.6,0,.4,.2,.5,.5,.5,.4,0,.6-.2,.7-.5v-.6h0Z" style="fill: #a3a5a8;"/>
    <path d="M287,465.4v-1h.5v.5h0c.2-.4,.6-.6,1-.6,.7,0,1.2,.6,1.2,1.5,0,1-.6,1.6-1.3,1.6-.4,0-.7-.2-.9-.5h0v1.6h-.5v-3.1h0Zm.5,.8v.2c.1,.4,.4,.6,.8,.6,.6,0,.9-.5,.9-1.1s-.3-1.1-.9-1.1c-.4,0-.7,.2-.8,.6v.8h0Z" style="fill: #a3a5a8;"/>
    <path d="M292,467.4v-.4h0c-.2,.2-.5,.4-.9,.4-.6,0-.9-.4-.9-.8,0-.7,.6-1.1,1.7-1.1v-.1c0-.2-.1-.7-.7-.7-.3,0-.5,.1-.8,.2l-.1-.4c.2-.1,.6-.2,1-.2,.9,0,1.1,.6,1.1,1.2v1.8h-.4v.1Zm0-1.5c-.6,0-1.2,.1-1.2,.6,0,.4,.2,.5,.5,.5,.4,0,.6-.2,.7-.5v-.6h0Z" style="fill: #a3a5a8;"/>
    <path d="M293.3,465.4v-.9h.5v.6h0c.1-.4,.5-.6,.8-.6h.1v.5h-.2c-.4,0-.6,.3-.7,.7v1.7h-.5v-2h0Z" style="fill: #a3a5a8;"/>
    <path d="M296.1,463.6v.8h.8v.4h-.8v1.6c0,.4,.1,.6,.4,.6h.3v.4c-.1,0-.3,.1-.5,.1s-.4-.1-.6-.2c-.1-.2-.2-.4-.2-.8v-1.6h-.5v-.4h.5v-.7l.6-.2h0Z" style="fill: #a3a5a8;"/>
    <path d="M297.7,466c0,.7,.5,1,1,1,.4,0,.6-.1,.8-.1l.1,.4c-.2,.1-.5,.2-1,.2-.9,0-1.4-.6-1.4-1.5s.5-1.6,1.4-1.6c1,0,1.2,.8,1.2,1.4v.2h-2.1Zm1.5-.4c0-.3-.1-.9-.7-.9-.5,0-.8,.5-.8,.9h1.5Z" style="fill: #a3a5a8;"/>
    <path d="M301.7,465.4v-1h.5v.5h0c.2-.4,.6-.6,1-.6,.7,0,1.2,.6,1.2,1.5,0,1-.6,1.6-1.3,1.6-.4,0-.7-.2-.9-.5h0v1.6h-.5v-3.1h0Zm.5,.8v.2c.1,.4,.4,.6,.8,.6,.6,0,.9-.5,.9-1.1s-.3-1.1-.9-1.1c-.4,0-.7,.2-.8,.6v.8h0Z" style="fill: #a3a5a8;"/>
    <path d="M307.7,465.9c0,1.1-.8,1.5-1.4,1.5-.8,0-1.4-.6-1.4-1.5,0-1,.6-1.5,1.4-1.5s1.4,.6,1.4,1.5h0Zm-2.3,0c0,.6,.4,1.1,.9,1.1s.9-.5,.9-1.1c0-.5-.2-1.1-.9-1.1s-.9,.6-.9,1.1h0Z" style="fill: #a3a5a8;"/>
    <path d="M308.3,466.8c.2,.1,.4,.2,.7,.2,.4,0,.6-.2,.6-.4s-.1-.4-.5-.5c-.5-.2-.8-.5-.8-.8,0-.5,.4-.9,1-.9,.3,0,.5,.1,.7,.2l-.1,.4c-.1-.1-.3-.2-.6-.2s-.5,.2-.5,.4,.2,.4,.5,.5c.5,.2,.8,.4,.8,.9s-.4,.9-1.1,.9c-.3,0-.6-.1-.8-.2l.1-.5h0Z" style="fill: #a3a5a8;"/>
    <path d="M311.4,463.6v.8h.8v.4h-.8v1.6c0,.4,.1,.6,.4,.6h.3v.4c-.1,0-.3,.1-.5,.1s-.4-.1-.6-.2c-.1-.2-.2-.4-.2-.8v-1.6h-.5v-.4h.5v-.7l.6-.2h0Z" style="fill: #a3a5a8;"/>
    <path d="M313,466c0,.7,.5,1,1,1,.4,0,.6-.1,.8-.1l.1,.4c-.2,.1-.5,.2-1,.2-.9,0-1.4-.6-1.4-1.5s.5-1.6,1.4-1.6c1,0,1.2,.8,1.2,1.4v.2h-2.1Zm1.5-.4c0-.3-.1-.9-.7-.9-.5,0-.8,.5-.8,.9h1.5Z" style="fill: #a3a5a8;"/>
    <path d="M315.7,465.4v-.9h.5v.6h0c.1-.4,.5-.6,.8-.6h.1v.5h-.2c-.4,0-.6,.3-.7,.7v1.7h-.5v-2h0Z" style="fill: #a3a5a8;"/>
    <path d="M318.3,463.6c0,.2-.1,.3-.3,.3s-.3-.1-.3-.3,.1-.3,.3-.3,.3,.2,.3,.3h0Zm-.6,3.8v-2.9h.5v2.9h-.5Z" style="fill: #a3a5a8;"/>
    <path d="M321.7,465.9c0,1.1-.8,1.5-1.4,1.5-.8,0-1.4-.6-1.4-1.5,0-1,.6-1.5,1.4-1.5s1.4,.6,1.4,1.5h0Zm-2.3,0c0,.6,.4,1.1,.9,1.1s.9-.5,.9-1.1c0-.5-.2-1.1-.9-1.1s-.9,.6-.9,1.1h0Z" style="fill: #a3a5a8;"/>
    <path d="M322.4,465.4v-.9h.5v.6h0c.1-.4,.5-.6,.8-.6h.1v.5h-.2c-.4,0-.6,.3-.7,.7v1.7h-.5v-2h0Z" style="fill: #a3a5a8;"/>
    <path d="M328.1,463.1v4.3h-.5v-.5h0c-.2,.3-.5,.6-1,.6-.7,0-1.2-.6-1.2-1.5,0-1,.6-1.6,1.3-1.6,.5,0,.8,.2,.9,.4h0v-1.7h.5Zm-.5,2.5v-.2c-.1-.3-.4-.6-.8-.6-.5,0-.9,.5-.9,1.1s.3,1.1,.9,1.1c.4,0,.7-.2,.8-.6v-.8h0Z" style="fill: #a3a5a8;"/>
    <path d="M329.3,466c0,.7,.5,1,1,1,.4,0,.6-.1,.8-.1l.1,.4c-.2,.1-.5,.2-1,.2-.9,0-1.4-.6-1.4-1.5s.5-1.6,1.4-1.6c1,0,1.2,.8,1.2,1.4v.2h-2.1Zm1.5-.4c0-.3-.1-.9-.7-.9-.5,0-.8,.5-.8,.9h1.5Z" style="fill: #a3a5a8;"/>
    <path d="M333.2,466.8c.2,.1,.4,.2,.7,.2,.4,0,.6-.2,.6-.4s-.1-.4-.5-.5c-.5-.2-.8-.5-.8-.8,0-.5,.4-.9,1-.9,.3,0,.5,.1,.7,.2l-.1,.4c-.1-.1-.3-.2-.6-.2s-.5,.2-.5,.4,.2,.4,.5,.5c.5,.2,.8,.4,.8,.9s-.4,.9-1.1,.9c-.3,0-.6-.1-.8-.2l.1-.5h0Z" style="fill: #a3a5a8;"/>
    <path d="M338.1,466.6v.8h-.5v-.5h0c-.1,.2-.4,.5-1,.5-.5,0-1-.2-1-1.3v-1.7h.5v1.6c0,.5,.2,.9,.6,.9s.6-.2,.7-.5v-2.1h.5l.2,2.3h0Z" style="fill: #a3a5a8;"/>
    <path d="M340.9,463.6v.8h.8v.4h-.8v1.6c0,.4,.1,.6,.4,.6h.3v.4c-.1,0-.3,.1-.5,.1s-.4-.1-.6-.2c-.1-.2-.2-.4-.2-.8v-1.6h-.5v-.4h.5v-.7l.6-.2h0Z" style="fill: #a3a5a8;"/>
    <path d="M343.8,467.4v-.4h0c-.2,.2-.5,.4-.9,.4-.6,0-.9-.4-.9-.8,0-.7,.6-1.1,1.7-1.1v-.1c0-.2-.1-.7-.7-.7-.3,0-.5,.1-.8,.2l-.1-.4c.2-.1,.6-.2,1-.2,.9,0,1.1,.6,1.1,1.2v1.8h-.4v.1Zm0-1.5c-.6,0-1.2,.1-1.2,.6,0,.4,.2,.5,.5,.5,.4,0,.6-.2,.7-.5v-.6h0Z" style="fill: #a3a5a8;"/>
    <path d="M345.1,465.4v-.9h.5v.6h0c.1-.4,.5-.6,.8-.6h.1v.5h-.2c-.4,0-.6,.3-.7,.7v1.7h-.5v-2h0Z" style="fill: #a3a5a8;"/>
    <path d="M346.4,468.2c.2,0,.5-.1,.6-.2,.1-.2,.2-.4,.2-1.1v-2.4h.5v2.6c0,.6-.1,.9-.4,1.2-.2,.2-.6,.3-.9,.3v-.4h0Zm1.3-4.6c0,.2-.1,.3-.3,.3s-.3-.1-.3-.3,.1-.3,.3-.3,.3,.2,.3,.3Z" style="fill: #a3a5a8;"/>
    <path d="M348.8,466c0,.7,.5,1,1,1,.4,0,.6-.1,.8-.1l.1,.4c-.2,.1-.5,.2-1,.2-.9,0-1.4-.6-1.4-1.5s.5-1.6,1.4-1.6c1,0,1.2,.8,1.2,1.4v.2h-2.1Zm1.6-.4c0-.3-.1-.9-.7-.9-.5,0-.8,.5-.8,.9h1.5Z" style="fill: #a3a5a8;"/>
    <path d="M352.2,463.6v.8h.8v.4h-.8v1.6c0,.4,.1,.6,.4,.6h.3v.4c-.1,0-.3,.1-.5,.1s-.4-.1-.6-.2c-.1-.2-.2-.4-.2-.8v-1.6h-.5v-.4h.5v-.7l.6-.2h0Z" style="fill: #a3a5a8;"/>
    <path d="M355.1,467.4v-.4h0c-.2,.2-.5,.4-.9,.4-.6,0-.9-.4-.9-.8,0-.7,.6-1.1,1.7-1.1v-.1c0-.2-.1-.7-.7-.7-.3,0-.5,.1-.8,.2l-.1-.4c.2-.1,.6-.2,1-.2,.9,0,1.1,.6,1.1,1.2v1.8h-.4v.1Zm0-1.5c-.6,0-1.2,.1-1.2,.6,0,.4,.2,.5,.5,.5,.4,0,.6-.2,.7-.5v-.6h0Z" style="fill: #a3a5a8;"/>
  </g>
  <g>
    <path d="M36.1,362c0-3.2,1.2-4.9,3.1-4.9s3.1,1.7,3.1,4.9-1.2,5-3.1,5-3.1-1.8-3.1-5Zm4.9,0c0-2.8-.8-3.9-1.9-3.9s-1.9,1.1-1.9,3.9,.8,4,1.9,4,1.9-1.2,1.9-4Z" style="fill: none; stroke: #e5e7eb;"/>
    <path d="M44,362c0-3.2,1.2-4.9,3.1-4.9s3.1,1.7,3.1,4.9-1.2,5-3.1,5-3.1-1.8-3.1-5Zm4.9,0c0-2.8-.8-3.9-1.9-3.9s-1.9,1.1-1.9,3.9,.8,4,1.9,4,1.9-1.2,1.9-4Z" style="fill: none; stroke: #e5e7eb;"/>
    <path d="M51.9,362c0-3.2,1.2-4.9,3.1-4.9s3.1,1.7,3.1,4.9-1.2,5-3.1,5-3.1-1.8-3.1-5Zm4.9,0c0-2.8-.8-3.9-1.9-3.9s-1.9,1.1-1.9,3.9,.8,4,1.9,4,1.9-1.2,1.9-4Z" style="fill: none; stroke: #e5e7eb;"/>
    <path d="M59.8,362c0-3.2,1.2-4.9,3.1-4.9s3.1,1.7,3.1,4.9-1.2,5-3.1,5-3.1-1.8-3.1-5Zm4.9,0c0-2.8-.8-3.9-1.9-3.9s-1.8,1.1-1.8,3.9,.8,4,1.9,4,1.8-1.2,1.8-4Z" style="fill: none; stroke: #e5e7eb;"/>
    <path d="M71.1,362c0-3.2,1.2-4.9,3.1-4.9s3.1,1.7,3.1,4.9-1.2,5-3.1,5-3.1-1.8-3.1-5Zm4.9,0c0-2.8-.8-3.9-1.9-3.9s-1.9,1.1-1.9,3.9,.8,4,1.9,4,1.9-1.2,1.9-4Z" style="fill: none; stroke: #e5e7eb;"/>
    <path d="M79,362c0-3.2,1.2-4.9,3.1-4.9s3.1,1.7,3.1,4.9-1.2,5-3.1,5-3.1-1.8-3.1-5Zm4.9,0c0-2.8-.8-3.9-1.9-3.9s-1.9,1.1-1.9,3.9,.8,4,1.9,4,1.9-1.2,1.9-4Z" style="fill: none; stroke: #e5e7eb;"/>
    <path d="M86.9,362c0-3.2,1.2-4.9,3.1-4.9s3.1,1.7,3.1,4.9-1.2,5-3.1,5-3.1-1.8-3.1-5Zm4.9,0c0-2.8-.8-3.9-1.9-3.9s-1.9,1.1-1.9,3.9,.8,4,1.9,4,1.9-1.2,1.9-4Z" style="fill: none; stroke: #e5e7eb;"/>
    <path d="M94.8,362c0-3.2,1.2-4.9,3.1-4.9s3.1,1.7,3.1,4.9-1.2,5-3.1,5-3.1-1.8-3.1-5Zm4.9,0c0-2.8-.8-3.9-1.9-3.9s-1.8,1.1-1.8,3.9,.8,4,1.9,4,1.8-1.2,1.8-4Z" style="fill: none; stroke: #e5e7eb;"/>
    <path d="M106.1,362c0-3.2,1.2-4.9,3.1-4.9s3.1,1.7,3.1,4.9-1.2,5-3.1,5-3.1-1.8-3.1-5Zm4.9,0c0-2.8-.8-3.9-1.9-3.9s-1.9,1.1-1.9,3.9,.8,4,1.9,4,1.9-1.2,1.9-4Z" style="fill: none; stroke: #e5e7eb;"/>
    <path d="M114,362c0-3.2,1.2-4.9,3.1-4.9s3.1,1.7,3.1,4.9-1.2,5-3.1,5-3.1-1.8-3.1-5Zm4.9,0c0-2.8-.8-3.9-1.9-3.9s-1.9,1.1-1.9,3.9,.8,4,1.9,4,1.9-1.2,1.9-4Z" style="fill: none; stroke: #e5e7eb;"/>
    <path d="M121.9,362c0-3.2,1.2-4.9,3.1-4.9s3.1,1.7,3.1,4.9-1.2,5-3.1,5-3.1-1.8-3.1-5Zm4.9,0c0-2.8-.8-3.9-1.9-3.9s-1.9,1.1-1.9,3.9,.8,4,1.9,4,1.9-1.2,1.9-4Z" style="fill: none; stroke: #e5e7eb;"/>
    <path d="M129.8,362c0-3.2,1.2-4.9,3.1-4.9s3.1,1.7,3.1,4.9-1.2,5-3.1,5-3.1-1.8-3.1-5Zm4.9,0c0-2.8-.8-3.9-1.9-3.9s-1.9,1.1-1.9,3.9,.8,4,1.9,4,1.9-1.2,1.9-4Z" style="fill: none; stroke: #e5e7eb;"/>
    <path d="M141.1,362c0-3.2,1.2-4.9,3.1-4.9s3.1,1.7,3.1,4.9-1.2,5-3.1,5-3.1-1.8-3.1-5Zm4.9,0c0-2.8-.8-3.9-1.9-3.9s-1.9,1.1-1.9,3.9,.8,4,1.9,4,1.9-1.2,1.9-4Z" style="fill: none; stroke: #e5e7eb;"/>
    <path d="M149,362c0-3.2,1.2-4.9,3.1-4.9s3.1,1.7,3.1,4.9-1.2,5-3.1,5-3.1-1.8-3.1-5Zm4.9,0c0-2.8-.8-3.9-1.9-3.9s-1.9,1.1-1.9,3.9,.8,4,1.9,4,1.9-1.2,1.9-4Z" style="fill: none; stroke: #e5e7eb;"/>
    <path d="M156.9,362c0-3.2,1.2-4.9,3.1-4.9s3.1,1.7,3.1,4.9-1.2,5-3.1,5-3.1-1.8-3.1-5Zm4.9,0c0-2.8-.8-3.9-1.9-3.9s-1.9,1.1-1.9,3.9,.8,4,1.9,4,1.9-1.2,1.9-4Z" style="fill: none; stroke: #e5e7eb;"/>
    <path d="M164.8,362c0-3.2,1.2-4.9,3.1-4.9s3.1,1.7,3.1,4.9-1.2,5-3.1,5-3.1-1.8-3.1-5Zm4.9,0c0-2.8-.8-3.9-1.9-3.9s-1.9,1.1-1.9,3.9,.8,4,1.9,4,1.9-1.2,1.9-4Z" style="fill: none; stroke: #e5e7eb;"/>
  </g>
  <g>
    <path d="M36.9,441.4c0-3.2,1.2-4.9,3.1-4.9s3.1,1.7,3.1,4.9-1.2,5-3.1,5-3.1-1.8-3.1-5Zm4.9,0c0-2.8-.8-3.9-1.9-3.9s-1.9,1.1-1.9,3.9,.8,4,1.9,4,1.9-1.2,1.9-4Z" style="fill: none; stroke: #e5e7eb;"/>
    <path d="M45.3,445.2h2.2v-7h-1.7v-.8c.9-.1,1.5-.4,2-.7h.9v8.5h2v1h-5.4v-1h0Z" style="fill: none; stroke: #e5e7eb;"/>
    <path d="M59.6,435.6h.9l-4,13h-.9l4-13Z" style="fill: none; stroke: #e5e7eb;"/>
    <path d="M65.2,445.5c2.9-2.9,4.5-4.6,4.5-6.1,0-1.1-.6-1.9-1.8-1.9-.8,0-1.5,.5-2,1.1l-.7-.7c.8-.9,1.7-1.5,2.9-1.5,1.8,0,2.9,1.1,2.9,2.8,0,1.8-1.7,3.6-3.9,6,.5,0,1.1-.1,1.6-.1h2.8v1.1h-6.2v-.7h-.1Z" style="fill: none; stroke: #e5e7eb;"/>
    <path d="M73.1,441.4c0-3.2,1.2-4.9,3.1-4.9s3.1,1.7,3.1,4.9-1.2,5-3.1,5-3.1-1.8-3.1-5Zm5,0c0-2.8-.8-3.9-1.9-3.9s-1.9,1.1-1.9,3.9,.8,4,1.9,4,1.9-1.2,1.9-4Z" style="fill: none; stroke: #e5e7eb;"/>
    <path d="M80.9,445.5c2.9-2.9,4.5-4.6,4.5-6.1,0-1.1-.6-1.9-1.8-1.9-.8,0-1.5,.5-2,1.1l-.7-.7c.8-.9,1.7-1.5,2.9-1.5,1.8,0,2.9,1.1,2.9,2.8,0,1.8-1.7,3.6-3.9,6,.5,0,1.1-.1,1.6-.1h2.8v1.1h-6.2v-.7h-.1Z" style="fill: none; stroke: #e5e7eb;"/>
    <path d="M88.6,445.1l.6-.8c.6,.6,1.3,1.1,2.4,1.1s2-.7,2-1.8-.8-1.9-3.1-1.9v-1c2,0,2.7-.8,2.7-1.8,0-.9-.6-1.5-1.7-1.5-.8,0-1.5,.4-2,1l-.7-.8c.7-.7,1.6-1.2,2.8-1.2,1.7,0,2.9,.9,2.9,2.4,0,1.1-.7,1.9-1.7,2.3v.1c1.2,.3,2.1,1.1,2.1,2.4,0,1.7-1.4,2.7-3.2,2.7-1.5,.1-2.4-.5-3.1-1.2h0Z" style="fill: none; stroke: #e5e7eb;"/>
  </g>
  <g>
    <path d="M231.8,441.4c0-3.2,1.2-4.9,3.1-4.9s3.1,1.7,3.1,4.9-1.2,5-3.1,5-3.1-1.8-3.1-5Zm5,0c0-2.8-.8-3.9-1.9-3.9s-1.9,1.1-1.9,3.9,.8,4,1.9,4,1.9-1.2,1.9-4Z" style="fill: none; stroke: #e5e7eb;"/>
    <path d="M239.7,441.4c0-3.2,1.2-4.9,3.1-4.9s3.1,1.7,3.1,4.9-1.2,5-3.1,5-3.1-1.8-3.1-5Zm4.9,0c0-2.8-.8-3.9-1.9-3.9s-1.9,1.1-1.9,3.9,.8,4,1.9,4,1.9-1.2,1.9-4Z" style="fill: none; stroke: #e5e7eb;"/>
    <path d="M247.6,441.4c0-3.2,1.2-4.9,3.1-4.9s3.1,1.7,3.1,4.9-1.2,5-3.1,5-3.1-1.8-3.1-5Zm4.9,0c0-2.8-.8-3.9-1.9-3.9s-1.9,1.1-1.9,3.9,.8,4,1.9,4,1.9-1.2,1.9-4Z" style="fill: none; stroke: #e5e7eb;"/>
  </g>
  <g>
    <path d="M101.73,51.32c-.58,.29-1.73,.58-3.21,.58-3.42,0-6-2.16-6-6.14s2.57-6.37,6.34-6.37c1.51,0,2.47,.32,2.88,.54l-.38,1.28c-.59-.29-1.44-.5-2.45-.5-2.84,0-4.74,1.82-4.74,5.01,0,2.97,1.71,4.88,4.66,4.88,.95,0,1.93-.2,2.56-.5l.32,1.24Z" style="fill: #132748;"/>
    <path d="M111.33,47.29c0,3.22-2.23,4.63-4.34,4.63-2.36,0-4.18-1.73-4.18-4.48,0-2.92,1.91-4.63,4.32-4.63s4.2,1.82,4.2,4.48Zm-6.91,.09c0,1.91,1.1,3.35,2.65,3.35s2.65-1.42,2.65-3.39c0-1.48-.74-3.35-2.61-3.35s-2.68,1.73-2.68,3.38Z" style="fill: #132748;"/>
    <path d="M113.32,45.36c0-.9-.02-1.64-.07-2.36h1.39l.07,1.4h.05c.49-.83,1.3-1.6,2.74-1.6,1.19,0,2.09,.72,2.47,1.75h.04c.27-.49,.61-.86,.97-1.13,.52-.4,1.1-.61,1.93-.61,1.15,0,2.86,.76,2.86,3.78v5.13h-1.55v-4.93c0-1.67-.61-2.68-1.89-2.68-.9,0-1.6,.67-1.87,1.44-.07,.22-.13,.5-.13,.79v5.38h-1.55v-5.22c0-1.39-.61-2.39-1.82-2.39-.99,0-1.71,.79-1.96,1.58-.09,.23-.13,.5-.13,.77v5.26h-1.55v-6.36Z" style="fill: #132748;"/>
    <path d="M128.33,45.84c0-1.12-.04-2.02-.07-2.84h1.42l.07,1.49h.04c.65-1.06,1.67-1.69,3.1-1.69,2.11,0,3.69,1.78,3.69,4.43,0,3.13-1.91,4.68-3.96,4.68-1.15,0-2.16-.5-2.68-1.37h-.04v4.74h-1.57v-9.43Zm1.57,2.32c0,.23,.04,.45,.07,.65,.29,1.1,1.24,1.85,2.38,1.85,1.67,0,2.65-1.37,2.65-3.37,0-1.75-.92-3.24-2.59-3.24-1.08,0-2.09,.77-2.4,1.96-.05,.2-.11,.43-.11,.65v1.5Z" style="fill: #132748;"/>
    <path d="M138.58,38.93h1.58v12.78h-1.58v-12.78Z" style="fill: #132748;"/>
    <path d="M143.71,47.65c.04,2.14,1.4,3.02,2.99,3.02,1.13,0,1.82-.2,2.41-.45l.27,1.13c-.56,.25-1.51,.54-2.9,.54-2.68,0-4.29-1.76-4.29-4.39s1.55-4.7,4.09-4.7c2.84,0,3.6,2.5,3.6,4.11,0,.32-.04,.58-.05,.74h-6.12Zm4.65-1.13c.02-1.01-.41-2.57-2.2-2.57-1.6,0-2.3,1.48-2.43,2.57h4.63Z" style="fill: #132748;"/>
    <path d="M153.75,40.5v2.5h2.27v1.21h-2.27v4.7c0,1.08,.31,1.69,1.19,1.69,.41,0,.72-.05,.92-.11l.07,1.19c-.31,.13-.79,.22-1.4,.22-.74,0-1.33-.23-1.71-.67-.45-.47-.61-1.24-.61-2.27v-4.75h-1.35v-1.21h1.35v-2.09l1.55-.41Z" style="fill: #132748;"/>
    <path d="M158.57,47.65c.04,2.14,1.4,3.02,2.99,3.02,1.13,0,1.82-.2,2.41-.45l.27,1.13c-.56,.25-1.51,.54-2.9,.54-2.68,0-4.29-1.76-4.29-4.39s1.55-4.7,4.09-4.7c2.84,0,3.6,2.5,3.6,4.11,0,.32-.04,.58-.05,.74h-6.12Zm4.65-1.13c.02-1.01-.41-2.57-2.2-2.57-1.6,0-2.3,1.48-2.43,2.57h4.63Z" style="fill: #132748;"/>
    <path d="M170.52,38.93h1.58v12.78h-1.58v-12.78Z" style="fill: #132748;"/>
    <path d="M179.6,51.71l-.13-1.1h-.05c-.49,.68-1.42,1.3-2.67,1.3-1.76,0-2.66-1.24-2.66-2.5,0-2.11,1.87-3.26,5.24-3.24v-.18c0-.72-.2-2.02-1.98-2.02-.81,0-1.66,.25-2.27,.65l-.36-1.04c.72-.47,1.76-.77,2.86-.77,2.67,0,3.31,1.82,3.31,3.57v3.26c0,.76,.04,1.49,.14,2.09h-1.44Zm-.23-4.45c-1.73-.04-3.69,.27-3.69,1.96,0,1.03,.68,1.51,1.49,1.51,1.13,0,1.85-.72,2.11-1.46,.05-.16,.09-.34,.09-.5v-1.51Z" style="fill: #132748;"/>
    <path d="M187.88,43l1.71,4.9c.29,.79,.52,1.51,.7,2.23h.05c.2-.72,.45-1.44,.74-2.23l1.69-4.9h1.66l-3.42,8.71h-1.51l-3.31-8.71h1.69Z" style="fill: #132748;"/>
    <path d="M196.62,47.65c.04,2.14,1.4,3.02,2.99,3.02,1.13,0,1.82-.2,2.41-.45l.27,1.13c-.56,.25-1.51,.54-2.9,.54-2.68,0-4.29-1.76-4.29-4.39s1.55-4.7,4.09-4.7c2.84,0,3.6,2.5,3.6,4.11,0,.32-.04,.58-.05,.74h-6.12Zm4.65-1.13c.02-1.01-.42-2.57-2.2-2.57-1.6,0-2.3,1.48-2.43,2.57h4.63Z" style="fill: #132748;"/>
    <path d="M204.76,45.72c0-1.03-.02-1.91-.07-2.72h1.39l.05,1.71h.07c.4-1.17,1.35-1.91,2.41-1.91,.18,0,.31,.02,.45,.05v1.5c-.16-.04-.32-.05-.54-.05-1.12,0-1.91,.85-2.12,2.04-.04,.22-.07,.47-.07,.74v4.65h-1.57v-6Z" style="fill: #132748;"/>
    <path d="M212.48,40.55c.02,.54-.38,.97-1.01,.97-.56,0-.96-.43-.96-.97s.41-.99,.99-.99,.97,.43,.97,.99Zm-1.76,11.16v-8.71h1.58v8.71h-1.58Z" style="fill: #132748;"/>
    <path d="M215.09,51.71v-7.51h-1.22v-1.21h1.22v-.47c0-2.3,1.35-3.8,3.8-3.8,.81,0,1.76,.25,2.21,.58l-.45,1.21c-.38-.27-1.06-.5-1.84-.5-1.67,0-2.16,1.17-2.16,2.56v.43h5.06v8.71h-1.57v-7.51h-3.49v7.51h-1.57Z" style="fill: #132748;"/>
    <path d="M230.56,51.39c-.41,.22-1.33,.5-2.5,.5-2.63,0-4.34-1.78-4.34-4.45s1.84-4.63,4.68-4.63c.94,0,1.76,.23,2.2,.45l-.36,1.22c-.38-.22-.97-.41-1.84-.41-2,0-3.08,1.48-3.08,3.29,0,2.02,1.3,3.26,3.02,3.26,.9,0,1.5-.23,1.95-.43l.27,1.19Z" style="fill: #132748;"/>
    <path d="M237.23,51.71l-.13-1.1h-.05c-.49,.68-1.42,1.3-2.67,1.3-1.76,0-2.67-1.24-2.67-2.5,0-2.11,1.87-3.26,5.24-3.24v-.18c0-.72-.2-2.02-1.98-2.02-.81,0-1.66,.25-2.27,.65l-.36-1.04c.72-.47,1.76-.77,2.86-.77,2.67,0,3.31,1.82,3.31,3.57v3.26c0,.76,.04,1.49,.14,2.09h-1.44Zm-.23-4.45c-1.73-.04-3.69,.27-3.69,1.96,0,1.03,.68,1.51,1.49,1.51,1.13,0,1.85-.72,2.11-1.46,.05-.16,.09-.34,.09-.5v-1.51Z" style="fill: #132748;"/>
    <path d="M247.3,51.39c-.41,.22-1.33,.5-2.5,.5-2.63,0-4.34-1.78-4.34-4.45s1.84-4.63,4.68-4.63c.94,0,1.76,.23,2.2,.45l-.36,1.22c-.38-.22-.97-.41-1.84-.41-2,0-3.08,1.48-3.08,3.29,0,2.02,1.3,3.26,3.03,3.26,.9,0,1.49-.23,1.94-.43l.27,1.19Z" style="fill: #132748;"/>
    <path d="M250.91,40.55c.02,.54-.38,.97-1.01,.97-.56,0-.96-.43-.96-.97s.41-.99,.99-.99,.97,.43,.97,.99Zm-1.76,11.16v-8.71h1.58v8.71h-1.58Z" style="fill: #132748;"/>
    <path d="M261.25,47.29c0,3.22-2.23,4.63-4.34,4.63-2.36,0-4.18-1.73-4.18-4.48,0-2.92,1.91-4.63,4.32-4.63s4.2,1.82,4.2,4.48Zm-6.91,.09c0,1.91,1.1,3.35,2.65,3.35s2.65-1.42,2.65-3.39c0-1.48-.74-3.35-2.61-3.35s-2.68,1.73-2.68,3.38Zm5.02-8.14l-2.2,2.57h-1.13l1.58-2.57h1.75Z" style="fill: #132748;"/>
    <path d="M263.24,45.36c0-.9-.02-1.64-.07-2.36h1.41l.09,1.44h.04c.43-.83,1.44-1.64,2.88-1.64,1.21,0,3.08,.72,3.08,3.71v5.2h-1.58v-5.02c0-1.4-.52-2.58-2.02-2.58-1.04,0-1.85,.74-2.12,1.62-.07,.2-.11,.47-.11,.74v5.24h-1.58v-6.36Z" style="fill: #132748;"/>
  </g>
  <g>
    <path d="M106.79,131.96v8.08h-1.04v-8.08h1.04Z" style="fill: #132748;"/>
    <path d="M108.7,135.81c0-.6-.01-1.09-.05-1.57h.94l.06,.96h.02c.29-.55,.96-1.09,1.92-1.09,.8,0,2.05,.48,2.05,2.47v3.47h-1.06v-3.35c0-.94-.35-1.71-1.34-1.71-.7,0-1.24,.49-1.42,1.08-.05,.13-.07,.31-.07,.49v3.49h-1.06v-4.23Z" style="fill: #132748;"/>
    <path d="M120.36,134.24c-.02,.42-.05,.89-.05,1.6v3.37c0,1.33-.26,2.15-.83,2.65-.56,.53-1.38,.7-2.11,.7s-1.46-.17-1.93-.48l.26-.8c.38,.24,.98,.46,1.7,.46,1.08,0,1.87-.56,1.87-2.03v-.65h-.02c-.32,.54-.95,.97-1.85,.97-1.44,0-2.47-1.22-2.47-2.83,0-1.97,1.28-3.08,2.61-3.08,1.01,0,1.56,.53,1.81,1.01h.02l.05-.88h.92Zm-1.09,2.29c0-.18-.01-.34-.06-.48-.19-.61-.71-1.12-1.48-1.12-1.01,0-1.73,.85-1.73,2.19,0,1.14,.58,2.09,1.72,2.09,.65,0,1.24-.41,1.46-1.08,.06-.18,.08-.38,.08-.56v-1.04Z" style="fill: #132748;"/>
    <path d="M121.99,136.05c0-.68-.01-1.27-.05-1.81h.92l.04,1.14h.05c.26-.78,.9-1.27,1.61-1.27,.12,0,.2,.01,.3,.04v1c-.11-.02-.22-.04-.36-.04-.74,0-1.27,.56-1.42,1.36-.02,.14-.05,.31-.05,.49v3.09h-1.04v-3.99Z" style="fill: #132748;"/>
    <path d="M126.39,137.33c.02,1.43,.94,2.01,1.99,2.01,.76,0,1.21-.13,1.61-.3l.18,.76c-.37,.17-1.01,.36-1.93,.36-1.79,0-2.85-1.18-2.85-2.93s1.03-3.13,2.72-3.13c1.9,0,2.4,1.67,2.4,2.73,0,.22-.02,.38-.04,.49h-4.08Zm3.09-.76c.01-.67-.28-1.71-1.46-1.71-1.07,0-1.54,.98-1.62,1.71h3.08Z" style="fill: #132748;"/>
    <path d="M131.67,138.96c.31,.2,.86,.42,1.39,.42,.77,0,1.13-.38,1.13-.86,0-.5-.3-.78-1.08-1.07-1.04-.37-1.54-.95-1.54-1.64,0-.94,.76-1.7,2-1.7,.59,0,1.1,.17,1.43,.36l-.26,.77c-.23-.14-.65-.34-1.19-.34-.62,0-.97,.36-.97,.79,0,.48,.35,.7,1.1,.98,1.01,.38,1.52,.89,1.52,1.75,0,1.02-.79,1.74-2.17,1.74-.64,0-1.22-.16-1.63-.4l.26-.8Z" style="fill: #132748;"/>
    <path d="M137.15,137.33c.02,1.43,.94,2.01,1.99,2.01,.76,0,1.21-.13,1.61-.3l.18,.76c-.37,.17-1.01,.36-1.93,.36-1.79,0-2.85-1.18-2.85-2.93s1.03-3.13,2.72-3.13c1.9,0,2.4,1.67,2.4,2.73,0,.22-.02,.38-.04,.49h-4.08Zm3.09-.76c.01-.67-.28-1.71-1.46-1.71-1.07,0-1.54,.98-1.62,1.71h3.08Z" style="fill: #132748;"/>
    <path d="M145.12,131.53h1.06v8.52h-1.06v-8.52Z" style="fill: #132748;"/>
    <path d="M153.2,137.09c0,2.15-1.49,3.08-2.89,3.08-1.57,0-2.78-1.15-2.78-2.99,0-1.94,1.27-3.08,2.88-3.08s2.79,1.21,2.79,2.99Zm-4.61,.06c0,1.27,.73,2.23,1.76,2.23s1.76-.95,1.76-2.25c0-.98-.49-2.23-1.74-2.23s-1.79,1.15-1.79,2.25Z" style="fill: #132748;"/>
    <path d="M154.39,138.96c.31,.2,.86,.42,1.39,.42,.77,0,1.13-.38,1.13-.86,0-.5-.3-.78-1.08-1.07-1.04-.37-1.54-.95-1.54-1.64,0-.94,.76-1.7,2-1.7,.59,0,1.1,.17,1.43,.36l-.26,.77c-.23-.14-.65-.34-1.19-.34-.62,0-.97,.36-.97,.79,0,.48,.35,.7,1.1,.98,1.01,.38,1.52,.89,1.52,1.75,0,1.02-.79,1.74-2.17,1.74-.64,0-1.22-.16-1.63-.4l.26-.8Z" style="fill: #132748;"/>
    <path d="M166.85,131.53v7.02c0,.52,.01,1.1,.05,1.5h-.95l-.05-1.01h-.02c-.32,.65-1.03,1.14-1.98,1.14-1.4,0-2.48-1.19-2.48-2.95-.01-1.93,1.19-3.12,2.6-3.12,.89,0,1.49,.42,1.75,.89h.02v-3.47h1.06Zm-1.06,5.07c0-.13-.01-.31-.05-.44-.16-.67-.73-1.22-1.52-1.22-1.09,0-1.74,.96-1.74,2.24,0,1.18,.58,2.15,1.72,2.15,.71,0,1.35-.47,1.55-1.26,.04-.14,.05-.29,.05-.46v-1.01Z" style="fill: #132748;"/>
    <path d="M171.82,140.04l-.08-.73h-.04c-.32,.46-.95,.86-1.77,.86-1.18,0-1.77-.83-1.77-1.67,0-1.4,1.25-2.17,3.49-2.16v-.12c0-.48-.13-1.34-1.32-1.34-.54,0-1.1,.17-1.51,.43l-.24-.7c.48-.31,1.18-.52,1.91-.52,1.77,0,2.21,1.21,2.21,2.37v2.17c0,.5,.02,1,.1,1.39h-.96Zm-.16-2.96c-1.15-.02-2.46,.18-2.46,1.31,0,.68,.46,1.01,1,1.01,.76,0,1.24-.48,1.4-.97,.04-.11,.06-.23,.06-.34v-1.01Z" style="fill: #132748;"/>
    <path d="M175.61,132.57v1.67h1.51v.8h-1.51v3.13c0,.72,.2,1.13,.79,1.13,.28,0,.48-.04,.61-.07l.05,.79c-.2,.08-.53,.14-.94,.14-.49,0-.89-.16-1.14-.44-.3-.31-.41-.83-.41-1.51v-3.17h-.9v-.8h.9v-1.39l1.03-.28Z" style="fill: #132748;"/>
    <path d="M183.49,137.09c0,2.15-1.49,3.08-2.89,3.08-1.57,0-2.78-1.15-2.78-2.99,0-1.94,1.27-3.08,2.88-3.08s2.79,1.21,2.79,2.99Zm-4.61,.06c0,1.27,.73,2.23,1.76,2.23s1.76-.95,1.76-2.25c0-.98-.49-2.23-1.74-2.23s-1.79,1.15-1.79,2.25Z" style="fill: #132748;"/>
    <path d="M184.68,138.96c.31,.2,.86,.42,1.39,.42,.77,0,1.13-.38,1.13-.86,0-.5-.3-.78-1.08-1.07-1.04-.37-1.54-.95-1.54-1.64,0-.94,.76-1.7,2-1.7,.59,0,1.1,.17,1.43,.36l-.26,.77c-.23-.14-.65-.34-1.19-.34-.62,0-.97,.36-.97,.79,0,.48,.35,.7,1.1,.98,1.01,.38,1.52,.89,1.52,1.75,0,1.02-.79,1.74-2.17,1.74-.64,0-1.22-.16-1.63-.4l.26-.8Z" style="fill: #132748;"/>
    <path d="M197.13,131.53v7.02c0,.52,.01,1.1,.05,1.5h-.95l-.05-1.01h-.02c-.32,.65-1.03,1.14-1.98,1.14-1.4,0-2.48-1.19-2.48-2.95-.01-1.93,1.19-3.12,2.6-3.12,.89,0,1.49,.42,1.75,.89h.02v-3.47h1.06Zm-1.06,5.07c0-.13-.01-.31-.05-.44-.16-.67-.73-1.22-1.52-1.22-1.09,0-1.74,.96-1.74,2.24,0,1.18,.58,2.15,1.72,2.15,.71,0,1.35-.47,1.55-1.26,.04-.14,.05-.29,.05-.46v-1.01Z" style="fill: #132748;"/>
    <path d="M199.48,137.33c.02,1.43,.94,2.01,1.99,2.01,.76,0,1.21-.13,1.61-.3l.18,.76c-.37,.17-1.01,.36-1.93,.36-1.79,0-2.85-1.18-2.85-2.93s1.03-3.13,2.72-3.13c1.89,0,2.4,1.67,2.4,2.73,0,.22-.02,.38-.04,.49h-4.08Zm3.09-.76c.01-.67-.28-1.71-1.46-1.71-1.07,0-1.54,.98-1.62,1.71h3.08Z" style="fill: #132748;"/>
    <path d="M207.3,138.96c.31,.2,.86,.42,1.39,.42,.77,0,1.13-.38,1.13-.86,0-.5-.3-.78-1.08-1.07-1.04-.37-1.54-.95-1.54-1.64,0-.94,.76-1.7,2-1.7,.59,0,1.1,.17,1.43,.36l-.26,.77c-.23-.14-.65-.34-1.19-.34-.62,0-.97,.36-.97,.79,0,.48,.35,.7,1.1,.98,1.01,.38,1.52,.89,1.52,1.75,0,1.02-.79,1.74-2.17,1.74-.63,0-1.22-.16-1.63-.4l.26-.8Z" style="fill: #132748;"/>
    <path d="M217.05,138.46c0,.6,.01,1.13,.05,1.58h-.94l-.06-.95h-.02c-.28,.47-.89,1.08-1.92,1.08-.91,0-2-.5-2-2.54v-3.39h1.06v3.21c0,1.1,.34,1.85,1.29,1.85,.71,0,1.2-.49,1.39-.96,.06-.16,.1-.35,.1-.54v-3.56h1.06v4.22Z" style="fill: #132748;"/>
    <path d="M222.62,132.57v1.67h1.51v.8h-1.51v3.13c0,.72,.2,1.13,.79,1.13,.28,0,.48-.04,.61-.07l.05,.79c-.2,.08-.53,.14-.94,.14-.49,0-.89-.16-1.14-.44-.3-.31-.41-.83-.41-1.51v-3.17h-.9v-.8h.9v-1.39l1.03-.28Z" style="fill: #132748;"/>
    <path d="M228.54,140.04l-.08-.73h-.04c-.32,.46-.95,.86-1.77,.86-1.18,0-1.78-.83-1.78-1.67,0-1.4,1.25-2.17,3.49-2.16v-.12c0-.48-.13-1.34-1.32-1.34-.54,0-1.1,.17-1.51,.43l-.24-.7c.48-.31,1.18-.52,1.91-.52,1.77,0,2.21,1.21,2.21,2.37v2.17c0,.5,.02,1,.1,1.39h-.96Zm-.16-2.96c-1.15-.02-2.46,.18-2.46,1.31,0,.68,.46,1.01,1,1.01,.76,0,1.24-.48,1.4-.97,.04-.11,.06-.23,.06-.34v-1.01Z" style="fill: #132748;"/>
    <path d="M231.11,136.05c0-.68-.01-1.27-.05-1.81h.92l.04,1.14h.05c.26-.78,.9-1.27,1.61-1.27,.12,0,.2,.01,.3,.04v1c-.11-.02-.22-.04-.36-.04-.74,0-1.27,.56-1.42,1.36-.02,.14-.05,.31-.05,.49v3.09h-1.04v-3.99Z" style="fill: #132748;"/>
    <path d="M233.62,141.72c.48-.04,.9-.17,1.15-.44,.29-.34,.4-.79,.4-2.18v-4.86h1.06v5.27c0,1.13-.18,1.86-.7,2.39-.47,.47-1.24,.66-1.8,.66l-.11-.83Zm2.72-9.12c.01,.35-.24,.65-.66,.65-.4,0-.65-.3-.65-.65,0-.37,.28-.66,.67-.66s.63,.29,.63,.66Z" style="fill: #132748;"/>
    <path d="M238.54,137.33c.02,1.43,.94,2.01,1.99,2.01,.75,0,1.21-.13,1.61-.3l.18,.76c-.37,.17-1.01,.36-1.93,.36-1.79,0-2.85-1.18-2.85-2.93s1.03-3.13,2.72-3.13c1.9,0,2.4,1.67,2.4,2.73,0,.22-.02,.38-.04,.49h-4.08Zm3.09-.76c.01-.67-.28-1.71-1.46-1.71-1.07,0-1.54,.98-1.62,1.71h3.08Z" style="fill: #132748;"/>
    <path d="M245.23,132.57v1.67h1.51v.8h-1.51v3.13c0,.72,.2,1.13,.79,1.13,.28,0,.48-.04,.61-.07l.05,.79c-.2,.08-.53,.14-.94,.14-.49,0-.89-.16-1.14-.44-.3-.31-.41-.83-.41-1.51v-3.17h-.9v-.8h.9v-1.39l1.03-.28Z" style="fill: #132748;"/>
    <path d="M251.15,140.04l-.08-.73h-.04c-.32,.46-.95,.86-1.77,.86-1.18,0-1.78-.83-1.78-1.67,0-1.4,1.25-2.17,3.49-2.16v-.12c0-.48-.13-1.34-1.32-1.34-.54,0-1.1,.17-1.51,.43l-.24-.7c.48-.31,1.18-.52,1.91-.52,1.77,0,2.21,1.21,2.21,2.37v2.17c0,.5,.02,1,.1,1.39h-.96Zm-.16-2.96c-1.15-.02-2.46,.18-2.46,1.31,0,.68,.46,1.01,1,1.01,.76,0,1.24-.48,1.4-.97,.04-.11,.06-.23,.06-.34v-1.01Z" style="fill: #132748;"/>
    <path d="M261.27,131.53v7.02c0,.52,.01,1.1,.05,1.5h-.95l-.05-1.01h-.02c-.32,.65-1.03,1.14-1.98,1.14-1.4,0-2.48-1.19-2.48-2.95-.01-1.93,1.19-3.12,2.6-3.12,.89,0,1.49,.42,1.75,.89h.02v-3.47h1.05Zm-1.05,5.07c0-.13-.01-.31-.05-.44-.16-.67-.73-1.22-1.52-1.22-1.09,0-1.74,.96-1.74,2.24,0,1.18,.58,2.15,1.71,2.15,.71,0,1.36-.47,1.55-1.26,.04-.14,.05-.29,.05-.46v-1.01Z" style="fill: #132748;"/>
    <path d="M263.62,137.33c.02,1.43,.94,2.01,1.99,2.01,.75,0,1.21-.13,1.61-.3l.18,.76c-.37,.17-1.01,.36-1.93,.36-1.79,0-2.85-1.18-2.85-2.93s1.03-3.13,2.72-3.13c1.9,0,2.4,1.67,2.4,2.73,0,.22-.02,.38-.04,.49h-4.08Zm3.09-.76c.01-.67-.28-1.71-1.46-1.71-1.07,0-1.54,.98-1.62,1.71h3.08Z" style="fill: #132748;"/>
    <path d="M135.56,154.23c-.28,.14-.89,.34-1.67,.34-1.75,0-2.89-1.19-2.89-2.96s1.22-3.08,3.12-3.08c.62,0,1.18,.16,1.46,.3l-.24,.82c-.25-.14-.65-.28-1.22-.28-1.33,0-2.05,.98-2.05,2.19,0,1.34,.86,2.17,2.02,2.17,.6,0,1-.16,1.3-.29l.18,.79Z" style="fill: #132748;"/>
    <path d="M136.8,150.45c0-.68-.01-1.27-.05-1.81h.92l.04,1.14h.05c.26-.78,.9-1.27,1.61-1.27,.12,0,.2,.01,.3,.04v1c-.11-.02-.22-.04-.36-.04-.74,0-1.27,.56-1.42,1.36-.02,.14-.05,.31-.05,.49v3.09h-1.04v-3.99Z" style="fill: #132748;"/>
    <path d="M141.19,151.73c.02,1.43,.94,2.01,1.99,2.01,.76,0,1.21-.13,1.61-.3l.18,.76c-.37,.17-1.01,.36-1.93,.36-1.79,0-2.85-1.18-2.85-2.93s1.03-3.13,2.72-3.13c1.9,0,2.4,1.67,2.4,2.73,0,.22-.02,.38-.04,.49h-4.08Zm3.09-.76c.01-.67-.28-1.71-1.46-1.71-1.07,0-1.54,.98-1.62,1.71h3.08Zm.25-4.85l-1.46,1.72h-.76l1.06-1.72h1.16Z" style="fill: #132748;"/>
    <path d="M151.63,145.93v7.02c0,.52,.01,1.1,.05,1.5h-.95l-.05-1.01h-.02c-.32,.65-1.03,1.14-1.98,1.14-1.4,0-2.48-1.19-2.48-2.95-.01-1.93,1.19-3.12,2.6-3.12,.89,0,1.49,.42,1.75,.89h.02v-3.47h1.06Zm-1.06,5.07c0-.13-.01-.31-.05-.44-.16-.67-.73-1.22-1.52-1.22-1.09,0-1.74,.96-1.74,2.24,0,1.18,.58,2.15,1.72,2.15,.71,0,1.35-.47,1.55-1.26,.04-.14,.05-.29,.05-.46v-1.01Z" style="fill: #132748;"/>
    <path d="M154.56,147.01c.01,.36-.25,.65-.67,.65-.37,0-.64-.29-.64-.65s.28-.66,.66-.66,.65,.29,.65,.66Zm-1.18,7.44v-5.8h1.06v5.8h-1.06Z" style="fill: #132748;"/>
    <path d="M157.47,146.97v1.67h1.51v.8h-1.51v3.13c0,.72,.2,1.13,.79,1.13,.28,0,.48-.04,.61-.07l.05,.79c-.2,.08-.53,.14-.94,.14-.49,0-.89-.16-1.14-.44-.3-.31-.41-.83-.41-1.51v-3.17h-.9v-.8h.9v-1.39l1.03-.28Z" style="fill: #132748;"/>
    <path d="M165.35,151.49c0,2.15-1.49,3.08-2.89,3.08-1.57,0-2.78-1.15-2.78-2.99,0-1.94,1.27-3.08,2.88-3.08s2.79,1.21,2.79,2.99Zm-4.61,.06c0,1.27,.73,2.23,1.76,2.23s1.76-.95,1.76-2.25c0-.98-.49-2.23-1.74-2.23s-1.79,1.15-1.79,2.25Z" style="fill: #132748;"/>
    <path d="M172.44,154.44l-.08-.73h-.04c-.32,.46-.95,.86-1.77,.86-1.18,0-1.77-.83-1.77-1.67,0-1.4,1.25-2.17,3.49-2.16v-.12c0-.48-.13-1.34-1.32-1.34-.54,0-1.1,.17-1.51,.43l-.24-.7c.48-.31,1.18-.52,1.91-.52,1.77,0,2.21,1.21,2.21,2.37v2.17c0,.5,.02,1,.1,1.39h-.96Zm-.16-2.96c-1.15-.02-2.46,.18-2.46,1.31,0,.68,.46,1.01,1,1.01,.76,0,1.24-.48,1.4-.97,.04-.11,.06-.23,.06-.34v-1.01Z" style="fill: #132748;"/>
    <path d="M181.69,154.23c-.28,.14-.89,.34-1.67,.34-1.75,0-2.89-1.19-2.89-2.96s1.22-3.08,3.12-3.08c.62,0,1.18,.16,1.46,.3l-.24,.82c-.25-.14-.65-.28-1.22-.28-1.33,0-2.05,.98-2.05,2.19,0,1.34,.86,2.17,2.02,2.17,.6,0,1-.16,1.3-.29l.18,.79Z" style="fill: #132748;"/>
    <path d="M188.11,151.49c0,2.15-1.49,3.08-2.89,3.08-1.57,0-2.78-1.15-2.78-2.99,0-1.94,1.27-3.08,2.88-3.08s2.79,1.21,2.79,2.99Zm-4.6,.06c0,1.27,.73,2.23,1.76,2.23s1.76-.95,1.76-2.25c0-.98-.49-2.23-1.74-2.23s-1.79,1.15-1.79,2.25Z" style="fill: #132748;"/>
    <path d="M189.45,150.21c0-.6-.01-1.09-.05-1.57h.94l.06,.96h.02c.29-.55,.96-1.09,1.92-1.09,.8,0,2.05,.48,2.05,2.47v3.47h-1.06v-3.35c0-.94-.35-1.71-1.34-1.71-.7,0-1.24,.49-1.42,1.08-.05,.13-.07,.31-.07,.49v3.49h-1.06v-4.23Z" style="fill: #132748;"/>
    <path d="M197.33,146.97v1.67h1.51v.8h-1.51v3.13c0,.72,.2,1.13,.79,1.13,.28,0,.48-.04,.61-.07l.05,.79c-.2,.08-.53,.14-.94,.14-.49,0-.89-.16-1.14-.44-.3-.31-.41-.83-.41-1.51v-3.17h-.9v-.8h.9v-1.39l1.03-.28Z" style="fill: #132748;"/>
    <path d="M201.2,147.01c.01,.36-.25,.65-.67,.65-.37,0-.64-.29-.64-.65s.28-.66,.66-.66,.65,.29,.65,.66Zm-1.17,7.44v-5.8h1.06v5.8h-1.06Z" style="fill: #132748;"/>
    <path d="M202.84,150.21c0-.6-.01-1.09-.05-1.57h.94l.06,.96h.02c.29-.55,.96-1.09,1.92-1.09,.8,0,2.05,.48,2.05,2.47v3.47h-1.06v-3.35c0-.94-.35-1.71-1.34-1.71-.7,0-1.24,.49-1.42,1.08-.05,.13-.07,.31-.07,.49v3.49h-1.06v-4.23Z" style="fill: #132748;"/>
    <path d="M214.35,152.86c0,.6,.01,1.13,.05,1.58h-.94l-.06-.95h-.02c-.28,.47-.89,1.08-1.92,1.08-.91,0-2-.5-2-2.54v-3.39h1.06v3.21c0,1.1,.34,1.85,1.3,1.85,.71,0,1.2-.49,1.39-.96,.06-.16,.1-.35,.1-.54v-3.56h1.06v4.22Z" style="fill: #132748;"/>
    <path d="M219.32,154.44l-.08-.73h-.04c-.32,.46-.95,.86-1.77,.86-1.18,0-1.78-.83-1.78-1.67,0-1.4,1.25-2.17,3.49-2.16v-.12c0-.48-.13-1.34-1.32-1.34-.54,0-1.1,.17-1.51,.43l-.24-.7c.48-.31,1.18-.52,1.91-.52,1.77,0,2.21,1.21,2.21,2.37v2.17c0,.5,.02,1,.1,1.39h-.96Zm-.16-2.96c-1.15-.02-2.46,.18-2.46,1.31,0,.68,.46,1.01,1,1.01,.76,0,1.24-.48,1.4-.97,.04-.11,.06-.23,.06-.34v-1.01Z" style="fill: #132748;"/>
    <path d="M226.03,154.23c-.28,.14-.89,.34-1.67,.34-1.75,0-2.89-1.19-2.89-2.96s1.22-3.08,3.12-3.08c.62,0,1.17,.16,1.46,.3l-.24,.82c-.25-.14-.65-.28-1.22-.28-1.33,0-2.05,.98-2.05,2.19,0,1.34,.86,2.17,2.02,2.17,.6,0,1-.16,1.29-.29l.18,.79Z" style="fill: #132748;"/>
    <path d="M228.44,147.01c.01,.36-.25,.65-.67,.65-.37,0-.64-.29-.64-.65s.28-.66,.66-.66,.65,.29,.65,.66Zm-1.18,7.44v-5.8h1.06v5.8h-1.06Z" style="fill: #132748;"/>
    <path d="M235.33,151.49c0,2.15-1.49,3.08-2.89,3.08-1.57,0-2.78-1.15-2.78-2.99,0-1.94,1.27-3.08,2.88-3.08s2.79,1.21,2.79,2.99Zm-4.61,.06c0,1.27,.73,2.23,1.76,2.23s1.76-.95,1.76-2.25c0-.98-.49-2.23-1.74-2.23s-1.79,1.15-1.79,2.25Zm3.35-5.42l-1.46,1.72h-.76l1.06-1.72h1.16Z" style="fill: #132748;"/>
    <path d="M236.67,150.21c0-.6-.01-1.09-.05-1.57h.94l.06,.96h.02c.29-.55,.96-1.09,1.92-1.09,.8,0,2.05,.48,2.05,2.47v3.47h-1.06v-3.35c0-.94-.35-1.71-1.34-1.71-.7,0-1.24,.49-1.42,1.08-.05,.13-.07,.31-.07,.49v3.49h-1.06v-4.23Z" style="fill: #132748;"/>
  </g>
  <g>
    <path d="M27.87,227.44l.96-5.64h1.54l-.96,5.64h-1.54Zm7.09-5.52c-.3-.11-.78-.24-1.38-.24-1.52,0-2.59,.76-2.6,1.86,0,.81,.76,1.26,1.35,1.53,.6,.28,.8,.45,.8,.7,0,.38-.48,.55-.92,.55-.62,0-.94-.09-1.45-.3l-.2-.09-.22,1.26c.36,.16,1.02,.29,1.71,.3,1.62,0,2.66-.76,2.68-1.93,0-.64-.4-1.13-1.29-1.53-.54-.26-.87-.43-.86-.7,0-.23,.28-.49,.88-.49,.5,0,.87,.1,1.15,.22l.14,.07,.21-1.22m3.96-.12h-1.19c-.37,0-.64,.1-.8,.47l-2.28,5.17h1.61s.26-.69,.32-.85h1.97c.05,.2,.19,.84,.19,.84h1.43l-1.24-5.64h-.01Zm-1.88,3.65c.13-.32,.61-1.58,.61-1.58,0,.02,.13-.33,.2-.54l.1,.49s.29,1.35,.36,1.63h-1.27Zm-10.46-3.64l-1.5,3.85-.16-.78c-.28-.9-1.15-1.88-2.13-2.37l1.38,4.93h1.63l2.42-5.63h-1.63" style="fill: #0e4595;"/>
    <path d="M23.65,221.8h-2.48l-.02,.12c1.93,.47,3.2,1.59,3.73,2.95l-.54-2.59c-.09-.36-.36-.46-.7-.48" style="fill: #f2ae14;"/>
  </g>
  <g>
    <path d="M62.43,224.65c0-3.88-3.24-6.56-6.78-6.56h-3.05c-3.59,0-6.54,2.68-6.54,6.56,0,3.55,2.95,6.46,6.54,6.44h3.05c3.55,.02,6.78-2.9,6.78-6.44Z" style="fill: #0079be;"/>
    <path d="M52.62,218.64c-3.28,0-5.94,2.66-5.94,5.95s2.66,5.95,5.94,5.95,5.94-2.66,5.94-5.95-2.66-5.95-5.94-5.95h0Z" style="fill: #fff;"/>
    <path d="M48.87,224.58c0-1.61,1-2.98,2.42-3.52v7.04c-1.41-.54-2.41-1.91-2.42-3.52h0Zm5.11,3.52v-7.04c1.41,.54,2.41,1.91,2.42,3.52,0,1.61-1.01,2.98-2.42,3.52h0Z" style="fill: #0079be;"/>
  </g>
  <g>
    <path d="M70.82,218.09h-1.43v13h17.39c2.21,0,2.85-.64,2.85-1.43v-11.57c-20.24,0-.64,0-1.43,0h-17.38Z" style="fill: #4d4d4d; fill-rule: evenodd;"/>
    <path d="M77.88,222.3c.23,0,.42,.05,.66,.16v.59c-.22-.2-.41-.29-.67-.29-.5,0-.89,.39-.89,.88,0,.52,.38,.89,.92,.89,.24,0,.43-.08,.64-.28v.59c-.24,.11-.44,.15-.67,.15-.81,0-1.44-.59-1.44-1.34s.65-1.35,1.45-1.35h0Zm-2.52,.02c.3,0,.57,.1,.8,.29l-.28,.34c-.14-.15-.27-.21-.43-.21-.23,0-.4,.12-.4,.29,0,.14,.09,.21,.41,.32,.61,.21,.79,.39,.79,.8,0,.5-.39,.84-.94,.84-.41,0-.7-.15-.95-.49l.34-.31c.12,.22,.33,.34,.58,.34s.41-.15,.41-.36c0-.11-.05-.2-.16-.27-.05-.03-.16-.08-.37-.15-.5-.17-.67-.35-.67-.71,0-.42,.37-.74,.85-.74l.02,.02Zm6.09,.04h.58l.73,1.73,.74-1.73h.58l-1.18,2.64h-.29l-1.16-2.64h0Zm-10.31,0h.78c.86,0,1.47,.53,1.47,1.29,0,.38-.18,.74-.5,.99-.26,.21-.56,.3-.97,.3h-.78v-2.57h0Zm2.49,0h.53v2.57h-.53v-2.57Zm10.68,0h1.51v.44h-.98v.57h.94v.44h-.94v.69h.98v.44h-1.51v-2.57h0Zm1.86-.01h.79c.61,0,.97,.28,.97,.76,0,.39-.22,.65-.62,.73l.86,1.08h-.66l-.74-1.03h-.07v1.03h-.53v-2.57Zm.53,.41v.78h.16c.34,0,.52-.14,.52-.4s-.18-.38-.51-.38h-.17Zm-15.04,.03v1.7h.14c.34,0,.56-.06,.73-.2,.18-.15,.3-.4,.3-.65s-.11-.49-.3-.64c-.18-.15-.38-.21-.73-.21h-.14Z" style="fill: #fff; fill-rule: evenodd;"/>
    <path d="M80.18,222.28c.8,0,1.45,.61,1.45,1.37h0c0,.76-.65,1.37-1.45,1.37s-1.45-.61-1.45-1.37h0c0-.76,.65-1.37,1.45-1.37h0Zm9.47,3.3c-.68,.48-5.74,3.88-14.5,5.52h14.5v-5.52Z" style="fill: #f47216; fill-rule: evenodd;"/>
  </g>
</svg>