<?xml version="1.0" encoding="UTF-8"?>
<svg id="Layer_1" data-name="Layer 1" xmlns="http://www.w3.org/2000/svg" viewBox="0 0 373 461">
  <rect x="28.6" y="256.01" width="320.18" height="38.89" style="fill: #132748;"/>
  <g>
    <path d="M161.01,281.13c-.57,.29-1.73,.58-3.21,.58-3.42,0-5.98-2.16-5.98-6.15s2.57-6.37,6.33-6.37c1.5,0,2.47,.32,2.88,.53l-.39,1.28c-.59-.28-1.43-.5-2.44-.5-2.85,0-4.73,1.82-4.73,5.01,0,2.97,1.71,4.87,4.65,4.87,.96,0,1.93-.19,2.57-.5l.31,1.25h0Z" style="fill: #fff;"/>
    <path d="M170.6,277.08c0,3.22-2.24,4.64-4.33,4.64-2.36,0-4.19-1.72-4.19-4.49,0-2.91,1.92-4.62,4.32-4.62s4.19,1.82,4.19,4.47h0Zm-6.91,.1c0,1.91,1.09,3.35,2.64,3.35s2.65-1.42,2.65-3.4c0-1.47-.74-3.33-2.62-3.33s-2.67,1.73-2.67,3.38h0Z" style="fill: #fff;"/>
    <path d="M172.6,275.17c0-.91-.03-1.63-.07-2.35h1.4l.09,1.43h.04c.43-.82,1.44-1.63,2.88-1.63,1.2,0,3.07,.72,3.07,3.71v5.19h-1.58v-5.02c0-1.41-.53-2.59-2.01-2.59-1.04,0-1.85,.74-2.13,1.63-.07,.19-.11,.47-.11,.73v5.25h-1.58v-6.36h0Z" style="fill: #fff;"/>
    <path d="M184.42,270.31v2.51h2.28v1.2h-2.28v4.69c0,1.08,.31,1.7,1.2,1.7,.41,0,.71-.05,.92-.12l.07,1.2c-.31,.12-.8,.22-1.42,.22-.73,0-1.33-.24-1.71-.67-.44-.48-.61-1.25-.61-2.27v-4.75h-1.35v-1.2h1.35v-2.1l1.55-.41h0Z" style="fill: #fff;"/>
    <path d="M190.25,270.35c0,.54-.38,.98-1.01,.98-.57,0-.96-.45-.96-.98s.41-.99,.99-.99,.97,.43,.98,.99Zm-1.77,11.17v-8.71h1.58v8.71h-1.58Z" style="fill: #fff;"/>
    <path d="M192.69,275.17c0-.91-.03-1.63-.07-2.35h1.4l.09,1.43h.04c.43-.82,1.44-1.63,2.88-1.63,1.2,0,3.07,.72,3.07,3.71v5.19h-1.58v-5.02c0-1.41-.53-2.59-2.01-2.59-1.04,0-1.85,.74-2.13,1.63-.07,.19-.11,.47-.11,.73v5.25h-1.58v-6.36h0Z" style="fill: #fff;"/>
    <path d="M209.96,279.14c0,.91,.03,1.7,.07,2.38h-1.4l-.08-1.42h-.04c-.4,.7-1.32,1.62-2.88,1.62-1.36,0-3-.76-3-3.82v-5.09h1.58v4.81c0,1.66,.52,2.79,1.95,2.79,1.06,0,1.8-.74,2.1-1.45,.08-.23,.14-.51,.14-.81v-5.33h1.58v6.32h-.02Z" style="fill: #fff;"/>
    <path d="M217.43,281.52l-.14-1.1h-.05c-.48,.68-1.42,1.3-2.66,1.3-1.76,0-2.66-1.25-2.66-2.5,0-2.11,1.87-3.27,5.23-3.24v-.19c0-.71-.2-2.02-1.98-2.01-.81,0-1.66,.24-2.27,.65l-.36-1.05c.72-.46,1.78-.76,2.87-.76,2.66,0,3.31,1.82,3.31,3.56v3.26c0,.74,.03,1.49,.13,2.08h-1.42Zm-.25-4.45c-1.71-.04-3.68,.27-3.68,1.96,0,1.04,.68,1.52,1.48,1.52,1.15,0,1.87-.72,2.12-1.46,.06-.17,.08-.35,.08-.5v-1.51h0Z" style="fill: #fff;"/>
    <path d="M221.27,275.53c0-1.03-.03-1.9-.07-2.71h1.39l.06,1.71h.06c.41-1.17,1.37-1.91,2.42-1.91,.17,0,.3,.01,.44,.04v1.49c-.16-.03-.32-.05-.54-.05-1.12,0-1.9,.84-2.12,2.03-.04,.22-.06,.48-.06,.74v4.65h-1.58v-6h0Z" style="fill: #fff;"/>
  </g>
  <rect x="28.6" y="377.04" width="320.18" height="38.89" style="fill: none; stroke: #e5e7eb;"/>
  <g>
    <path d="M158.71,391.25c.75-.15,1.83-.25,2.85-.25,1.57,0,2.61,.3,3.32,.94,.57,.5,.9,1.28,.9,2.18,0,1.51-.96,2.51-2.16,2.92v.04c.87,.31,1.4,1.13,1.68,2.32,.38,1.6,.65,2.7,.88,3.14h-1.54c-.18-.33-.44-1.31-.75-2.74-.34-1.57-.96-2.18-2.3-2.22h-1.4v4.96h-1.48v-11.3h0Zm1.48,5.22h1.51c1.58,0,2.59-.86,2.59-2.18,0-1.49-1.07-2.13-2.63-2.14-.72,0-1.21,.06-1.46,.13v4.18h0Z" style="fill: #132748;"/>
    <path d="M168.71,398.71c.03,2.02,1.31,2.85,2.81,2.85,1.07,0,1.72-.19,2.28-.42l.26,1.06c-.52,.24-1.44,.53-2.74,.53-2.53,0-4.04-1.68-4.04-4.15s1.47-4.44,3.87-4.44c2.68,0,3.38,2.35,3.38,3.87,0,.31-.02,.54-.05,.7h-5.77Zm4.38-1.08c0-.94-.39-2.42-2.06-2.42-1.53,0-2.18,1.38-2.29,2.42h4.35Z" style="fill: #132748;"/>
    <path d="M183.49,394.33c-.04,.58-.07,1.25-.07,2.25v4.77c0,1.9-.39,3.04-1.17,3.76-.81,.74-1.96,.99-3,.99s-2.08-.23-2.74-.68l.37-1.15c.55,.34,1.39,.66,2.42,.66,1.53,0,2.65-.8,2.65-2.88v-.92h-.03c-.45,.77-1.35,1.38-2.61,1.38-2.05,0-3.5-1.74-3.5-4.02,0-2.79,1.81-4.36,3.71-4.36,1.43,0,2.2,.73,2.56,1.42h.03l.06-1.23h1.32Zm-1.56,3.24c0-.24-.02-.47-.08-.67-.28-.87-1-1.59-2.1-1.59-1.43,0-2.45,1.21-2.45,3.12,0,1.61,.83,2.96,2.43,2.96,.93,0,1.76-.59,2.08-1.54,.08-.24,.12-.53,.12-.79v-1.48h0Z" style="fill: #132748;"/>
    <path d="M185.79,396.89c0-.97-.02-1.8-.07-2.56h1.31l.06,1.61h.05c.38-1.1,1.29-1.8,2.29-1.8,.16,0,.28,0,.42,.04v1.41c-.15-.03-.3-.04-.51-.04-1.05,0-1.8,.79-2,1.91-.04,.21-.06,.46-.06,.7v4.39h-1.49v-5.66h0Z" style="fill: #132748;"/>
    <path d="M192.02,398.71c.03,2.02,1.31,2.85,2.81,2.85,1.07,0,1.72-.19,2.28-.42l.26,1.06c-.52,.24-1.44,.53-2.74,.53-2.53,0-4.04-1.68-4.04-4.15s1.47-4.44,3.87-4.44c2.68,0,3.38,2.35,3.38,3.87,0,.31-.02,.54-.05,.7h-5.77Zm4.38-1.08c0-.94-.39-2.42-2.06-2.42-1.53,0-2.18,1.38-2.29,2.42h4.35Z" style="fill: #132748;"/>
    <path d="M199.49,401.03c.45,.28,1.24,.59,1.98,.59,1.09,0,1.6-.54,1.6-1.22s-.43-1.1-1.53-1.51c-1.49-.54-2.19-1.35-2.18-2.33,0-1.32,1.08-2.41,2.84-2.41,.84,0,1.56,.23,2.01,.51l-.37,1.09c-.32-.2-.92-.48-1.69-.48-.88,0-1.36,.51-1.36,1.13,0,.68,.48,.98,1.56,1.4,1.42,.53,2.15,1.24,2.16,2.47,0,1.46-1.13,2.48-3.07,2.48-.9,0-1.73-.23-2.31-.57l.36-1.13v-.02Z" style="fill: #132748;"/>
    <path d="M210.99,402.55l-.13-1.04h-.04c-.45,.64-1.34,1.22-2.51,1.22-1.66,0-2.51-1.18-2.51-2.36,0-1.99,1.76-3.08,4.94-3.06v-.17c0-.67-.19-1.91-1.87-1.9-.77,0-1.57,.23-2.14,.61l-.34-.99c.68-.44,1.68-.72,2.71-.72,2.51,0,3.12,1.72,3.12,3.36v3.08c0,.7,.03,1.4,.12,1.97h-1.35Zm-.23-4.2c-1.62-.04-3.47,.26-3.47,1.85,0,.98,.65,1.43,1.4,1.43,1.08,0,1.77-.68,2-1.38,.05-.16,.07-.33,.07-.47v-1.43Z" style="fill: #132748;"/>
    <path d="M214.62,396.89c0-.97-.02-1.8-.07-2.56h1.31l.06,1.61h.05c.38-1.1,1.29-1.8,2.29-1.8,.16,0,.28,0,.42,.04v1.41c-.15-.03-.3-.04-.51-.04-1.05,0-1.8,.79-2,1.91-.04,.21-.06,.46-.06,.7v4.39h-1.49v-5.66h0Z" style="fill: #132748;"/>
  </g>
  <line x1="28.6" y1="336.61" x2="348.79" y2="336.61" style="fill: none; stroke: #eee; stroke-width: .75px;"/>
  <path d="M186.5,123.55c10.12,0,18.34-8.22,18.34-18.34s-8.22-18.34-18.34-18.34-18.34,8.22-18.34,18.34,8.22,18.34,18.34,18.34Zm0-2.75c-8.6,0-15.58-6.98-15.58-15.59s6.98-15.58,15.58-15.58,15.59,6.98,15.59,15.58-6.98,15.59-15.59,15.59Zm0-11.92c-.76,0-1.38-.62-1.38-1.38v-10.09c0-.76,.62-1.38,1.38-1.38s1.38,.62,1.38,1.38v10.09c0,.76-.62,1.38-1.38,1.38Zm0,5.5c1.01,0,1.83-.82,1.83-1.83s-.82-1.83-1.83-1.83-1.83,.82-1.83,1.83,.82,1.83,1.83,1.83Z" style="fill: #c63e1e;"/>
  <g>
    <path d="M93.79,144.06l-.89,2.71h-1.15l2.93-8.62h1.34l2.94,8.62h-1.19l-.92-2.71h-3.06Zm2.83-.87l-.85-2.48c-.19-.56-.32-1.08-.44-1.57h-.03c-.12,.5-.26,1.03-.43,1.56l-.85,2.5h2.6Z" style="fill: #a3a5a8;"/>
    <path d="M100.15,137.69h1.12v9.08h-1.12v-9.08Z" style="fill: #a3a5a8;"/>
    <path d="M108.5,140.59c-.03,.44-.05,.94-.05,1.69v3.59c0,1.43-.29,2.29-.88,2.83-.61,.56-1.47,.74-2.25,.74s-1.56-.18-2.06-.51l.28-.87c.41,.26,1.05,.5,1.82,.5,1.15,0,1.99-.6,1.99-2.17v-.69h-.03c-.34,.58-1.01,1.04-1.97,1.04-1.54,0-2.64-1.31-2.64-3.02,0-2.1,1.36-3.28,2.79-3.28,1.07,0,1.65,.55,1.93,1.07h.03l.05-.93h.99Zm-1.17,2.44c0-.18-.02-.35-.06-.5-.21-.65-.75-1.2-1.58-1.2-1.07,0-1.84,.91-1.84,2.34,0,1.21,.62,2.23,1.83,2.23,.7,0,1.32-.44,1.57-1.16,.06-.18,.09-.4,.09-.6v-1.12h-.01Z" style="fill: #a3a5a8;"/>
    <path d="M115.49,145.08c0,.65,.02,1.2,.05,1.69h-.99l-.06-1.01h-.03c-.29,.5-.94,1.15-2.05,1.15-.97,0-2.13-.54-2.13-2.71v-3.61h1.12v3.42c0,1.18,.37,1.98,1.38,1.98,.75,0,1.28-.53,1.49-1.03,.06-.16,.1-.36,.1-.58v-3.79h1.12s0,4.49,0,4.49Z" style="fill: #a3a5a8;"/>
    <path d="M117.37,142.26c0-.65-.02-1.16-.05-1.67h.99l.06,1.02h.03c.3-.58,1.02-1.16,2.04-1.16,.85,0,2.18,.51,2.18,2.63v3.69h-1.12v-3.57c0-1-.38-1.84-1.43-1.84-.74,0-1.31,.52-1.52,1.15-.05,.14-.08,.34-.08,.52v3.73h-1.12v-4.51h.02Z" style="fill: #a3a5a8;"/>
    <path d="M130.07,143.62c0,2.29-1.59,3.29-3.08,3.29-1.68,0-2.97-1.22-2.97-3.19,0-2.07,1.36-3.28,3.07-3.28s2.98,1.29,2.98,3.17h0Zm-4.9,.08c0,1.36,.78,2.38,1.87,2.38s1.88-1.01,1.88-2.41c0-1.05-.53-2.37-1.86-2.37s-1.89,1.23-1.89,2.4Z" style="fill: #a3a5a8;"/>
    <path d="M139.54,137.69v7.48c0,.55,.02,1.17,.05,1.59h-1l-.06-1.07h-.03c-.34,.69-1.09,1.21-2.1,1.21-1.5,0-2.65-1.27-2.65-3.14,0-2.07,1.27-3.32,2.78-3.32,.95,0,1.59,.44,1.87,.94h.03v-3.69h1.11Zm-1.12,5.41c0-.15,0-.33-.05-.48-.17-.71-.78-1.29-1.63-1.29-1.16,0-1.86,1.02-1.86,2.38,0,1.26,.62,2.3,1.84,2.3,.75,0,1.44-.51,1.64-1.35,.04-.15,.05-.31,.05-.48v-1.07h.01Z" style="fill: #a3a5a8;"/>
    <path d="M142.05,143.88c.02,1.52,.99,2.15,2.12,2.15,.8,0,1.3-.14,1.71-.32l.2,.8c-.39,.18-1.08,.39-2.06,.39-1.9,0-3.04-1.27-3.04-3.12s1.1-3.34,2.91-3.34c2.02,0,2.54,1.77,2.54,2.91,0,.24,0,.41-.04,.53h-4.34Zm3.29-.81c0-.71-.29-1.82-1.55-1.82-1.15,0-1.64,1.04-1.73,1.82h3.28Z" style="fill: #a3a5a8;"/>
    <path d="M150.54,137.69h1.12v9.08h-1.12v-9.08Z" style="fill: #a3a5a8;"/>
    <path d="M159.16,143.62c0,2.29-1.59,3.29-3.08,3.29-1.68,0-2.97-1.22-2.97-3.19,0-2.07,1.36-3.28,3.07-3.28s2.98,1.29,2.98,3.17h0Zm-4.9,.08c0,1.36,.78,2.38,1.87,2.38s1.88-1.01,1.88-2.41c0-1.05-.53-2.37-1.86-2.37s-1.89,1.23-1.89,2.4Z" style="fill: #a3a5a8;"/>
    <path d="M160.42,145.63c.34,.21,.93,.44,1.49,.44,.82,0,1.2-.4,1.2-.92s-.33-.82-1.15-1.13c-1.12-.4-1.65-1.01-1.64-1.75,0-1,.81-1.81,2.14-1.81,.63,0,1.17,.17,1.51,.38l-.28,.82c-.24-.15-.69-.36-1.27-.36-.66,0-1.02,.38-1.02,.85,0,.51,.36,.74,1.17,1.05,1.07,.4,1.62,.93,1.62,1.86,0,1.1-.85,1.86-2.31,1.86-.68,0-1.3-.17-1.74-.43l.27-.85h.01Z" style="fill: #a3a5a8;"/>
    <path d="M173.7,137.69v7.48c0,.55,.02,1.17,.05,1.59h-1l-.06-1.07h-.03c-.34,.69-1.09,1.21-2.1,1.21-1.5,0-2.65-1.27-2.65-3.14,0-2.07,1.27-3.32,2.78-3.32,.95,0,1.59,.44,1.87,.94h.03v-3.69h1.11Zm-1.12,5.41c0-.15,0-.33-.05-.48-.17-.71-.78-1.29-1.63-1.29-1.16,0-1.86,1.02-1.86,2.38,0,1.26,.62,2.3,1.84,2.3,.75,0,1.44-.51,1.64-1.35,.04-.15,.05-.31,.05-.48v-1.07h.01Z" style="fill: #a3a5a8;"/>
    <path d="M179.01,146.77l-.1-.78h-.03c-.34,.48-1.01,.92-1.89,.92-1.25,0-1.89-.89-1.89-1.77,0-1.5,1.33-2.32,3.72-2.3v-.13c0-.5-.14-1.43-1.41-1.43-.58,0-1.18,.17-1.61,.46l-.26-.75c.51-.33,1.26-.54,2.04-.54,1.89,0,2.35,1.29,2.35,2.53v2.31c0,.53,.02,1.05,.09,1.48h-1.01Zm-.17-3.16c-1.22-.03-2.61,.19-2.61,1.39,0,.74,.49,1.08,1.05,1.08,.81,0,1.33-.51,1.51-1.04,.04-.12,.05-.25,.05-.35v-1.08Z" style="fill: #a3a5a8;"/>
    <path d="M183.04,138.81v1.78h1.62v.85h-1.62v3.33c0,.77,.22,1.21,.85,1.21,.29,0,.5-.04,.65-.08l.05,.85c-.22,.09-.57,.15-1,.15-.52,0-.95-.17-1.21-.48-.31-.34-.44-.89-.44-1.61v-3.38h-.96v-.85h.96v-1.49l1.1-.29h0Z" style="fill: #a3a5a8;"/>
    <path d="M191.45,143.62c0,2.29-1.59,3.29-3.08,3.29-1.68,0-2.97-1.22-2.97-3.19,0-2.07,1.36-3.28,3.07-3.28s2.98,1.29,2.98,3.17h0Zm-4.9,.08c0,1.36,.78,2.38,1.87,2.38s1.88-1.01,1.88-2.41c0-1.05-.53-2.37-1.86-2.37s-1.89,1.23-1.89,2.4Z" style="fill: #a3a5a8;"/>
    <path d="M192.71,145.63c.34,.21,.93,.44,1.49,.44,.82,0,1.2-.4,1.2-.92s-.33-.82-1.15-1.13c-1.12-.4-1.65-1.01-1.64-1.75,0-1,.81-1.81,2.14-1.81,.63,0,1.17,.17,1.51,.38l-.28,.82c-.24-.15-.69-.36-1.27-.36-.66,0-1.02,.38-1.02,.85,0,.51,.36,.74,1.17,1.05,1.07,.4,1.62,.93,1.62,1.86,0,1.1-.85,1.86-2.31,1.86-.68,0-1.3-.17-1.74-.43l.27-.85h.01Z" style="fill: #a3a5a8;"/>
    <path d="M201.91,138.84c0,.38-.27,.7-.72,.7-.41,0-.68-.32-.68-.7s.29-.7,.7-.7,.69,.31,.7,.7Zm-1.26,7.93v-6.18h1.12v6.18h-1.12Z" style="fill: #a3a5a8;"/>
    <path d="M203.65,142.26c0-.65-.02-1.16-.05-1.67h.99l.06,1.02h.03c.3-.58,1.02-1.16,2.04-1.16,.85,0,2.18,.51,2.18,2.63v3.69h-1.12v-3.57c0-1-.38-1.84-1.43-1.84-.74,0-1.31,.52-1.52,1.15-.05,.14-.08,.34-.08,.52v3.73h-1.12v-4.51h.02Z" style="fill: #a3a5a8;"/>
    <path d="M212.04,138.81v1.78h1.62v.85h-1.62v3.33c0,.77,.22,1.21,.85,1.21,.29,0,.5-.04,.65-.08l.05,.85c-.22,.09-.57,.15-1,.15-.52,0-.95-.17-1.21-.48-.31-.34-.44-.89-.44-1.61v-3.38h-.96v-.85h.96v-1.49l1.1-.29h0Z" style="fill: #a3a5a8;"/>
    <path d="M214.93,142.51c0-.73-.02-1.35-.05-1.93h.99l.04,1.21h.04c.29-.83,.97-1.35,1.72-1.35,.12,0,.21,0,.31,.03v1.06c-.11-.02-.23-.03-.38-.03-.79,0-1.35,.6-1.5,1.44-.03,.16-.05,.34-.05,.53v3.3h-1.12v-4.26h0Z" style="fill: #a3a5a8;"/>
    <path d="M224.58,143.62c0,2.29-1.59,3.29-3.08,3.29-1.68,0-2.97-1.22-2.97-3.19,0-2.07,1.36-3.28,3.07-3.28s2.98,1.29,2.98,3.17h0Zm-4.9,.08c0,1.36,.78,2.38,1.87,2.38s1.88-1.01,1.88-2.41c0-1.05-.53-2.37-1.86-2.37s-1.89,1.23-1.89,2.4Z" style="fill: #a3a5a8;"/>
    <path d="M231.36,137.69v7.48c0,.55,.02,1.17,.05,1.59h-1l-.06-1.07h-.03c-.34,.69-1.09,1.21-2.1,1.21-1.5,0-2.65-1.27-2.65-3.14,0-2.07,1.27-3.32,2.78-3.32,.95,0,1.59,.44,1.87,.94h.03v-3.69h1.11Zm-1.12,5.41c0-.15,0-.33-.05-.48-.17-.71-.78-1.29-1.63-1.29-1.16,0-1.86,1.02-1.86,2.38,0,1.26,.62,2.3,1.84,2.3,.75,0,1.44-.51,1.64-1.35,.04-.15,.05-.31,.05-.48v-1.07h.01Z" style="fill: #a3a5a8;"/>
    <path d="M238.41,145.08c0,.65,.02,1.2,.05,1.69h-.99l-.06-1.01h-.03c-.29,.5-.94,1.15-2.05,1.15-.97,0-2.13-.54-2.13-2.71v-3.61h1.12v3.42c0,1.18,.37,1.98,1.38,1.98,.75,0,1.28-.53,1.49-1.03,.06-.16,.1-.36,.1-.58v-3.79h1.12v4.49Z" style="fill: #a3a5a8;"/>
    <path d="M244.7,146.55c-.3,.14-.94,.36-1.77,.36-1.86,0-3.09-1.27-3.09-3.16s1.3-3.3,3.32-3.3c.66,0,1.26,.17,1.56,.33l-.25,.86c-.28-.15-.7-.3-1.31-.3-1.41,0-2.18,1.06-2.18,2.34,0,1.43,.92,2.31,2.15,2.31,.63,0,1.06-.16,1.38-.3l.19,.84v.02Z" style="fill: #a3a5a8;"/>
    <path d="M247.27,138.84c0,.38-.27,.7-.72,.7-.41,0-.68-.32-.68-.7s.29-.7,.7-.7,.69,.31,.7,.7Zm-1.26,7.93v-6.18h1.12v6.18h-1.12Z" style="fill: #a3a5a8;"/>
    <path d="M254.35,137.69v7.48c0,.55,.02,1.17,.05,1.59h-1l-.06-1.07h-.03c-.34,.69-1.09,1.21-2.1,1.21-1.5,0-2.65-1.27-2.65-3.14,0-2.07,1.27-3.32,2.78-3.32,.95,0,1.59,.44,1.87,.94h.03v-3.69h1.11Zm-1.12,5.41c0-.15,0-.33-.05-.48-.17-.71-.78-1.29-1.63-1.29-1.16,0-1.86,1.02-1.86,2.38,0,1.26,.62,2.3,1.84,2.3,.75,0,1.44-.51,1.64-1.35,.04-.15,.05-.31,.05-.48v-1.07h.01Z" style="fill: #a3a5a8;"/>
    <path d="M261.82,143.62c0,2.29-1.59,3.29-3.08,3.29-1.68,0-2.97-1.22-2.97-3.19,0-2.07,1.36-3.28,3.07-3.28s2.98,1.29,2.98,3.17h0Zm-4.9,.08c0,1.36,.78,2.38,1.87,2.38s1.88-1.01,1.88-2.41c0-1.05-.53-2.37-1.86-2.37s-1.89,1.23-1.89,2.4Z" style="fill: #a3a5a8;"/>
    <path d="M263.09,145.63c.34,.21,.93,.44,1.49,.44,.82,0,1.2-.4,1.2-.92s-.33-.82-1.15-1.13c-1.12-.4-1.65-1.01-1.64-1.75,0-1,.81-1.81,2.14-1.81,.63,0,1.17,.17,1.51,.38l-.28,.82c-.24-.15-.69-.36-1.27-.36-.66,0-1.02,.38-1.02,.85,0,.51,.36,.74,1.17,1.05,1.07,.4,1.62,.93,1.62,1.86,0,1.1-.85,1.86-2.31,1.86-.68,0-1.3-.17-1.74-.43l.27-.85h0Z" style="fill: #a3a5a8;"/>
    <path d="M271.66,143.88c.02,1.52,.99,2.15,2.12,2.15,.8,0,1.3-.14,1.71-.32l.2,.8c-.39,.18-1.08,.39-2.06,.39-1.9,0-3.04-1.27-3.04-3.12s1.1-3.34,2.91-3.34c2.02,0,2.54,1.77,2.54,2.91,0,.24-.01,.41-.04,.53h-4.34Zm3.29-.81c.01-.71-.29-1.82-1.55-1.82-1.15,0-1.64,1.04-1.73,1.82h3.28Z" style="fill: #a3a5a8;"/>
    <path d="M277.28,145.63c.34,.21,.93,.44,1.49,.44,.82,0,1.2-.4,1.2-.92s-.33-.82-1.15-1.13c-1.12-.4-1.65-1.01-1.64-1.75,0-1,.81-1.81,2.14-1.81,.63,0,1.17,.17,1.51,.38l-.28,.82c-.24-.15-.69-.36-1.27-.36-.66,0-1.02,.38-1.02,.85,0,.51,.36,.74,1.17,1.05,1.07,.4,1.62,.93,1.62,1.86,0,1.1-.85,1.86-2.31,1.86-.68,0-1.3-.17-1.74-.43l.27-.85h0Z" style="fill: #a3a5a8;"/>
    <path d="M92.67,154.19c0,.38-.27,.7-.72,.7-.41,0-.68-.32-.68-.7s.29-.7,.7-.7,.69,.31,.7,.7Zm-1.26,7.93v-6.18h1.12v6.18h-1.12Z" style="fill: #a3a5a8;"/>
    <path d="M94.4,157.61c0-.65-.02-1.16-.05-1.67h.99l.06,1.02h.03c.3-.58,1.02-1.16,2.04-1.16,.85,0,2.18,.51,2.18,2.63v3.69h-1.12v-3.57c0-1-.38-1.84-1.43-1.84-.74,0-1.31,.52-1.52,1.15-.05,.14-.08,.34-.08,.52v3.73h-1.12v-4.51h.02Z" style="fill: #a3a5a8;"/>
    <path d="M105.91,161.9c-.3,.14-.94,.36-1.77,.36-1.86,0-3.09-1.27-3.09-3.16s1.3-3.3,3.32-3.3c.66,0,1.26,.17,1.56,.33l-.25,.86c-.28-.15-.7-.3-1.31-.3-1.41,0-2.18,1.06-2.18,2.34,0,1.43,.92,2.31,2.15,2.31,.63,0,1.06-.16,1.38-.3l.19,.84v.02Z" style="fill: #a3a5a8;"/>
    <path d="M112.76,158.97c0,2.29-1.59,3.29-3.08,3.29-1.68,0-2.97-1.22-2.97-3.19,0-2.07,1.36-3.28,3.07-3.28s2.98,1.29,2.98,3.17h0Zm-4.9,.08c0,1.36,.78,2.38,1.87,2.38s1.88-1.01,1.88-2.41c0-1.05-.53-2.37-1.86-2.37s-1.89,1.23-1.89,2.4Z" style="fill: #a3a5a8;"/>
    <path d="M114.18,157.86c0-.73-.02-1.35-.05-1.93h.99l.04,1.21h.04c.29-.83,.97-1.35,1.72-1.35,.12,0,.21,0,.31,.03v1.06c-.11-.02-.23-.03-.38-.03-.79,0-1.35,.6-1.5,1.44-.03,.16-.05,.34-.05,.53v3.3h-1.12v-4.26h0Z" style="fill: #a3a5a8;"/>
    <path d="M118.42,157.86c0-.73-.02-1.35-.05-1.93h.99l.04,1.21h.04c.29-.83,.97-1.35,1.72-1.35,.12,0,.21,0,.31,.03v1.06c-.11-.02-.23-.03-.38-.03-.79,0-1.35,.6-1.5,1.44-.03,.16-.05,.34-.05,.53v3.3h-1.12v-4.26h0Z" style="fill: #a3a5a8;"/>
    <path d="M123.1,159.23c.02,1.52,.99,2.15,2.12,2.15,.8,0,1.3-.14,1.71-.32l.2,.8c-.39,.18-1.08,.39-2.06,.39-1.9,0-3.04-1.27-3.04-3.12s1.1-3.34,2.91-3.34c2.02,0,2.54,1.77,2.54,2.91,0,.24-.01,.41-.04,.53h-4.34Zm3.29-.81c.01-.71-.29-1.82-1.55-1.82-1.15,0-1.64,1.04-1.73,1.82h3.28Z" style="fill: #a3a5a8;"/>
    <path d="M133.29,161.9c-.3,.14-.94,.36-1.77,.36-1.86,0-3.09-1.27-3.09-3.16s1.3-3.3,3.32-3.3c.66,0,1.26,.17,1.56,.33l-.25,.86c-.28-.15-.7-.3-1.31-.3-1.41,0-2.18,1.06-2.18,2.34,0,1.43,.92,2.31,2.15,2.31,.63,0,1.06-.16,1.38-.3l.19,.84v.02Z" style="fill: #a3a5a8;"/>
    <path d="M136.13,154.16v1.78h1.62v.85h-1.62v3.33c0,.77,.22,1.21,.85,1.21,.29,0,.5-.04,.65-.08l.05,.85c-.22,.09-.57,.15-1,.15-.52,0-.95-.17-1.21-.48-.31-.34-.44-.89-.44-1.61v-3.38h-.96v-.85h.96v-1.49l1.1-.29h0Z" style="fill: #a3a5a8;"/>
    <path d="M144.54,158.97c0,2.29-1.59,3.29-3.08,3.29-1.68,0-2.97-1.22-2.97-3.19,0-2.07,1.36-3.28,3.07-3.28s2.98,1.29,2.98,3.17h0Zm-4.9,.08c0,1.36,.78,2.38,1.87,2.38s1.88-1.01,1.88-2.41c0-1.05-.53-2.37-1.86-2.37s-1.89,1.23-1.89,2.4Z" style="fill: #a3a5a8;"/>
    <path d="M145.39,161.46c0-.47,.32-.81,.76-.81s.75,.33,.75,.81c0,.45-.3,.8-.76,.8s-.76-.35-.75-.8Z" style="fill: #a3a5a8;"/>
    <path d="M151.05,153.61c.54-.1,1.24-.17,2.14-.17,1.09,0,1.9,.25,2.42,.72,.47,.41,.76,1.04,.76,1.8s-.23,1.4-.67,1.84c-.59,.63-1.55,.94-2.63,.94-.34,0-.64,0-.9-.08v3.46h-1.11v-8.51h0Zm1.11,4.15c.25,.07,.56,.1,.92,.1,1.35,0,2.17-.66,2.17-1.84s-.81-1.7-2.04-1.7c-.49,0-.86,.05-1.05,.09v3.35h0Z" style="fill: #a3a5a8;"/>
    <path d="M163.1,158.97c0,2.29-1.59,3.29-3.08,3.29-1.68,0-2.97-1.22-2.97-3.19,0-2.07,1.36-3.28,3.07-3.28s2.98,1.29,2.98,3.17h0Zm-4.9,.08c0,1.36,.78,2.38,1.87,2.38s1.88-1.01,1.88-2.41c0-1.05-.53-2.37-1.86-2.37s-1.89,1.23-1.89,2.4Z" style="fill: #a3a5a8;"/>
    <path d="M164.52,157.86c0-.73-.02-1.35-.05-1.93h.99l.04,1.21h.04c.29-.83,.97-1.35,1.72-1.35,.12,0,.21,0,.31,.03v1.06c-.11-.02-.23-.03-.38-.03-.79,0-1.35,.6-1.5,1.44-.03,.16-.05,.34-.05,.53v3.3h-1.12v-4.26h0Z" style="fill: #a3a5a8;"/>
    <path d="M171.53,162.12v-5.33h-.86v-.85h.86v-.3c0-.87,.2-1.66,.72-2.17,.42-.41,.99-.57,1.5-.57,.41,0,.74,.08,.96,.18l-.15,.86c-.17-.07-.39-.14-.72-.14-.95,0-1.2,.84-1.2,1.8v.33h1.49v.85h-1.49v5.33h-1.11Z" style="fill: #a3a5a8;"/>
    <path d="M178.58,162.12l-.1-.78h-.03c-.34,.48-1.01,.92-1.89,.92-1.25,0-1.89-.89-1.89-1.77,0-1.5,1.33-2.32,3.72-2.3v-.13c0-.5-.14-1.43-1.41-1.43-.58,0-1.18,.17-1.61,.46l-.26-.75c.51-.33,1.26-.54,2.04-.54,1.89,0,2.35,1.29,2.35,2.53v2.31c0,.53,.02,1.05,.09,1.48h-1.01Zm-.17-3.16c-1.22-.03-2.61,.19-2.61,1.39,0,.74,.49,1.08,1.05,1.08,.81,0,1.33-.51,1.51-1.04,.04-.12,.05-.25,.05-.35v-1.08Z" style="fill: #a3a5a8;"/>
    <path d="M181.65,155.94l1.21,3.47c.21,.57,.37,1.08,.51,1.6h.03c.14-.51,.32-1.03,.52-1.6l1.21-3.47h1.18l-2.43,6.18h-1.07l-2.35-6.18h1.19Z" style="fill: #a3a5a8;"/>
    <path d="M192.84,158.97c0,2.29-1.59,3.29-3.08,3.29-1.68,0-2.97-1.22-2.97-3.19,0-2.07,1.36-3.28,3.07-3.28s2.98,1.29,2.98,3.17h0Zm-4.9,.08c0,1.36,.78,2.38,1.87,2.38s1.88-1.01,1.88-2.41c0-1.05-.53-2.37-1.86-2.37s-1.89,1.23-1.89,2.4Z" style="fill: #a3a5a8;"/>
    <path d="M194.27,157.86c0-.73-.02-1.35-.05-1.93h.99l.04,1.21h.04c.29-.83,.97-1.35,1.72-1.35,.12,0,.21,0,.31,.03v1.06c-.11-.02-.23-.03-.38-.03-.79,0-1.35,.6-1.5,1.44-.03,.16-.05,.34-.05,.53v3.3h-1.12v-4.26h0Z" style="fill: #a3a5a8;"/>
    <path d="M201.6,155.94l1.21,3.47c.21,.57,.37,1.08,.51,1.6h.03c.14-.51,.32-1.03,.52-1.6l1.21-3.47h1.18l-2.43,6.18h-1.07l-2.35-6.18h1.19Z" style="fill: #a3a5a8;"/>
    <path d="M207.82,159.23c.02,1.52,.99,2.15,2.12,2.15,.8,0,1.3-.14,1.71-.32l.2,.8c-.39,.18-1.08,.39-2.06,.39-1.9,0-3.04-1.27-3.04-3.12s1.1-3.34,2.91-3.34c2.02,0,2.54,1.77,2.54,2.91,0,.24,0,.41-.04,.53h-4.34Zm3.29-.81c0-.71-.29-1.82-1.55-1.82-1.15,0-1.64,1.04-1.73,1.82h3.28Z" style="fill: #a3a5a8;"/>
    <path d="M213.6,157.86c0-.73-.02-1.35-.05-1.93h.99l.04,1.21h.04c.29-.83,.97-1.35,1.72-1.35,.12,0,.21,0,.31,.03v1.06c-.11-.02-.23-.03-.38-.03-.79,0-1.35,.6-1.5,1.44-.03,.16-.05,.34-.05,.53v3.3h-1.12v-4.26h0Z" style="fill: #a3a5a8;"/>
    <path d="M219.09,154.19c0,.38-.27,.7-.72,.7-.41,0-.68-.32-.68-.7s.29-.7,.7-.7,.69,.31,.7,.7Zm-1.26,7.93v-6.18h1.12v6.18h-1.12Z" style="fill: #a3a5a8;"/>
    <path d="M220.94,162.12v-5.33h-.86v-.85h.86v-.34c0-1.63,.96-2.69,2.7-2.69,.58,0,1.25,.18,1.57,.41l-.32,.85c-.28-.18-.76-.36-1.31-.36-1.19,0-1.54,.83-1.54,1.83v.31h3.6v6.18h-1.12v-5.33h-2.47v5.33h-1.11Z" style="fill: #a3a5a8;"/>
    <path d="M231.74,161.17h-.03c-.34,.61-1.02,1.09-2.02,1.09-1.45,0-2.62-1.25-2.62-3.13,0-2.32,1.49-3.33,2.8-3.33,.96,0,1.6,.47,1.9,1.07h.03l.04-.93h1.07c-.03,.51-.05,1.05-.05,1.7v7.02h-1.12v-3.49Zm0-2.73c0-.16,0-.32-.05-.47-.18-.69-.77-1.28-1.62-1.28-1.16,0-1.87,.99-1.87,2.37,0,1.24,.59,2.3,1.83,2.3,.73,0,1.36-.45,1.61-1.22,.06-.16,.09-.37,.09-.54v-1.17h0Z" style="fill: #a3a5a8;"/>
    <path d="M239.89,160.43c0,.65,.02,1.2,.05,1.69h-.99l-.06-1.01h-.03c-.29,.5-.94,1.15-2.05,1.15-.97,0-2.13-.54-2.13-2.71v-3.61h1.12v3.42c0,1.18,.37,1.98,1.38,1.98,.75,0,1.28-.53,1.49-1.03,.06-.16,.1-.36,.1-.58v-3.79h1.12v4.49Z" style="fill: #a3a5a8;"/>
    <path d="M242.4,159.23c.02,1.52,.99,2.15,2.12,2.15,.8,0,1.3-.14,1.71-.32l.2,.8c-.39,.18-1.08,.39-2.06,.39-1.9,0-3.04-1.27-3.04-3.12s1.1-3.34,2.91-3.34c2.02,0,2.54,1.77,2.54,2.91,0,.24,0,.41-.04,.53h-4.34Zm3.29-.81c0-.71-.29-1.82-1.55-1.82-1.15,0-1.64,1.04-1.73,1.82h3.28Z" style="fill: #a3a5a8;"/>
    <path d="M255.11,161.17h-.03c-.34,.61-1.02,1.09-2.02,1.09-1.45,0-2.62-1.25-2.62-3.13,0-2.32,1.49-3.33,2.8-3.33,.96,0,1.6,.47,1.9,1.07h.03l.04-.93h1.07c-.03,.51-.05,1.05-.05,1.7v7.02h-1.12v-3.49h0Zm0-2.73c0-.16,0-.32-.05-.47-.18-.69-.77-1.28-1.62-1.28-1.16,0-1.87,.99-1.87,2.37,0,1.24,.59,2.3,1.83,2.3,.73,0,1.36-.45,1.61-1.22,.06-.16,.09-.37,.09-.54v-1.17h0Z" style="fill: #a3a5a8;"/>
    <path d="M263.27,160.43c0,.65,.02,1.2,.05,1.69h-.99l-.06-1.01h-.03c-.29,.5-.94,1.15-2.05,1.15-.97,0-2.13-.54-2.13-2.71v-3.61h1.12v3.42c0,1.18,.37,1.98,1.38,1.98,.75,0,1.28-.53,1.49-1.03,.06-.16,.1-.36,.1-.58v-3.79h1.12v4.49Z" style="fill: #a3a5a8;"/>
    <path d="M265.77,159.23c.02,1.52,.99,2.15,2.12,2.15,.8,0,1.3-.14,1.71-.32l.2,.8c-.39,.18-1.08,.39-2.06,.39-1.9,0-3.04-1.27-3.04-3.12s1.1-3.34,2.91-3.34c2.02,0,2.54,1.77,2.54,2.91,0,.24-.01,.41-.04,.53h-4.34Zm3.29-.81c.01-.71-.29-1.82-1.55-1.82-1.15,0-1.64,1.04-1.73,1.82h3.28Z" style="fill: #a3a5a8;"/>
    <path d="M274.27,153.04h1.12v9.08h-1.12v-9.08Z" style="fill: #a3a5a8;"/>
    <path d="M280.71,162.12l-.1-.78h-.03c-.34,.48-1.01,.92-1.89,.92-1.25,0-1.89-.89-1.89-1.77,0-1.5,1.33-2.32,3.72-2.3v-.13c0-.5-.14-1.43-1.41-1.43-.58,0-1.18,.17-1.61,.46l-.26-.75c.51-.33,1.26-.54,2.04-.54,1.89,0,2.35,1.29,2.35,2.53v2.31c0,.53,.02,1.05,.09,1.48h-1.01Zm-.17-3.16c-1.22-.03-2.61,.19-2.61,1.39,0,.74,.49,1.08,1.05,1.08,.81,0,1.33-.51,1.51-1.04,.04-.12,.05-.25,.05-.35v-1.08Z" style="fill: #a3a5a8;"/>
    <path d="M101.84,169.54c0,.38-.27,.7-.72,.7-.41,0-.68-.32-.68-.7s.29-.7,.7-.7,.69,.31,.7,.7Zm-1.26,7.93v-6.18h1.12v6.18h-1.12Z" style="fill: #a3a5a8;"/>
    <path d="M103.58,172.96c0-.65-.02-1.16-.05-1.67h.99l.06,1.02h.03c.3-.58,1.02-1.16,2.04-1.16,.85,0,2.18,.51,2.18,2.63v3.69h-1.12v-3.57c0-1-.38-1.84-1.43-1.84-.74,0-1.31,.52-1.52,1.15-.05,.14-.08,.34-.08,.52v3.73h-1.12v-4.51h.02Z" style="fill: #a3a5a8;"/>
    <path d="M110.79,177.47v-5.33h-.86v-.85h.86v-.3c0-.87,.2-1.66,.72-2.17,.42-.41,.99-.57,1.5-.57,.41,0,.74,.08,.96,.18l-.15,.86c-.17-.07-.39-.14-.72-.14-.95,0-1.2,.84-1.2,1.8v.33h1.49v.85h-1.49v5.33h-1.11Z" style="fill: #a3a5a8;"/>
    <path d="M119.84,174.32c0,2.29-1.59,3.29-3.08,3.29-1.68,0-2.97-1.22-2.97-3.19,0-2.07,1.36-3.28,3.07-3.28s2.98,1.29,2.98,3.17h0Zm-4.9,.08c0,1.36,.78,2.38,1.87,2.38s1.88-1.01,1.88-2.41c0-1.05-.53-2.37-1.86-2.37s-1.89,1.23-1.89,2.4Z" style="fill: #a3a5a8;"/>
    <path d="M121.27,173.22c0-.73-.02-1.35-.05-1.93h.99l.04,1.21h.04c.29-.83,.97-1.35,1.72-1.35,.12,0,.21,0,.31,.03v1.06c-.11-.02-.23-.03-.38-.03-.79,0-1.35,.6-1.5,1.44-.03,.16-.05,.34-.05,.53v3.3h-1.12v-4.26h0Z" style="fill: #a3a5a8;"/>
    <path d="M125.51,172.96c0-.65-.02-1.16-.05-1.67h.98l.06,1h.03c.34-.59,.92-1.14,1.95-1.14,.84,0,1.48,.51,1.74,1.24h.03c.2-.35,.44-.62,.7-.8,.37-.28,.78-.43,1.36-.43,.83,0,2.04,.53,2.04,2.68v3.64h-1.1v-3.5c0-1.2-.44-1.91-1.34-1.91-.64,0-1.14,.47-1.34,1.01-.05,.16-.09,.36-.09,.56v3.83h-1.1v-3.71c0-.99-.44-1.69-1.29-1.69-.7,0-1.22,.56-1.4,1.12-.06,.17-.08,.36-.08,.55v3.73h-1.1v-4.51h0Z" style="fill: #a3a5a8;"/>
    <path d="M139.6,177.47l-.1-.78h-.03c-.34,.48-1.01,.92-1.89,.92-1.25,0-1.89-.89-1.89-1.77,0-1.5,1.33-2.32,3.72-2.3v-.13c0-.5-.14-1.43-1.41-1.43-.58,0-1.18,.17-1.61,.46l-.26-.75c.51-.33,1.26-.54,2.04-.54,1.89,0,2.35,1.29,2.35,2.53v2.31c0,.53,.02,1.05,.09,1.48h-1.01Zm-.17-3.16c-1.22-.03-2.61,.19-2.61,1.39,0,.74,.49,1.08,1.05,1.08,.81,0,1.33-.51,1.51-1.04,.04-.12,.05-.25,.05-.35v-1.08Z" style="fill: #a3a5a8;"/>
    <path d="M146.75,177.25c-.3,.14-.94,.36-1.77,.36-1.86,0-3.09-1.27-3.09-3.16s1.3-3.3,3.32-3.3c.66,0,1.26,.17,1.56,.33l-.25,.86c-.28-.15-.7-.3-1.31-.3-1.41,0-2.18,1.06-2.18,2.34,0,1.43,.92,2.31,2.15,2.31,.63,0,1.06-.16,1.38-.3l.19,.84v.02Z" style="fill: #a3a5a8;"/>
    <path d="M149.33,169.54c0,.38-.27,.7-.72,.7-.41,0-.68-.32-.68-.7s.29-.7,.7-.7,.69,.31,.7,.7Zm-1.26,7.93v-6.18h1.12v6.18h-1.12Z" style="fill: #a3a5a8;"/>
    <path d="M156.66,174.32c0,2.29-1.59,3.29-3.08,3.29-1.68,0-2.97-1.22-2.97-3.19,0-2.07,1.36-3.28,3.07-3.28s2.98,1.29,2.98,3.17h0Zm-4.9,.08c0,1.36,.78,2.38,1.87,2.38s1.88-1.01,1.88-2.41c0-1.05-.53-2.37-1.86-2.37s-1.89,1.23-1.89,2.4Zm3.56-5.79l-1.56,1.83h-.8l1.12-1.83h1.24Z" style="fill: #a3a5a8;"/>
    <path d="M158.09,172.96c0-.65-.02-1.16-.05-1.67h.99l.06,1.02h.03c.3-.58,1.02-1.16,2.04-1.16,.85,0,2.18,.51,2.18,2.63v3.69h-1.12v-3.57c0-1-.38-1.84-1.43-1.84-.74,0-1.31,.52-1.52,1.15-.05,.14-.08,.34-.08,.52v3.73h-1.12v-4.51h.02Z" style="fill: #a3a5a8;"/>
    <path d="M173.24,168.39v7.48c0,.55,.02,1.17,.05,1.59h-1l-.06-1.07h-.03c-.34,.69-1.09,1.21-2.1,1.21-1.5,0-2.65-1.27-2.65-3.14,0-2.07,1.27-3.32,2.78-3.32,.95,0,1.59,.44,1.87,.94h.03v-3.69h1.11Zm-1.12,5.41c0-.15,0-.33-.05-.48-.17-.71-.78-1.29-1.63-1.29-1.16,0-1.86,1.02-1.86,2.38,0,1.26,.62,2.3,1.84,2.3,.75,0,1.44-.51,1.64-1.35,.04-.15,.05-.31,.05-.48v-1.07h.01Z" style="fill: #a3a5a8;"/>
    <path d="M175.75,174.59c.02,1.52,.99,2.15,2.12,2.15,.8,0,1.3-.14,1.71-.32l.2,.8c-.39,.18-1.08,.39-2.06,.39-1.9,0-3.04-1.27-3.04-3.12s1.1-3.34,2.91-3.34c2.02,0,2.54,1.77,2.54,2.91,0,.24,0,.41-.04,.53h-4.34Zm3.29-.81c0-.71-.29-1.82-1.55-1.82-1.15,0-1.64,1.04-1.73,1.82h3.28Z" style="fill: #a3a5a8;"/>
    <path d="M184.08,176.33c.34,.21,.93,.44,1.49,.44,.82,0,1.2-.4,1.2-.92s-.33-.82-1.15-1.13c-1.12-.4-1.65-1.01-1.64-1.75,0-1,.81-1.81,2.14-1.81,.63,0,1.17,.17,1.51,.38l-.28,.82c-.24-.15-.69-.36-1.27-.36-.66,0-1.02,.38-1.02,.85,0,.51,.36,.74,1.17,1.05,1.07,.4,1.62,.93,1.62,1.86,0,1.1-.85,1.86-2.31,1.86-.68,0-1.3-.17-1.74-.43l.27-.85h.01Z" style="fill: #a3a5a8;"/>
    <path d="M194.48,175.78c0,.65,.02,1.2,.05,1.69h-.99l-.06-1.01h-.03c-.29,.5-.94,1.15-2.05,1.15-.97,0-2.13-.54-2.13-2.71v-3.61h1.12v3.42c0,1.18,.37,1.98,1.38,1.98,.75,0,1.28-.53,1.49-1.03,.06-.16,.1-.36,.1-.58v-3.79h1.12v4.49Z" style="fill: #a3a5a8;"/>
    <path d="M199.7,174.59c.02,1.52,.99,2.15,2.12,2.15,.8,0,1.3-.14,1.71-.32l.2,.8c-.39,.18-1.08,.39-2.06,.39-1.9,0-3.04-1.27-3.04-3.12s1.1-3.34,2.91-3.34c2.02,0,2.54,1.77,2.54,2.91,0,.24,0,.41-.04,.53h-4.34Zm3.29-.81c0-.71-.29-1.82-1.55-1.82-1.15,0-1.64,1.04-1.73,1.82h3.28Z" style="fill: #a3a5a8;"/>
    <path d="M205.48,172.96c0-.65-.02-1.16-.05-1.67h.98l.06,1h.03c.34-.59,.92-1.14,1.95-1.14,.84,0,1.48,.51,1.74,1.24h.03c.2-.35,.44-.62,.7-.8,.37-.28,.78-.43,1.36-.43,.83,0,2.04,.53,2.04,2.68v3.64h-1.1v-3.5c0-1.2-.44-1.91-1.34-1.91-.64,0-1.14,.47-1.34,1.01-.05,.16-.09,.36-.09,.56v3.83h-1.1v-3.71c0-.99-.44-1.69-1.29-1.69-.7,0-1.22,.56-1.4,1.12-.06,.17-.08,.36-.08,.55v3.73h-1.1v-4.51h0Z" style="fill: #a3a5a8;"/>
    <path d="M219.58,177.47l-.1-.78h-.03c-.34,.48-1.01,.92-1.89,.92-1.25,0-1.89-.89-1.89-1.77,0-1.5,1.33-2.32,3.72-2.3v-.13c0-.5-.14-1.43-1.41-1.43-.58,0-1.18,.17-1.61,.46l-.26-.75c.51-.33,1.26-.54,2.04-.54,1.89,0,2.35,1.29,2.35,2.53v2.31c0,.53,.02,1.05,.09,1.48h-1.01Zm-.17-3.16c-1.22-.03-2.61,.19-2.61,1.39,0,.74,.49,1.08,1.05,1.08,.81,0,1.33-.51,1.51-1.04,.04-.12,.05-.25,.05-.35v-1.08Z" style="fill: #a3a5a8;"/>
    <path d="M223.57,169.54c0,.38-.27,.7-.72,.7-.41,0-.68-.32-.68-.7s.29-.7,.7-.7,.69,.31,.7,.7Zm-1.26,7.93v-6.18h1.12v6.18h-1.12Z" style="fill: #a3a5a8;"/>
    <path d="M225.31,168.39h1.12v9.08h-1.12v-9.08Z" style="fill: #a3a5a8;"/>
    <path d="M231.44,171.29l1.35,3.66c.15,.41,.3,.89,.4,1.26h.03c.11-.36,.25-.84,.39-1.29l1.22-3.63h1.19l-1.69,4.4c-.8,2.13-1.35,3.21-2.12,3.88-.56,.48-1.1,.67-1.38,.72l-.28-.94c.28-.09,.65-.26,.99-.55,.3-.25,.68-.68,.94-1.25,.06-.12,.09-.2,.09-.27,0-.06-.02-.15-.08-.29l-2.28-5.7h1.23Z" style="fill: #a3a5a8;"/>
    <path d="M241.13,169.51v1.78h1.62v.85h-1.62v3.33c0,.77,.22,1.21,.85,1.21,.29,0,.5-.04,.65-.08l.05,.85c-.22,.09-.57,.15-1,.15-.52,0-.95-.17-1.21-.48-.31-.34-.44-.89-.44-1.61v-3.38h-.96v-.85h.96v-1.49l1.1-.29h0Z" style="fill: #a3a5a8;"/>
    <path d="M247.44,177.47l-.1-.78h-.03c-.34,.48-1.01,.92-1.89,.92-1.25,0-1.89-.89-1.89-1.77,0-1.5,1.33-2.32,3.72-2.3v-.13c0-.5-.14-1.43-1.41-1.43-.58,0-1.18,.17-1.61,.46l-.26-.75c.51-.33,1.26-.54,2.04-.54,1.89,0,2.35,1.29,2.35,2.53v2.31c0,.53,.02,1.05,.09,1.48h-1.01Zm-.17-3.16c-1.22-.03-2.61,.19-2.61,1.39,0,.74,.49,1.08,1.05,1.08,.81,0,1.33-.51,1.51-1.04,.04-.12,.05-.25,.05-.35v-1.08Z" style="fill: #a3a5a8;"/>
    <path d="M250.17,173.22c0-.73-.02-1.35-.05-1.93h.99l.04,1.21h.04c.29-.83,.97-1.35,1.72-1.35,.12,0,.21,0,.31,.03v1.06c-.11-.02-.23-.03-.38-.03-.79,0-1.35,.6-1.5,1.44-.03,.16-.05,.34-.05,.53v3.3h-1.12v-4.26h0Z" style="fill: #a3a5a8;"/>
    <path d="M252.84,179.26c.52-.04,.96-.18,1.23-.48,.31-.35,.43-.84,.43-2.32v-5.17h1.12v5.61c0,1.2-.19,1.98-.74,2.55-.5,.5-1.32,.7-1.92,.7l-.12-.89h0Zm2.91-9.72c0,.38-.26,.7-.71,.7-.42,0-.68-.32-.68-.7s.29-.7,.71-.7,.68,.31,.69,.7h-.01Z" style="fill: #a3a5a8;"/>
    <path d="M258.1,174.59c.02,1.52,.99,2.15,2.12,2.15,.8,0,1.3-.14,1.71-.32l.2,.8c-.39,.18-1.08,.39-2.06,.39-1.9,0-3.04-1.27-3.04-3.12s1.1-3.34,2.91-3.34c2.02,0,2.54,1.77,2.54,2.91,0,.24-.01,.41-.04,.53h-4.34Zm3.29-.81c.01-.71-.29-1.82-1.55-1.82-1.15,0-1.64,1.04-1.73,1.82h3.28Z" style="fill: #a3a5a8;"/>
    <path d="M265.23,169.51v1.78h1.62v.85h-1.62v3.33c0,.77,.22,1.21,.85,1.21,.29,0,.5-.04,.65-.08l.05,.85c-.22,.09-.57,.15-1,.15-.52,0-.95-.17-1.21-.48-.31-.34-.44-.89-.44-1.61v-3.38h-.96v-.85h.96v-1.49l1.1-.29h0Z" style="fill: #a3a5a8;"/>
    <path d="M271.54,177.47l-.1-.78h-.03c-.34,.48-1.01,.92-1.89,.92-1.25,0-1.89-.89-1.89-1.77,0-1.5,1.33-2.32,3.72-2.3v-.13c0-.5-.14-1.43-1.41-1.43-.58,0-1.18,.17-1.61,.46l-.26-.75c.51-.33,1.26-.54,2.04-.54,1.89,0,2.35,1.29,2.35,2.53v2.31c0,.53,.02,1.05,.09,1.48h-1.01Zm-.17-3.16c-1.22-.03-2.61,.19-2.61,1.39,0,.74,.49,1.08,1.05,1.08,.81,0,1.33-.51,1.51-1.04,.04-.12,.05-.25,.05-.35v-1.08Z" style="fill: #a3a5a8;"/>
    <path d="M155.29,191.68c.34,.21,.93,.44,1.49,.44,.82,0,1.2-.4,1.2-.92s-.33-.82-1.15-1.13c-1.12-.4-1.65-1.01-1.64-1.75,0-1,.81-1.81,2.14-1.81,.63,0,1.17,.17,1.51,.38l-.28,.82c-.24-.15-.69-.36-1.27-.36-.66,0-1.02,.38-1.02,.85,0,.51,.36,.74,1.17,1.05,1.07,.4,1.62,.93,1.62,1.86,0,1.1-.85,1.86-2.31,1.86-.68,0-1.3-.17-1.74-.43l.27-.85h.01Z" style="fill: #a3a5a8;"/>
    <path d="M161.14,189.94c.02,1.52,.99,2.15,2.12,2.15,.8,0,1.3-.14,1.71-.32l.2,.8c-.39,.18-1.08,.39-2.06,.39-1.9,0-3.04-1.27-3.04-3.12s1.1-3.34,2.91-3.34c2.02,0,2.54,1.77,2.54,2.91,0,.24,0,.41-.04,.53h-4.34Zm3.29-.81c0-.71-.29-1.82-1.55-1.82-1.15,0-1.64,1.04-1.73,1.82h3.28Z" style="fill: #a3a5a8;"/>
    <path d="M170.35,192.83l-.1-.78h-.03c-.34,.48-1.01,.92-1.89,.92-1.25,0-1.89-.89-1.89-1.77,0-1.5,1.33-2.32,3.72-2.3v-.13c0-.5-.14-1.43-1.41-1.43-.58,0-1.18,.17-1.61,.46l-.26-.75c.51-.33,1.26-.54,2.04-.54,1.89,0,2.35,1.29,2.35,2.53v2.31c0,.53,.02,1.05,.09,1.48h-1.01Zm-.17-3.16c-1.22-.03-2.61,.19-2.61,1.39,0,.74,.49,1.08,1.05,1.08,.81,0,1.33-.51,1.51-1.04,.04-.12,.05-.25,.05-.35v-1.08Z" style="fill: #a3a5a8;"/>
    <path d="M180.21,192.6c-.3,.14-.94,.36-1.77,.36-1.86,0-3.09-1.27-3.09-3.16s1.3-3.3,3.32-3.3c.66,0,1.26,.17,1.56,.33l-.25,.86c-.28-.15-.7-.3-1.31-.3-1.41,0-2.18,1.06-2.18,2.34,0,1.43,.92,2.31,2.15,2.31,.63,0,1.06-.16,1.38-.3l.19,.84v.02Z" style="fill: #a3a5a8;"/>
    <path d="M187.05,189.67c0,2.29-1.59,3.29-3.08,3.29-1.68,0-2.97-1.22-2.97-3.19,0-2.07,1.36-3.28,3.07-3.28s2.98,1.29,2.98,3.17h0Zm-4.9,.08c0,1.36,.78,2.38,1.87,2.38s1.88-1.01,1.88-2.41c0-1.05-.53-2.37-1.86-2.37s-1.89,1.23-1.89,2.4Z" style="fill: #a3a5a8;"/>
    <path d="M188.48,188.57c0-.73-.02-1.35-.05-1.93h.99l.04,1.21h.04c.29-.83,.97-1.35,1.72-1.35,.12,0,.21,0,.31,.03v1.06c-.11-.02-.23-.03-.38-.03-.79,0-1.35,.6-1.5,1.44-.03,.16-.05,.34-.05,.53v3.3h-1.12v-4.26h0Z" style="fill: #a3a5a8;"/>
    <path d="M192.71,188.57c0-.73-.02-1.35-.05-1.93h.99l.04,1.21h.04c.29-.83,.97-1.35,1.72-1.35,.12,0,.21,0,.31,.03v1.06c-.11-.02-.23-.03-.38-.03-.79,0-1.35,.6-1.5,1.44-.03,.16-.05,.34-.05,.53v3.3h-1.12v-4.26h0Z" style="fill: #a3a5a8;"/>
    <path d="M197.4,189.94c.02,1.52,.99,2.15,2.12,2.15,.8,0,1.3-.14,1.71-.32l.2,.8c-.39,.18-1.08,.39-2.06,.39-1.9,0-3.04-1.27-3.04-3.12s1.1-3.34,2.91-3.34c2.02,0,2.54,1.77,2.54,2.91,0,.24,0,.41-.04,.53h-4.34Zm3.29-.81c0-.71-.29-1.82-1.55-1.82-1.15,0-1.64,1.04-1.73,1.82h3.28Z" style="fill: #a3a5a8;"/>
    <path d="M207.59,192.6c-.3,.14-.94,.36-1.77,.36-1.86,0-3.09-1.27-3.09-3.16s1.3-3.3,3.32-3.3c.66,0,1.26,.17,1.56,.33l-.25,.86c-.28-.15-.7-.3-1.31-.3-1.41,0-2.18,1.06-2.18,2.34,0,1.43,.92,2.31,2.15,2.31,.63,0,1.06-.16,1.38-.3l.19,.84v.02Z" style="fill: #a3a5a8;"/>
    <path d="M210.43,184.86v1.78h1.62v.85h-1.62v3.33c0,.77,.22,1.21,.85,1.21,.29,0,.5-.04,.65-.08l.05,.85c-.22,.09-.57,.15-1,.15-.52,0-.95-.17-1.21-.48-.31-.34-.44-.89-.44-1.61v-3.38h-.96v-.85h.96v-1.49l1.1-.29h0Z" style="fill: #a3a5a8;"/>
    <path d="M216.74,192.83l-.1-.78h-.03c-.34,.48-1.01,.92-1.89,.92-1.25,0-1.89-.89-1.89-1.77,0-1.5,1.33-2.32,3.72-2.3v-.13c0-.5-.14-1.43-1.41-1.43-.58,0-1.18,.17-1.61,.46l-.26-.75c.51-.33,1.26-.54,2.04-.54,1.89,0,2.35,1.29,2.35,2.53v2.31c0,.53,.02,1.05,.09,1.48h-1.01Zm-.17-3.16c-1.22-.03-2.61,.19-2.61,1.39,0,.74,.49,1.08,1.05,1.08,.81,0,1.33-.51,1.51-1.04,.04-.12,.05-.25,.05-.35v-1.08Z" style="fill: #a3a5a8;"/>
    <path d="M219.21,192.17c0-.47,.32-.81,.76-.81s.75,.33,.75,.81c0,.45-.3,.8-.76,.8s-.76-.35-.75-.8Z" style="fill: #a3a5a8;"/>
  </g>
  <g>
    <path d="M124.21,53.94h-4.72v4.38h5.26v1.31h-6.82v-12.14h6.55v1.31h-4.99v3.83h4.72v1.3Z" style="fill: #132748;"/>
    <path d="M126.72,53.64c0-1.03-.02-1.91-.07-2.72h1.39l.05,1.71h.07c.4-1.17,1.35-1.91,2.41-1.91,.18,0,.31,.02,.45,.05v1.5c-.16-.04-.32-.05-.54-.05-1.12,0-1.91,.85-2.12,2.04-.04,.22-.07,.47-.07,.74v4.65h-1.57v-6Z" style="fill: #132748;"/>
    <path d="M132.68,53.64c0-1.03-.02-1.91-.07-2.72h1.39l.05,1.71h.07c.4-1.17,1.35-1.91,2.41-1.91,.18,0,.31,.02,.45,.05v1.5c-.16-.04-.32-.05-.54-.05-1.12,0-1.91,.85-2.12,2.04-.04,.22-.07,.47-.07,.74v4.65h-1.57v-6Z" style="fill: #132748;"/>
    <path d="M146.27,55.21c0,3.22-2.23,4.63-4.34,4.63-2.36,0-4.18-1.73-4.18-4.48,0-2.92,1.91-4.63,4.32-4.63s4.2,1.82,4.2,4.48Zm-6.91,.09c0,1.91,1.1,3.35,2.65,3.35s2.65-1.42,2.65-3.39c0-1.48-.74-3.35-2.61-3.35s-2.68,1.73-2.68,3.38Z" style="fill: #132748;"/>
    <path d="M148.27,53.64c0-1.03-.02-1.91-.07-2.72h1.39l.05,1.71h.07c.4-1.17,1.35-1.91,2.41-1.91,.18,0,.31,.02,.45,.05v1.5c-.16-.04-.32-.05-.54-.05-1.12,0-1.91,.85-2.12,2.04-.04,.22-.07,.47-.07,.74v4.65h-1.57v-6Z" style="fill: #132748;"/>
    <path d="M165.5,46.85v10.53c0,.77,.02,1.66,.07,2.25h-1.42l-.07-1.51h-.04c-.49,.97-1.55,1.71-2.97,1.71-2.11,0-3.73-1.78-3.73-4.43-.02-2.9,1.78-4.68,3.91-4.68,1.33,0,2.23,.63,2.63,1.33h.04v-5.2h1.58Zm-1.58,7.62c0-.2-.02-.47-.07-.67-.23-1.01-1.1-1.84-2.29-1.84-1.64,0-2.61,1.44-2.61,3.37,0,1.76,.86,3.22,2.57,3.22,1.06,0,2.03-.7,2.32-1.89,.05-.22,.07-.43,.07-.68v-1.51Z" style="fill: #132748;"/>
    <path d="M169.01,55.57c.04,2.14,1.4,3.02,2.99,3.02,1.13,0,1.82-.2,2.41-.45l.27,1.13c-.56,.25-1.51,.54-2.9,.54-2.68,0-4.29-1.76-4.29-4.39s1.55-4.7,4.09-4.7c2.84,0,3.6,2.5,3.6,4.11,0,.32-.04,.58-.05,.74h-6.12Zm4.65-1.13c.02-1.01-.41-2.57-2.2-2.57-1.6,0-2.3,1.48-2.43,2.57h4.63Z" style="fill: #132748;"/>
    <path d="M181.57,50.92l1.71,4.9c.29,.79,.52,1.51,.7,2.23h.05c.2-.72,.45-1.44,.74-2.23l1.69-4.9h1.66l-3.42,8.71h-1.51l-3.31-8.71h1.69Z" style="fill: #132748;"/>
    <path d="M194.37,59.63l-.13-1.1h-.05c-.49,.68-1.42,1.3-2.67,1.3-1.76,0-2.67-1.24-2.67-2.5,0-2.11,1.87-3.26,5.24-3.24v-.18c0-.72-.2-2.02-1.98-2.02-.81,0-1.66,.25-2.27,.65l-.36-1.04c.72-.47,1.76-.77,2.86-.77,2.67,0,3.31,1.82,3.31,3.57v3.26c0,.76,.04,1.49,.14,2.09h-1.44Zm-.23-4.45c-1.73-.04-3.69,.27-3.69,1.96,0,1.03,.68,1.51,1.49,1.51,1.13,0,1.85-.72,2.11-1.46,.05-.16,.09-.34,.09-.5v-1.51Z" style="fill: #132748;"/>
    <path d="M198.22,46.85h1.58v12.78h-1.58v-12.78Z" style="fill: #132748;"/>
    <path d="M204.23,48.47c.02,.54-.38,.97-1.01,.97-.56,0-.95-.43-.95-.97s.41-.99,.99-.99,.97,.43,.97,.99Zm-1.76,11.16v-8.71h1.58v8.71h-1.58Z" style="fill: #132748;"/>
    <path d="M214.21,46.85v10.53c0,.77,.02,1.66,.07,2.25h-1.42l-.07-1.51h-.04c-.49,.97-1.55,1.71-2.97,1.71-2.11,0-3.73-1.78-3.73-4.43-.02-2.9,1.78-4.68,3.91-4.68,1.33,0,2.23,.63,2.63,1.33h.04v-5.2h1.58Zm-1.58,7.62c0-.2-.02-.47-.07-.67-.23-1.01-1.1-1.84-2.29-1.84-1.64,0-2.61,1.44-2.61,3.37,0,1.76,.86,3.22,2.58,3.22,1.06,0,2.03-.7,2.32-1.89,.05-.22,.07-.43,.07-.68v-1.51Z" style="fill: #132748;"/>
    <path d="M221.66,59.63l-.13-1.1h-.05c-.49,.68-1.42,1.3-2.67,1.3-1.76,0-2.66-1.24-2.66-2.5,0-2.11,1.87-3.26,5.24-3.24v-.18c0-.72-.2-2.02-1.98-2.02-.81,0-1.66,.25-2.27,.65l-.36-1.04c.72-.47,1.76-.77,2.86-.77,2.67,0,3.31,1.82,3.31,3.57v3.26c0,.76,.04,1.49,.14,2.09h-1.44Zm-.23-4.45c-1.73-.04-3.69,.27-3.69,1.96,0,1.03,.68,1.51,1.49,1.51,1.13,0,1.85-.72,2.11-1.46,.05-.16,.09-.34,.09-.5v-1.51Z" style="fill: #132748;"/>
    <path d="M231.72,59.31c-.41,.22-1.33,.5-2.5,.5-2.63,0-4.34-1.78-4.34-4.45s1.84-4.63,4.68-4.63c.94,0,1.76,.23,2.2,.45l-.36,1.22c-.38-.22-.97-.41-1.84-.41-2,0-3.08,1.48-3.08,3.29,0,2.02,1.3,3.26,3.02,3.26,.9,0,1.5-.23,1.95-.43l.27,1.19Z" style="fill: #132748;"/>
    <path d="M235.33,48.47c.02,.54-.38,.97-1.01,.97-.56,0-.95-.43-.95-.97s.41-.99,.99-.99,.97,.43,.97,.99Zm-1.76,11.16v-8.71h1.58v8.71h-1.58Z" style="fill: #132748;"/>
    <path d="M245.67,55.21c0,3.22-2.23,4.63-4.34,4.63-2.36,0-4.18-1.73-4.18-4.48,0-2.92,1.91-4.63,4.32-4.63s4.2,1.82,4.2,4.48Zm-6.91,.09c0,1.91,1.1,3.35,2.65,3.35s2.65-1.42,2.65-3.39c0-1.48-.74-3.35-2.61-3.35s-2.68,1.73-2.68,3.38Zm5.02-8.14l-2.2,2.57h-1.13l1.58-2.57h1.75Z" style="fill: #132748;"/>
    <path d="M247.66,53.28c0-.9-.02-1.64-.07-2.36h1.4l.09,1.44h.04c.43-.83,1.44-1.64,2.88-1.64,1.21,0,3.08,.72,3.08,3.71v5.2h-1.58v-5.02c0-1.4-.52-2.58-2.02-2.58-1.04,0-1.85,.74-2.12,1.62-.07,.2-.11,.47-.11,.74v5.24h-1.58v-6.36Z" style="fill: #132748;"/>
  </g>
</svg>